u2194_noise 200 - 40.ufo
<glyph name="exclam" format="1">
  <advance width="360"/>
  <unicode hex="0021"/>
  <outline>
    <contour>
      <point x="190" y="167" type="curve" smooth="yes"/>
      <point x="208" y="178"/>
      <point x="214" y="204"/>
      <point x="203" y="222" type="curve" smooth="yes"/>
      <point x="159" y="293" type="line"/>
      <point x="248" y="371" type="line" smooth="yes"/>
      <point x="263" y="384"/>
      <point x="266" y="407"/>
      <point x="255" y="423" type="curve" smooth="yes"/>
      <point x="207" y="494" type="line"/>
      <point x="295" y="571" type="line" smooth="yes"/>
      <point x="316" y="589"/>
      <point x="314" y="619"/>
      <point x="291" y="634" type="curve" smooth="yes"/>
      <point x="156" y="725" type="line"/>
      <point x="138" y="809" type="line" smooth="yes"/>
      <point x="134" y="830"/>
      <point x="112" y="845"/>
      <point x="91" y="840" type="curve" smooth="yes"/>
      <point x="70" y="836"/>
      <point x="55" y="814"/>
      <point x="60" y="793" type="curve" smooth="yes"/>
      <point x="81" y="693" type="line" smooth="yes"/>
      <point x="83" y="684"/>
      <point x="90" y="673"/>
      <point x="98" y="668" type="curve" smooth="yes"/>
      <point x="203" y="597" type="line"/>
      <point x="128" y="531" type="line" smooth="yes"/>
      <point x="113" y="518"/>
      <point x="110" y="495"/>
      <point x="121" y="479" type="curve" smooth="yes"/>
      <point x="169" y="408" type="line"/>
      <point x="81" y="331" type="line" smooth="yes"/>
      <point x="67" y="319"/>
      <point x="63" y="296"/>
      <point x="73" y="280" type="curve" smooth="yes"/>
      <point x="135" y="180" type="line" smooth="yes"/>
      <point x="146" y="162"/>
      <point x="172" y="156"/>
    </contour>
    <contour>
      <point x="50" y="22" type="curve" smooth="yes"/>
      <point x="48" y="1"/>
      <point x="64" y="-19"/>
      <point x="86" y="-22" type="curve" smooth="yes"/>
      <point x="240" y="-39" type="line" smooth="yes"/>
      <point x="261" y="-41"/>
      <point x="281" y="-25"/>
      <point x="284" y="-3" type="curve" smooth="yes"/>
      <point x="286" y="18"/>
      <point x="270" y="38"/>
      <point x="248" y="41" type="curve" smooth="yes"/>
      <point x="94" y="58" type="line" smooth="yes"/>
      <point x="73" y="60"/>
      <point x="53" y="44"/>
    </contour>
  </outline>
</glyph>
<glyph name="numbersign" format="1">
  <advance width="922"/>
  <unicode hex="0023"/>
  <outline>
    <contour>
      <point x="402" y="480" type="line" smooth="yes"/>
      <point x="407" y="489"/>
      <point x="408" y="504"/>
      <point x="404" y="514" type="curve" smooth="yes"/>
      <point x="387" y="559" type="line"/>
      <point x="482" y="559" type="line"/>
      <point x="587" y="479" type="line"/>
      <point x="589" y="412" type="line"/>
      <point x="518" y="324" type="line" smooth="yes"/>
      <point x="515" y="321"/>
      <point x="512" y="316"/>
      <point x="511" y="312" type="curve" smooth="yes"/>
      <point x="486" y="239" type="line"/>
      <point x="300" y="239" type="line"/>
      <point x="311" y="287" type="line"/>
      <point x="349" y="382" type="line"/>
    </contour>
    <contour>
      <point x="196" y="-35" type="curve" smooth="yes"/>
      <point x="356" y="65" type="line" smooth="yes"/>
      <point x="378" y="78"/>
      <point x="382" y="106"/>
      <point x="365" y="125" type="curve" smooth="yes"/>
      <point x="336" y="159" type="line"/>
      <point x="468" y="159" type="line"/>
      <point x="462" y="120" type="line"/>
      <point x="359" y="29" type="line" smooth="yes"/>
      <point x="342" y="15"/>
      <point x="341" y="-11"/>
      <point x="355" y="-27" type="curve" smooth="yes"/>
      <point x="369" y="-44"/>
      <point x="395" y="-45"/>
      <point x="411" y="-31" type="curve" smooth="yes"/>
      <point x="525" y="69" type="line" smooth="yes"/>
      <point x="531" y="74"/>
      <point x="537" y="85"/>
      <point x="538" y="93" type="curve" smooth="yes"/>
      <point x="549" y="159" type="line"/>
      <point x="700" y="159" type="line" smooth="yes"/>
      <point x="722" y="159"/>
      <point x="740" y="177"/>
      <point x="740" y="199" type="curve" smooth="yes"/>
      <point x="740" y="221"/>
      <point x="722" y="239"/>
      <point x="700" y="239" type="curve" smooth="yes"/>
      <point x="571" y="239" type="line"/>
      <point x="585" y="279" type="line"/>
      <point x="661" y="374" type="line" smooth="yes"/>
      <point x="666" y="380"/>
      <point x="670" y="392"/>
      <point x="670" y="401" type="curve" smooth="yes"/>
      <point x="666" y="501" type="line" smooth="yes"/>
      <point x="666" y="511"/>
      <point x="659" y="524"/>
      <point x="650" y="531" type="curve" smooth="yes"/>
      <point x="614" y="559" type="line"/>
      <point x="832" y="559" type="line" smooth="yes"/>
      <point x="854" y="559"/>
      <point x="872" y="577"/>
      <point x="872" y="599" type="curve" smooth="yes"/>
      <point x="872" y="621"/>
      <point x="854" y="639"/>
      <point x="832" y="639" type="curve" smooth="yes"/>
      <point x="606" y="639" type="line"/>
      <point x="641" y="668" type="line" smooth="yes"/>
      <point x="656" y="681"/>
      <point x="659" y="705"/>
      <point x="648" y="721" type="curve" smooth="yes"/>
      <point x="580" y="821" type="line" smooth="yes"/>
      <point x="568" y="839"/>
      <point x="542" y="844"/>
      <point x="525" y="832" type="curve" smooth="yes"/>
      <point x="507" y="820"/>
      <point x="502" y="794"/>
      <point x="514" y="777" type="curve" smooth="yes"/>
      <point x="562" y="706" type="line"/>
      <point x="481" y="639" type="line"/>
      <point x="427" y="639" type="line"/>
      <point x="459" y="670" type="line" smooth="yes"/>
      <point x="463" y="675"/>
      <point x="468" y="683"/>
      <point x="470" y="689" type="curve" smooth="yes"/>
      <point x="497" y="789" type="line" smooth="yes"/>
      <point x="502" y="809"/>
      <point x="489" y="832"/>
      <point x="468" y="838" type="curve" smooth="yes"/>
      <point x="448" y="843"/>
      <point x="425" y="830"/>
      <point x="419" y="809" type="curve" smooth="yes"/>
      <point x="395" y="720" type="line"/>
      <point x="312" y="639" type="line"/>
      <point x="274" y="639" type="line" smooth="yes"/>
      <point x="252" y="639"/>
      <point x="234" y="621"/>
      <point x="234" y="599" type="curve" smooth="yes"/>
      <point x="234" y="577"/>
      <point x="252" y="559"/>
      <point x="274" y="559" type="curve" smooth="yes"/>
      <point x="301" y="559" type="line"/>
      <point x="323" y="502" type="line"/>
      <point x="278" y="418" type="line" smooth="yes"/>
      <point x="277" y="417"/>
      <point x="276" y="415"/>
      <point x="276" y="414" type="curve" smooth="yes"/>
      <point x="236" y="314" type="line" smooth="yes"/>
      <point x="235" y="312"/>
      <point x="234" y="310"/>
      <point x="234" y="308" type="curve" smooth="yes"/>
      <point x="218" y="239" type="line"/>
      <point x="90" y="239" type="line" smooth="yes"/>
      <point x="68" y="239"/>
      <point x="50" y="221"/>
      <point x="50" y="199" type="curve" smooth="yes"/>
      <point x="50" y="177"/>
      <point x="68" y="159"/>
      <point x="90" y="159" type="curve" smooth="yes"/>
      <point x="232" y="159" type="line"/>
      <point x="275" y="108" type="line"/>
      <point x="154" y="33" type="line" smooth="yes"/>
      <point x="135" y="21"/>
      <point x="130" y="-4"/>
      <point x="141" y="-22" type="curve" smooth="yes"/>
      <point x="153" y="-41"/>
      <point x="178" y="-46"/>
    </contour>
  </outline>
</glyph>
<glyph name="dollar" format="1">
  <advance width="794"/>
  <unicode hex="0024"/>
  <outline>
    <contour>
      <point x="218" y="586" type="line" smooth="yes"/>
      <point x="226" y="613"/>
      <point x="209" y="636"/>
      <point x="181" y="637" type="curve" smooth="yes"/>
      <point x="144" y="638" type="line"/>
      <point x="136" y="665" type="line"/>
      <point x="231" y="726" type="line"/>
      <point x="257" y="734" type="line"/>
      <point x="250" y="709" type="line" smooth="yes"/>
      <point x="246" y="694"/>
      <point x="254" y="675"/>
      <point x="267" y="666" type="curve" smooth="yes"/>
      <point x="367" y="597" type="line"/>
      <point x="280" y="531" type="line" smooth="yes"/>
      <point x="271" y="524"/>
      <point x="264" y="509"/>
      <point x="264" y="498" type="curve" smooth="yes"/>
      <point x="265" y="442" type="line"/>
      <point x="220" y="445" type="line"/>
      <point x="186" y="471" type="line"/>
    </contour>
    <contour>
      <point x="416" y="185" type="line" smooth="yes"/>
      <point x="420" y="195"/>
      <point x="419" y="212"/>
      <point x="412" y="221" type="curve" smooth="yes"/>
      <point x="351" y="312" type="line"/>
      <point x="348" y="359" type="line"/>
      <point x="437" y="359" type="line"/>
      <point x="463" y="354" type="line"/>
      <point x="540" y="313" type="line"/>
      <point x="610" y="191" type="line"/>
      <point x="606" y="120" type="line" smooth="yes"/>
      <point x="606" y="112"/>
      <point x="609" y="101"/>
      <point x="613" y="95" type="curve" smooth="yes"/>
      <point x="634" y="64" type="line"/>
      <point x="500" y="39" type="line"/>
      <point x="464" y="39" type="line"/>
      <point x="388" y="110" type="line"/>
    </contour>
    <contour>
      <point x="183" y="-41" type="curve" smooth="yes"/>
      <point x="504" y="-41" type="line" smooth="yes"/>
      <point x="506" y="-41"/>
      <point x="509" y="-41"/>
      <point x="511" y="-40" type="curve" smooth="yes"/>
      <point x="709" y="-4" type="line" smooth="yes"/>
      <point x="740" y="2"/>
      <point x="753" y="33"/>
      <point x="735" y="58" type="curve" smooth="yes"/>
      <point x="687" y="129" type="line"/>
      <point x="691" y="199" type="line" smooth="yes"/>
      <point x="691" y="205"/>
      <point x="689" y="215"/>
      <point x="686" y="221" type="curve" smooth="yes"/>
      <point x="604" y="363" type="line" smooth="yes"/>
      <point x="600" y="368"/>
      <point x="593" y="375"/>
      <point x="588" y="378" type="curve" smooth="yes"/>
      <point x="495" y="428" type="line" smooth="yes"/>
      <point x="492" y="430"/>
      <point x="487" y="432"/>
      <point x="483" y="432" type="curve" smooth="yes"/>
      <point x="447" y="438" type="line" smooth="yes"/>
      <point x="445" y="439"/>
      <point x="442" y="439"/>
      <point x="441" y="439" type="curve" smooth="yes"/>
      <point x="345" y="439" type="line"/>
      <point x="344" y="479" type="line"/>
      <point x="460" y="567" type="line" smooth="yes"/>
      <point x="483" y="585"/>
      <point x="483" y="616"/>
      <point x="458" y="632" type="curve" smooth="yes"/>
      <point x="335" y="716" type="line"/>
      <point x="347" y="759" type="line"/>
      <point x="543" y="759" type="line"/>
      <point x="544" y="753"/>
      <point x="548" y="743"/>
      <point x="552" y="738" type="curve" smooth="yes"/>
      <point x="608" y="669" type="line"/>
      <point x="606" y="600" type="line" smooth="yes"/>
      <point x="605" y="579"/>
      <point x="623" y="560"/>
      <point x="645" y="559" type="curve" smooth="yes"/>
      <point x="666" y="558"/>
      <point x="685" y="576"/>
      <point x="686" y="598" type="curve" smooth="yes"/>
      <point x="689" y="681" type="line" smooth="yes"/>
      <point x="689" y="689"/>
      <point x="685" y="701"/>
      <point x="680" y="708" type="curve" smooth="yes"/>
      <point x="622" y="779" type="line"/>
      <point x="620" y="802" type="line" smooth="yes"/>
      <point x="618" y="823"/>
      <point x="600" y="839"/>
      <point x="580" y="839" type="curve" smooth="yes"/>
      <point x="335" y="839" type="line" smooth="yes"/>
      <point x="332" y="839"/>
      <point x="329" y="839"/>
      <point x="325" y="838" type="curve"/>
      <point x="312" y="841"/>
      <point x="297" y="837"/>
      <point x="287" y="826" type="curve"/>
      <point x="203" y="801" type="line" smooth="yes"/>
      <point x="200" y="800"/>
      <point x="195" y="798"/>
      <point x="193" y="796" type="curve" smooth="yes"/>
      <point x="68" y="716" type="line" smooth="yes"/>
      <point x="54" y="707"/>
      <point x="46" y="686"/>
      <point x="51" y="671" type="curve" smooth="yes"/>
      <point x="76" y="588" type="line" smooth="yes"/>
      <point x="80" y="572"/>
      <point x="97" y="560"/>
      <point x="113" y="559" type="curve" smooth="yes"/>
      <point x="128" y="559" type="line"/>
      <point x="102" y="466" type="line" smooth="yes"/>
      <point x="98" y="452"/>
      <point x="104" y="433"/>
      <point x="116" y="424" type="curve" smooth="yes"/>
      <point x="181" y="373" type="line" smooth="yes"/>
      <point x="187" y="369"/>
      <point x="197" y="366"/>
      <point x="204" y="365" type="curve" smooth="yes"/>
      <point x="268" y="362" type="line"/>
      <point x="272" y="297" type="line" smooth="yes"/>
      <point x="272" y="291"/>
      <point x="275" y="282"/>
      <point x="279" y="277" type="curve" smooth="yes"/>
      <point x="334" y="194" type="line"/>
      <point x="304" y="113" type="line" smooth="yes"/>
      <point x="298" y="99"/>
      <point x="303" y="80"/>
      <point x="314" y="70" type="curve" smooth="yes"/>
      <point x="347" y="39" type="line"/>
      <point x="202" y="39" type="line"/>
      <point x="177" y="69" type="line"/>
      <point x="193" y="194" type="line" smooth="yes"/>
      <point x="195" y="215"/>
      <point x="179" y="236"/>
      <point x="158" y="239" type="curve" smooth="yes"/>
      <point x="137" y="241"/>
      <point x="116" y="225"/>
      <point x="113" y="204" type="curve" smooth="yes"/>
      <point x="95" y="62" type="line" smooth="yes"/>
      <point x="94" y="53"/>
      <point x="98" y="39"/>
      <point x="104" y="32" type="curve" smooth="yes"/>
      <point x="152" y="-26" type="line" smooth="yes"/>
      <point x="159" y="-34"/>
      <point x="173" y="-41"/>
    </contour>
  </outline>
</glyph>
<glyph name="percent" format="1">
  <advance width="766"/>
  <unicode hex="0025"/>
  <outline>
    <contour>
      <point x="158" y="559" type="curve" smooth="yes"/>
      <point x="269" y="559" type="line" smooth="yes"/>
      <point x="305" y="559"/>
      <point x="323" y="595"/>
      <point x="301" y="624" type="curve" smooth="yes"/>
      <point x="223" y="724" type="line" smooth="yes"/>
      <point x="209" y="741"/>
      <point x="183" y="744"/>
      <point x="166" y="731" type="curve" smooth="yes"/>
      <point x="149" y="717"/>
      <point x="146" y="691"/>
      <point x="159" y="674" type="curve" smooth="yes"/>
      <point x="187" y="639" type="line"/>
      <point x="180" y="639" type="line"/>
      <point x="144" y="697" type="line"/>
      <point x="138" y="730" type="line"/>
      <point x="305" y="760" type="line" smooth="yes"/>
      <point x="326" y="763"/>
      <point x="341" y="785"/>
      <point x="337" y="806" type="curve" smooth="yes"/>
      <point x="334" y="827"/>
      <point x="312" y="842"/>
      <point x="291" y="838" type="curve" smooth="yes"/>
      <point x="83" y="802" type="line" smooth="yes"/>
      <point x="61" y="798"/>
      <point x="46" y="777"/>
      <point x="51" y="755" type="curve" smooth="yes"/>
      <point x="67" y="674" type="line" smooth="yes"/>
      <point x="68" y="670"/>
      <point x="70" y="664"/>
      <point x="73" y="661" type="curve" smooth="yes"/>
      <point x="124" y="578" type="line" smooth="yes"/>
      <point x="130" y="567"/>
      <point x="146" y="559"/>
    </contour>
    <contour>
      <point x="161" y="-16" type="curve" smooth="yes"/>
      <point x="189" y="55" type="line"/>
      <point x="278" y="128" type="line" smooth="yes"/>
      <point x="297" y="144"/>
      <point x="297" y="171"/>
      <point x="279" y="188" type="curve" smooth="yes"/>
      <point x="238" y="227" type="line"/>
      <point x="365" y="282" type="line" smooth="yes"/>
      <point x="378" y="288"/>
      <point x="389" y="305"/>
      <point x="389" y="319" type="curve" smooth="yes"/>
      <point x="388" y="399" type="line"/>
      <point x="389" y="452" type="line"/>
      <point x="557" y="522" type="line" smooth="yes"/>
      <point x="576" y="530"/>
      <point x="586" y="552"/>
      <point x="580" y="571" type="curve" smooth="yes"/>
      <point x="556" y="647" type="line"/>
      <point x="552" y="695" type="line"/>
      <point x="686" y="763" type="line" smooth="yes"/>
      <point x="705" y="773"/>
      <point x="713" y="798"/>
      <point x="704" y="817" type="curve" smooth="yes"/>
      <point x="694" y="836"/>
      <point x="669" y="844"/>
      <point x="650" y="835" type="curve" smooth="yes"/>
      <point x="492" y="755" type="line" smooth="yes"/>
      <point x="479" y="748"/>
      <point x="469" y="731"/>
      <point x="470" y="716" type="curve" smooth="yes"/>
      <point x="476" y="636" type="line" smooth="yes"/>
      <point x="476" y="633"/>
      <point x="477" y="629"/>
      <point x="478" y="627" type="curve" smooth="yes"/>
      <point x="493" y="582" type="line"/>
      <point x="334" y="516" type="line" smooth="yes"/>
      <point x="320" y="510"/>
      <point x="309" y="494"/>
      <point x="309" y="479" type="curve" smooth="yes"/>
      <point x="308" y="399" type="line"/>
      <point x="309" y="345" type="line"/>
      <point x="151" y="276" type="line" smooth="yes"/>
      <point x="123" y="263"/>
      <point x="117" y="231"/>
      <point x="140" y="210" type="curve" smooth="yes"/>
      <point x="192" y="161" type="line"/>
      <point x="130" y="110" type="line" smooth="yes"/>
      <point x="126" y="106"/>
      <point x="121" y="99"/>
      <point x="119" y="94" type="curve" smooth="yes"/>
      <point x="87" y="14" type="line" smooth="yes"/>
      <point x="79" y="-6"/>
      <point x="89" y="-30"/>
      <point x="109" y="-38" type="curve" smooth="yes"/>
      <point x="129" y="-46"/>
      <point x="153" y="-36"/>
    </contour>
    <contour>
      <point x="366" y="-41" type="curve" smooth="yes"/>
      <point x="669" y="-4" type="line" smooth="yes"/>
      <point x="687" y="-2"/>
      <point x="703" y="15"/>
      <point x="704" y="33" type="curve" smooth="yes"/>
      <point x="708" y="114" type="line"/>
      <point x="716" y="195" type="line" smooth="yes"/>
      <point x="718" y="219"/>
      <point x="700" y="239"/>
      <point x="676" y="239" type="curve" smooth="yes"/>
      <point x="370" y="239" type="line" smooth="yes"/>
      <point x="330" y="239"/>
      <point x="313" y="195"/>
      <point x="344" y="169" type="curve" smooth="yes"/>
      <point x="458" y="69" type="line" smooth="yes"/>
      <point x="474" y="55"/>
      <point x="500" y="56"/>
      <point x="514" y="73" type="curve" smooth="yes"/>
      <point x="528" y="89"/>
      <point x="527" y="115"/>
      <point x="510" y="129" type="curve" smooth="yes"/>
      <point x="476" y="159" type="line"/>
      <point x="632" y="159" type="line"/>
      <point x="629" y="118" type="line"/>
      <point x="626" y="71" type="line"/>
      <point x="356" y="39" type="line" smooth="yes"/>
      <point x="335" y="36"/>
      <point x="319" y="16"/>
      <point x="321" y="-6" type="curve" smooth="yes"/>
      <point x="324" y="-27"/>
      <point x="344" y="-43"/>
    </contour>
  </outline>
</glyph>
<glyph name="ampersand" format="1">
  <advance width="851"/>
  <unicode hex="0026"/>
  <outline>
    <contour>
      <point x="435" y="578" type="line" smooth="yes"/>
      <point x="440" y="586"/>
      <point x="442" y="599"/>
      <point x="440" y="608" type="curve" smooth="yes"/>
      <point x="408" y="750" type="line"/>
      <point x="406" y="757" type="line"/>
      <point x="467" y="761" type="line"/>
      <point x="640" y="761" type="line"/>
      <point x="626" y="716" type="line"/>
      <point x="583" y="619" type="line"/>
      <point x="535" y="484" type="line"/>
      <point x="486" y="441" type="line"/>
      <point x="416" y="441" type="line"/>
      <point x="387" y="498" type="line"/>
    </contour>
    <contour>
      <point x="227" y="167" type="line" smooth="yes"/>
      <point x="232" y="171"/>
      <point x="238" y="179"/>
      <point x="240" y="185" type="curve" smooth="yes"/>
      <point x="295" y="327" type="line" smooth="yes"/>
      <point x="297" y="332"/>
      <point x="299" y="341"/>
      <point x="298" y="347" type="curve" smooth="yes"/>
      <point x="296" y="361" type="line"/>
      <point x="475" y="361" type="line"/>
      <point x="496" y="324" type="line"/>
      <point x="453" y="264" type="line" smooth="yes"/>
      <point x="437" y="243"/>
      <point x="445" y="215"/>
      <point x="469" y="204" type="curve" smooth="yes"/>
      <point x="526" y="180" type="line"/>
      <point x="516" y="168" type="line"/>
      <point x="348" y="105" type="line" smooth="yes"/>
      <point x="326" y="97"/>
      <point x="317" y="76"/>
      <point x="323" y="57" type="curve"/>
      <point x="220" y="74" type="line"/>
      <point x="160" y="117" type="line"/>
    </contour>
    <contour>
      <point x="446" y="26" type="curve" smooth="yes"/>
      <point x="427" y="49" type="line"/>
      <point x="553" y="97" type="line" smooth="yes"/>
      <point x="559" y="99"/>
      <point x="566" y="103"/>
      <point x="569" y="108" type="curve" smooth="yes"/>
      <point x="604" y="147" type="line"/>
      <point x="637" y="133" type="line"/>
      <point x="643" y="77" type="line" smooth="yes"/>
      <point x="644" y="69"/>
      <point x="649" y="58"/>
      <point x="655" y="53" type="curve" smooth="yes"/>
      <point x="734" y="-27" type="line" smooth="yes"/>
      <point x="749" y="-42"/>
      <point x="775" y="-43"/>
      <point x="790" y="-27" type="curve" smooth="yes"/>
      <point x="805" y="-12"/>
      <point x="806" y="14"/>
      <point x="790" y="29" type="curve" smooth="yes"/>
      <point x="721" y="99" type="line"/>
      <point x="714" y="165" type="line" smooth="yes"/>
      <point x="712" y="178"/>
      <point x="701" y="193"/>
      <point x="690" y="198" type="curve" smooth="yes"/>
      <point x="647" y="216" type="line"/>
      <point x="659" y="245" type="line"/>
      <point x="714" y="307" type="line" smooth="yes"/>
      <point x="716" y="309"/>
      <point x="719" y="312"/>
      <point x="720" y="314" type="curve" smooth="yes"/>
      <point x="756" y="381" type="line" smooth="yes"/>
      <point x="766" y="400"/>
      <point x="759" y="425"/>
      <point x="740" y="435" type="curve" smooth="yes"/>
      <point x="721" y="445"/>
      <point x="696" y="438"/>
      <point x="686" y="419" type="curve" smooth="yes"/>
      <point x="652" y="357" type="line"/>
      <point x="595" y="294" type="line" smooth="yes"/>
      <point x="592" y="291"/>
      <point x="589" y="286"/>
      <point x="588" y="282" type="curve" smooth="yes"/>
      <point x="573" y="247" type="line"/>
      <point x="547" y="258" type="line"/>
      <point x="575" y="298" type="line" smooth="yes"/>
      <point x="584" y="309"/>
      <point x="585" y="328"/>
      <point x="578" y="340" type="curve" smooth="yes"/>
      <point x="550" y="391" type="line"/>
      <point x="595" y="431" type="line" smooth="yes"/>
      <point x="600" y="435"/>
      <point x="605" y="442"/>
      <point x="607" y="447" type="curve" smooth="yes"/>
      <point x="657" y="587" type="line"/>
      <point x="701" y="686" type="line" smooth="yes"/>
      <point x="701" y="687"/>
      <point x="702" y="689"/>
      <point x="702" y="691" type="curve" smooth="yes"/>
      <point x="731" y="790" type="line" smooth="yes"/>
      <point x="739" y="817"/>
      <point x="721" y="841"/>
      <point x="693" y="841" type="curve" smooth="yes"/>
      <point x="461" y="841" type="line"/>
      <point x="352" y="833" type="line" smooth="yes"/>
      <point x="325" y="832"/>
      <point x="309" y="808"/>
      <point x="316" y="783" type="curve" smooth="yes"/>
      <point x="330" y="732" type="line"/>
      <point x="358" y="606" type="line"/>
      <point x="307" y="521" type="line" smooth="yes"/>
      <point x="300" y="510"/>
      <point x="300" y="493"/>
      <point x="305" y="482" type="curve" smooth="yes"/>
      <point x="326" y="441" type="line"/>
      <point x="249" y="441" type="line" smooth="yes"/>
      <point x="224" y="441"/>
      <point x="206" y="420"/>
      <point x="209" y="395" type="curve" smooth="yes"/>
      <point x="217" y="346" type="line"/>
      <point x="170" y="224" type="line"/>
      <point x="68" y="148" type="line" smooth="yes"/>
      <point x="44" y="130"/>
      <point x="45" y="100"/>
      <point x="69" y="83" type="curve" smooth="yes"/>
      <point x="182" y="4" type="line" smooth="yes"/>
      <point x="186" y="1"/>
      <point x="193" y="-2"/>
      <point x="198" y="-3" type="curve" smooth="yes"/>
      <point x="407" y="-38" type="line" smooth="yes"/>
      <point x="446" y="-45"/>
      <point x="470" y="-6"/>
    </contour>
  </outline>
</glyph>
<glyph name="asterisk" format="1">
  <advance width="601"/>
  <unicode hex="002A"/>
  <outline>
    <contour>
      <point x="344" y="285" type="curve" smooth="yes"/>
      <point x="363" y="324" type="line"/>
      <point x="434" y="270" type="line" smooth="yes"/>
      <point x="451" y="257"/>
      <point x="477" y="261"/>
      <point x="490" y="278" type="curve" smooth="yes"/>
      <point x="503" y="295"/>
      <point x="499" y="321"/>
      <point x="482" y="334" type="curve" smooth="yes"/>
      <point x="437" y="368" type="line"/>
      <point x="485" y="403" type="line" smooth="yes"/>
      <point x="499" y="414"/>
      <point x="505" y="436"/>
      <point x="497" y="453" type="curve" smooth="yes"/>
      <point x="493" y="462" type="line"/>
      <point x="511" y="462" type="line" smooth="yes"/>
      <point x="533" y="462"/>
      <point x="551" y="480"/>
      <point x="551" y="502" type="curve" smooth="yes"/>
      <point x="551" y="524"/>
      <point x="533" y="542"/>
      <point x="511" y="542" type="curve" smooth="yes"/>
      <point x="429" y="542" type="line"/>
      <point x="431" y="598" type="line"/>
      <point x="445" y="696" type="line" smooth="yes"/>
      <point x="448" y="718"/>
      <point x="432" y="739"/>
      <point x="411" y="742" type="curve" smooth="yes"/>
      <point x="389" y="745"/>
      <point x="368" y="729"/>
      <point x="365" y="708" type="curve" smooth="yes"/>
      <point x="351" y="608" type="line" smooth="yes"/>
      <point x="351" y="606"/>
      <point x="351" y="605"/>
      <point x="351" y="604" type="curve" smooth="yes"/>
      <point x="349" y="542" type="line"/>
      <point x="90" y="542" type="line" smooth="yes"/>
      <point x="68" y="542"/>
      <point x="50" y="524"/>
      <point x="50" y="502" type="curve" smooth="yes"/>
      <point x="50" y="480"/>
      <point x="68" y="462"/>
      <point x="90" y="462" type="curve" smooth="yes"/>
      <point x="340" y="462" type="line"/>
      <point x="272" y="319" type="line" smooth="yes"/>
      <point x="263" y="300"/>
      <point x="271" y="275"/>
      <point x="291" y="266" type="curve" smooth="yes"/>
      <point x="310" y="257"/>
      <point x="335" y="265"/>
    </contour>
  </outline>
</glyph>
<glyph name="plus" format="1">
  <advance width="527"/>
  <unicode hex="002B"/>
  <outline>
    <contour>
      <point x="323" y="109" type="curve" smooth="yes"/>
      <point x="356" y="209" type="line" smooth="yes"/>
      <point x="360" y="222"/>
      <point x="356" y="239"/>
      <point x="348" y="249" type="curve" smooth="yes"/>
      <point x="318" y="282" type="line"/>
      <point x="437" y="282" type="line" smooth="yes"/>
      <point x="459" y="282"/>
      <point x="477" y="300"/>
      <point x="477" y="322" type="curve" smooth="yes"/>
      <point x="477" y="344"/>
      <point x="459" y="362"/>
      <point x="437" y="362" type="curve" smooth="yes"/>
      <point x="275" y="362" type="line"/>
      <point x="284" y="415" type="line" smooth="yes"/>
      <point x="285" y="418"/>
      <point x="285" y="423"/>
      <point x="285" y="426" type="curve" smooth="yes"/>
      <point x="275" y="526" type="line" smooth="yes"/>
      <point x="273" y="547"/>
      <point x="253" y="564"/>
      <point x="231" y="562" type="curve" smooth="yes"/>
      <point x="210" y="560"/>
      <point x="193" y="540"/>
      <point x="195" y="518" type="curve" smooth="yes"/>
      <point x="205" y="423" type="line"/>
      <point x="194" y="362" type="line"/>
      <point x="90" y="362" type="line" smooth="yes"/>
      <point x="68" y="362"/>
      <point x="50" y="344"/>
      <point x="50" y="322" type="curve" smooth="yes"/>
      <point x="50" y="300"/>
      <point x="68" y="282"/>
      <point x="90" y="282" type="curve" smooth="yes"/>
      <point x="210" y="282" type="line"/>
      <point x="273" y="212" type="line"/>
      <point x="247" y="135" type="line" smooth="yes"/>
      <point x="240" y="114"/>
      <point x="252" y="91"/>
      <point x="272" y="84" type="curve" smooth="yes"/>
      <point x="293" y="77"/>
      <point x="316" y="89"/>
    </contour>
  </outline>
</glyph>
<glyph name="comma" format="1">
  <advance width="435"/>
  <unicode hex="002C"/>
  <outline>
    <contour>
      <point x="90" y="-98" type="curve" smooth="yes"/>
      <point x="345" y="-98" type="line" smooth="yes"/>
      <point x="372" y="-98"/>
      <point x="390" y="-75"/>
      <point x="384" y="-48" type="curve" smooth="yes"/>
      <point x="359" y="52" type="line" smooth="yes"/>
      <point x="357" y="59"/>
      <point x="351" y="69"/>
      <point x="345" y="74" type="curve" smooth="yes"/>
      <point x="217" y="174" type="line" smooth="yes"/>
      <point x="200" y="187"/>
      <point x="174" y="184"/>
      <point x="160" y="167" type="curve" smooth="yes"/>
      <point x="147" y="150"/>
      <point x="150" y="124"/>
      <point x="167" y="110" type="curve" smooth="yes"/>
      <point x="285" y="19" type="line"/>
      <point x="294" y="-18" type="line"/>
      <point x="90" y="-18" type="line" smooth="yes"/>
      <point x="68" y="-18"/>
      <point x="50" y="-36"/>
      <point x="50" y="-58" type="curve" smooth="yes"/>
      <point x="50" y="-80"/>
      <point x="68" y="-98"/>
    </contour>
  </outline>
</glyph>
<glyph name="hyphen" format="1">
  <advance width="359"/>
  <unicode hex="002D"/>
  <outline>
    <contour>
      <point x="90" y="256" type="curve" smooth="yes"/>
      <point x="269" y="256" type="line" smooth="yes"/>
      <point x="291" y="256"/>
      <point x="309" y="274"/>
      <point x="309" y="296" type="curve" smooth="yes"/>
      <point x="309" y="318"/>
      <point x="291" y="336"/>
      <point x="269" y="336" type="curve" smooth="yes"/>
      <point x="90" y="336" type="line" smooth="yes"/>
      <point x="68" y="336"/>
      <point x="50" y="318"/>
      <point x="50" y="296" type="curve" smooth="yes"/>
      <point x="50" y="274"/>
      <point x="68" y="256"/>
    </contour>
  </outline>
</glyph>
<glyph name="period" format="1">
  <advance width="302"/>
  <unicode hex="002E"/>
  <outline>
    <contour>
      <point x="252" y="13" type="curve" smooth="yes"/>
      <point x="250" y="35"/>
      <point x="230" y="52"/>
      <point x="209" y="50" type="curve" smooth="yes"/>
      <point x="87" y="40" type="line" smooth="yes"/>
      <point x="65" y="38"/>
      <point x="48" y="18"/>
      <point x="50" y="-3" type="curve" smooth="yes"/>
      <point x="52" y="-25"/>
      <point x="72" y="-42"/>
      <point x="93" y="-40" type="curve" smooth="yes"/>
      <point x="215" y="-30" type="line" smooth="yes"/>
      <point x="237" y="-28"/>
      <point x="254" y="-8"/>
    </contour>
  </outline>
</glyph>
<glyph name="slash" format="1">
  <advance width="775"/>
  <unicode hex="002F"/>
  <outline>
    <contour>
      <point x="103" y="-36" type="curve" smooth="yes"/>
      <point x="328" y="44" type="line" smooth="yes"/>
      <point x="351" y="52"/>
      <point x="361" y="76"/>
      <point x="352" y="98" type="curve" smooth="yes"/>
      <point x="321" y="168" type="line"/>
      <point x="327" y="218" type="line"/>
      <point x="444" y="289" type="line"/>
      <point x="566" y="369" type="line" smooth="yes"/>
      <point x="567" y="370"/>
      <point x="570" y="371"/>
      <point x="571" y="373" type="curve" smooth="yes"/>
      <point x="657" y="453" type="line" smooth="yes"/>
      <point x="677" y="471"/>
      <point x="675" y="499"/>
      <point x="653" y="514" type="curve" smooth="yes"/>
      <point x="596" y="556" type="line"/>
      <point x="694" y="606" type="line" smooth="yes"/>
      <point x="710" y="614"/>
      <point x="719" y="634"/>
      <point x="715" y="651" type="curve" smooth="yes"/>
      <point x="699" y="720" type="line"/>
      <point x="723" y="789" type="line" smooth="yes"/>
      <point x="730" y="809"/>
      <point x="719" y="833"/>
      <point x="698" y="840" type="curve" smooth="yes"/>
      <point x="678" y="847"/>
      <point x="654" y="836"/>
      <point x="647" y="815" type="curve" smooth="yes"/>
      <point x="619" y="735" type="line" smooth="yes"/>
      <point x="617" y="729"/>
      <point x="617" y="719"/>
      <point x="618" y="713" type="curve" smooth="yes"/>
      <point x="630" y="663" type="line"/>
      <point x="501" y="598" type="line" smooth="yes"/>
      <point x="472" y="583"/>
      <point x="469" y="548"/>
      <point x="496" y="530" type="curve" smooth="yes"/>
      <point x="567" y="478" type="line"/>
      <point x="519" y="434" type="line"/>
      <point x="400" y="355" type="line"/>
      <point x="269" y="276" type="line" smooth="yes"/>
      <point x="260" y="271"/>
      <point x="252" y="258"/>
      <point x="250" y="247" type="curve" smooth="yes"/>
      <point x="240" y="167" type="line" smooth="yes"/>
      <point x="240" y="161"/>
      <point x="241" y="152"/>
      <point x="243" y="146" type="curve" smooth="yes"/>
      <point x="261" y="105" type="line"/>
      <point x="77" y="40" type="line" smooth="yes"/>
      <point x="56" y="32"/>
      <point x="45" y="9"/>
      <point x="52" y="-11" type="curve" smooth="yes"/>
      <point x="60" y="-32"/>
      <point x="83" y="-43"/>
    </contour>
  </outline>
</glyph>
<glyph name="zero" format="1">
  <advance width="941"/>
  <unicode hex="0030"/>
  <outline>
    <contour>
      <point x="443" y="-38" type="curve" smooth="yes"/>
      <point x="526" y="-38" type="line" smooth="yes"/>
      <point x="527" y="-38"/>
      <point x="530" y="-38"/>
      <point x="531" y="-38" type="curve" smooth="yes"/>
      <point x="818" y="-2" type="line" smooth="yes"/>
      <point x="842" y="1"/>
      <point x="857" y="24"/>
      <point x="851" y="48" type="curve" smooth="yes"/>
      <point x="832" y="128" type="line" smooth="yes"/>
      <point x="831" y="133"/>
      <point x="827" y="139"/>
      <point x="825" y="143" type="curve" smooth="yes"/>
      <point x="777" y="206" type="line"/>
      <point x="815" y="284" type="line" smooth="yes"/>
      <point x="816" y="287"/>
      <point x="817" y="291"/>
      <point x="818" y="293" type="curve" smooth="yes"/>
      <point x="841" y="393" type="line" smooth="yes"/>
      <point x="842" y="397"/>
      <point x="842" y="403"/>
      <point x="842" y="407" type="curve" smooth="yes"/>
      <point x="831" y="493" type="line"/>
      <point x="884" y="581" type="line" smooth="yes"/>
      <point x="897" y="602"/>
      <point x="889" y="627"/>
      <point x="868" y="638" type="curve" smooth="yes"/>
      <point x="768" y="688" type="line"/>
      <point x="755" y="698" type="line"/>
      <point x="756" y="699" type="line" smooth="yes"/>
      <point x="775" y="709"/>
      <point x="782" y="734"/>
      <point x="772" y="753" type="curve" smooth="yes"/>
      <point x="762" y="772"/>
      <point x="737" y="779"/>
      <point x="718" y="769" type="curve" smooth="yes"/>
      <point x="688" y="753" type="line"/>
      <point x="663" y="774" type="line"/>
      <point x="650" y="814" type="line" smooth="yes"/>
      <point x="645" y="829"/>
      <point x="628" y="842"/>
      <point x="612" y="842" type="curve" smooth="yes"/>
      <point x="383" y="842" type="line"/>
      <point x="383" y="836" type="line"/>
      <point x="175" y="805" type="line" smooth="yes"/>
      <point x="143" y="801"/>
      <point x="129" y="769"/>
      <point x="148" y="742" type="curve" smooth="yes"/>
      <point x="180" y="698" type="line"/>
      <point x="72" y="637" type="line" smooth="yes"/>
      <point x="44" y="621"/>
      <point x="43" y="586"/>
      <point x="70" y="569" type="curve" smooth="yes"/>
      <point x="171" y="502" type="line"/>
      <point x="69" y="435" type="line" smooth="yes"/>
      <point x="43" y="418"/>
      <point x="43" y="384"/>
      <point x="70" y="368" type="curve" smooth="yes"/>
      <point x="210" y="283" type="line"/>
      <point x="192" y="212" type="line"/>
      <point x="172" y="137" type="line"/>
      <point x="112" y="63" type="line" smooth="yes"/>
      <point x="91" y="37"/>
      <point x="104" y="4"/>
      <point x="137" y="-1" type="curve" smooth="yes"/>
      <point x="371" y="-38" type="line" smooth="yes"/>
      <point x="386" y="-40"/>
      <point x="402" y="-33"/>
      <point x="410" y="-20" type="curve"/>
      <point x="417" y="-31"/>
      <point x="430" y="-38"/>
    </contour>
    <contour>
      <point x="277" y="336" type="curve" smooth="yes"/>
      <point x="166" y="403" type="line"/>
      <point x="266" y="469" type="line" smooth="yes"/>
      <point x="292" y="485"/>
      <point x="292" y="518"/>
      <point x="266" y="535" type="curve" smooth="yes"/>
      <point x="169" y="599" type="line"/>
      <point x="258" y="650" type="line" smooth="yes"/>
      <point x="279" y="662"/>
      <point x="285" y="688"/>
      <point x="271" y="708" type="curve" smooth="yes"/>
      <point x="251" y="736" type="line"/>
      <point x="433" y="762" type="line"/>
      <point x="583" y="762" type="line"/>
      <point x="590" y="738" type="line" smooth="yes"/>
      <point x="592" y="732"/>
      <point x="598" y="723"/>
      <point x="603" y="719" type="curve" smooth="yes"/>
      <point x="612" y="712" type="line"/>
      <point x="579" y="694" type="line" smooth="yes"/>
      <point x="562" y="685"/>
      <point x="554" y="663"/>
      <point x="560" y="645" type="curve" smooth="yes"/>
      <point x="578" y="597" type="line"/>
      <point x="507" y="539" type="line" smooth="yes"/>
      <point x="499" y="533"/>
      <point x="492" y="520"/>
      <point x="492" y="511" type="curve" smooth="yes"/>
      <point x="487" y="435" type="line"/>
      <point x="481" y="386" type="line"/>
      <point x="300" y="320" type="line" smooth="yes"/>
      <point x="298" y="319"/>
      <point x="296" y="317"/>
      <point x="293" y="316" type="curve"/>
      <point x="290" y="324"/>
      <point x="284" y="332"/>
    </contour>
    <contour>
      <point x="383" y="42" type="curve" smooth="yes"/>
      <point x="253" y="62" type="line"/>
      <point x="267" y="118" type="line"/>
      <point x="298" y="187" type="line"/>
      <point x="340" y="249" type="line"/>
      <point x="531" y="320" type="line" smooth="yes"/>
      <point x="544" y="325"/>
      <point x="556" y="339"/>
      <point x="557" y="353" type="curve" smooth="yes"/>
      <point x="566" y="430" type="line"/>
      <point x="570" y="488" type="line"/>
      <point x="651" y="552" type="line" smooth="yes"/>
      <point x="663" y="562"/>
      <point x="669" y="582"/>
      <point x="663" y="597" type="curve" smooth="yes"/>
      <point x="647" y="640" type="line"/>
      <point x="679" y="657" type="line"/>
      <point x="721" y="623" type="line" smooth="yes"/>
      <point x="723" y="621"/>
      <point x="726" y="619"/>
      <point x="729" y="618" type="curve" smooth="yes"/>
      <point x="793" y="586" type="line"/>
      <point x="756" y="523" type="line" smooth="yes"/>
      <point x="752" y="516"/>
      <point x="749" y="505"/>
      <point x="750" y="497" type="curve" smooth="yes"/>
      <point x="761" y="404" type="line"/>
      <point x="741" y="315" type="line"/>
      <point x="694" y="220" type="line" smooth="yes"/>
      <point x="688" y="207"/>
      <point x="690" y="189"/>
      <point x="698" y="178" type="curve" smooth="yes"/>
      <point x="756" y="101" type="line"/>
      <point x="763" y="72" type="line"/>
      <point x="523" y="42" type="line"/>
      <point x="443" y="42" type="line" smooth="yes"/>
      <point x="430" y="42"/>
      <point x="417" y="35"/>
      <point x="410" y="24" type="curve"/>
      <point x="404" y="33"/>
      <point x="394" y="40"/>
    </contour>
  </outline>
</glyph>
<glyph name="one" format="1">
  <advance width="790"/>
  <unicode hex="0031"/>
  <outline>
    <contour>
      <point x="424" y="593" type="line"/>
      <point x="426" y="596"/>
      <point x="427" y="600"/>
      <point x="427" y="605" type="curve"/>
      <point x="435" y="600" type="line"/>
    </contour>
    <contour>
      <point x="700" y="-39" type="line" smooth="yes"/>
      <point x="722" y="-39"/>
      <point x="740" y="-21"/>
      <point x="740" y="1" type="curve" smooth="yes"/>
      <point x="740" y="23"/>
      <point x="722" y="41"/>
      <point x="700" y="41" type="curve" smooth="yes"/>
      <point x="332" y="41" type="line"/>
      <point x="332" y="42" type="line"/>
      <point x="465" y="172" type="line" smooth="yes"/>
      <point x="478" y="185"/>
      <point x="481" y="209"/>
      <point x="470" y="224" type="curve" smooth="yes"/>
      <point x="402" y="321" type="line"/>
      <point x="364" y="402" type="line"/>
      <point x="393" y="475" type="line"/>
      <point x="530" y="568" type="line" smooth="yes"/>
      <point x="556" y="585"/>
      <point x="556" y="618"/>
      <point x="529" y="635" type="curve" smooth="yes"/>
      <point x="371" y="735" type="line" smooth="yes"/>
      <point x="336" y="757"/>
      <point x="298" y="725"/>
      <point x="313" y="686" type="curve" smooth="yes"/>
      <point x="329" y="645" type="line"/>
      <point x="230" y="641" type="line"/>
      <point x="90" y="641" type="line" smooth="yes"/>
      <point x="68" y="641"/>
      <point x="50" y="623"/>
      <point x="50" y="601" type="curve" smooth="yes"/>
      <point x="50" y="579"/>
      <point x="68" y="561"/>
      <point x="90" y="561" type="curve" smooth="yes"/>
      <point x="234" y="561" type="line"/>
      <point x="388" y="568" type="line"/>
      <point x="338" y="534" type="line" smooth="yes"/>
      <point x="332" y="530"/>
      <point x="325" y="522"/>
      <point x="323" y="516" type="curve" smooth="yes"/>
      <point x="284" y="416" type="line" smooth="yes"/>
      <point x="280" y="407"/>
      <point x="281" y="393"/>
      <point x="285" y="384" type="curve" smooth="yes"/>
      <point x="331" y="284" type="line" smooth="yes"/>
      <point x="331" y="282"/>
      <point x="333" y="280"/>
      <point x="334" y="278" type="curve" smooth="yes"/>
      <point x="385" y="206" type="line"/>
      <point x="264" y="88" type="line" smooth="yes"/>
      <point x="257" y="82"/>
      <point x="252" y="69"/>
      <point x="252" y="60" type="curve" smooth="yes"/>
      <point x="252" y="45" type="line"/>
      <point x="187" y="41" type="line"/>
      <point x="104" y="41" type="line" smooth="yes"/>
      <point x="82" y="41"/>
      <point x="64" y="23"/>
      <point x="64" y="1" type="curve" smooth="yes"/>
      <point x="64" y="-21"/>
      <point x="82" y="-39"/>
      <point x="104" y="-39" type="curve" smooth="yes"/>
    </contour>
  </outline>
</glyph>
<glyph name="two" format="1">
  <advance width="802"/>
  <unicode hex="0032"/>
  <outline>
    <contour>
      <point x="104" y="-40" type="curve" smooth="yes"/>
      <point x="712" y="-40" type="line"/>
      <point x="712" y="40" type="line"/>
      <point x="175" y="40" type="line"/>
      <point x="198" y="79" type="line" smooth="yes"/>
      <point x="206" y="92"/>
      <point x="205" y="112"/>
      <point x="196" y="124" type="curve" smooth="yes"/>
      <point x="135" y="207" type="line"/>
      <point x="169" y="308" type="line"/>
      <point x="343" y="354" type="line" smooth="yes"/>
      <point x="348" y="356"/>
      <point x="352" y="358"/>
      <point x="356" y="360" type="curve"/>
      <point x="454" y="360" type="line" smooth="yes"/>
      <point x="455" y="360"/>
      <point x="457" y="360"/>
      <point x="458" y="360" type="curve" smooth="yes"/>
      <point x="526" y="367" type="line" smooth="yes"/>
      <point x="528" y="367"/>
      <point x="532" y="368"/>
      <point x="534" y="369" type="curve" smooth="yes"/>
      <point x="711" y="420" type="line" smooth="yes"/>
      <point x="728" y="425"/>
      <point x="741" y="443"/>
      <point x="740" y="460" type="curve" smooth="yes"/>
      <point x="733" y="594" type="line"/>
      <point x="750" y="638" type="line" smooth="yes"/>
      <point x="751" y="642"/>
      <point x="752" y="649"/>
      <point x="752" y="654" type="curve" smooth="yes"/>
      <point x="748" y="750" type="line" smooth="yes"/>
      <point x="747" y="767"/>
      <point x="733" y="784"/>
      <point x="716" y="787" type="curve" smooth="yes"/>
      <point x="479" y="839" type="line" smooth="yes"/>
      <point x="476" y="840"/>
      <point x="472" y="840"/>
      <point x="470" y="840" type="curve" smooth="yes"/>
      <point x="325" y="840" type="line" smooth="yes"/>
      <point x="324" y="840"/>
      <point x="322" y="840"/>
      <point x="321" y="840" type="curve" smooth="yes"/>
      <point x="257" y="833" type="line" smooth="yes"/>
      <point x="255" y="833"/>
      <point x="252" y="832"/>
      <point x="250" y="831" type="curve" smooth="yes"/>
      <point x="80" y="780" type="line" smooth="yes"/>
      <point x="49" y="771"/>
      <point x="40" y="739"/>
      <point x="61" y="715" type="curve" smooth="yes"/>
      <point x="187" y="573" type="line" smooth="yes"/>
      <point x="201" y="557"/>
      <point x="227" y="556"/>
      <point x="244" y="570" type="curve" smooth="yes"/>
      <point x="260" y="584"/>
      <point x="261" y="610"/>
      <point x="247" y="627" type="curve" smooth="yes"/>
      <point x="163" y="721" type="line"/>
      <point x="270" y="754" type="line"/>
      <point x="327" y="760" type="line"/>
      <point x="466" y="760" type="line"/>
      <point x="669" y="716" type="line"/>
      <point x="672" y="658" type="line"/>
      <point x="655" y="614" type="line" smooth="yes"/>
      <point x="654" y="610"/>
      <point x="653" y="603"/>
      <point x="653" y="598" type="curve" smooth="yes"/>
      <point x="658" y="488" type="line"/>
      <point x="515" y="446" type="line"/>
      <point x="452" y="440" type="line"/>
      <point x="271" y="440" type="line" smooth="yes"/>
      <point x="248" y="440"/>
      <point x="234" y="425"/>
      <point x="231" y="408" type="curve"/>
      <point x="128" y="380" type="line" smooth="yes"/>
      <point x="116" y="377"/>
      <point x="104" y="366"/>
      <point x="100" y="354" type="curve" smooth="yes"/>
      <point x="52" y="213" type="line" smooth="yes"/>
      <point x="48" y="202"/>
      <point x="51" y="185"/>
      <point x="58" y="176" type="curve" smooth="yes"/>
      <point x="116" y="98" type="line"/>
      <point x="70" y="21" type="line" smooth="yes"/>
      <point x="52" y="-8"/>
      <point x="70" y="-40"/>
    </contour>
  </outline>
</glyph>
<glyph name="three" format="1">
  <advance width="899"/>
  <unicode hex="0033"/>
  <outline>
    <contour>
      <point x="445" y="-39" type="curve" smooth="yes"/>
      <point x="485" y="-39" type="line"/>
      <point x="575" y="-32" type="line" smooth="yes"/>
      <point x="584" y="-31"/>
      <point x="596" y="-25"/>
      <point x="602" y="-18" type="curve" smooth="yes"/>
      <point x="644" y="32" type="line"/>
      <point x="794" y="172" type="line" smooth="yes"/>
      <point x="807" y="184"/>
      <point x="810" y="205"/>
      <point x="802" y="221" type="curve" smooth="yes"/>
      <point x="762" y="292" type="line"/>
      <point x="773" y="358" type="line" smooth="yes"/>
      <point x="776" y="375"/>
      <point x="768" y="391"/>
      <point x="754" y="399" type="curve"/>
      <point x="782" y="406"/>
      <point x="793" y="438"/>
      <point x="772" y="463" type="curve" smooth="yes"/>
      <point x="735" y="508" type="line"/>
      <point x="830" y="567" type="line" smooth="yes"/>
      <point x="842" y="574"/>
      <point x="850" y="592"/>
      <point x="849" y="606" type="curve" smooth="yes"/>
      <point x="833" y="747" type="line" smooth="yes"/>
      <point x="831" y="759"/>
      <point x="822" y="772"/>
      <point x="812" y="778" type="curve" smooth="yes"/>
      <point x="718" y="829" type="line" smooth="yes"/>
      <point x="713" y="832"/>
      <point x="705" y="834"/>
      <point x="700" y="834" type="curve" smooth="yes"/>
      <point x="496" y="841" type="line" smooth="yes"/>
      <point x="496" y="841"/>
      <point x="495" y="841"/>
      <point x="495" y="841" type="curve" smooth="yes"/>
      <point x="328" y="841" type="line" smooth="yes"/>
      <point x="326" y="841"/>
      <point x="323" y="841"/>
      <point x="322" y="840" type="curve" smooth="yes"/>
      <point x="100" y="804" type="line" smooth="yes"/>
      <point x="84" y="802"/>
      <point x="69" y="786"/>
      <point x="67" y="770" type="curve" smooth="yes"/>
      <point x="56" y="687" type="line"/>
      <point x="50" y="604" type="line" smooth="yes"/>
      <point x="49" y="582"/>
      <point x="66" y="563"/>
      <point x="87" y="561" type="curve" smooth="yes"/>
      <point x="109" y="560"/>
      <point x="128" y="577"/>
      <point x="130" y="598" type="curve" smooth="yes"/>
      <point x="136" y="682" type="line"/>
      <point x="142" y="730" type="line"/>
      <point x="331" y="761" type="line"/>
      <point x="494" y="761" type="line"/>
      <point x="688" y="754" type="line"/>
      <point x="756" y="717" type="line"/>
      <point x="766" y="622" type="line"/>
      <point x="654" y="552" type="line" smooth="yes"/>
      <point x="633" y="538"/>
      <point x="628" y="511"/>
      <point x="644" y="492" type="curve" smooth="yes"/>
      <point x="670" y="461" type="line"/>
      <point x="585" y="441" type="line"/>
      <point x="514" y="441" type="line"/>
      <point x="514" y="361" type="line"/>
      <point x="512" y="362" type="line"/>
      <point x="514" y="361" type="line"/>
      <point x="514" y="361" type="line"/>
      <point x="516" y="361" type="line"/>
      <point x="688" y="332" type="line"/>
      <point x="681" y="291" type="line" smooth="yes"/>
      <point x="679" y="283"/>
      <point x="681" y="272"/>
      <point x="685" y="265" type="curve" smooth="yes"/>
      <point x="717" y="209" type="line"/>
      <point x="588" y="89" type="line" smooth="yes"/>
      <point x="587" y="88"/>
      <point x="585" y="86"/>
      <point x="584" y="85" type="curve" smooth="yes"/>
      <point x="552" y="47" type="line"/>
      <point x="479" y="41" type="line"/>
      <point x="447" y="41" type="line"/>
      <point x="156" y="74" type="line"/>
      <point x="140" y="120" type="line"/>
      <point x="157" y="192" type="line" smooth="yes"/>
      <point x="162" y="213"/>
      <point x="148" y="235"/>
      <point x="127" y="240" type="curve" smooth="yes"/>
      <point x="106" y="245"/>
      <point x="84" y="231"/>
      <point x="79" y="210" type="curve" smooth="yes"/>
      <point x="59" y="127" type="line" smooth="yes"/>
      <point x="58" y="120"/>
      <point x="58" y="110"/>
      <point x="60" y="104" type="curve" smooth="yes"/>
      <point x="90" y="23" type="line" smooth="yes"/>
      <point x="94" y="11"/>
      <point x="109" y="-1"/>
      <point x="123" y="-3" type="curve" smooth="yes"/>
      <point x="440" y="-39" type="line" smooth="yes"/>
      <point x="442" y="-39"/>
      <point x="444" y="-39"/>
    </contour>
  </outline>
</glyph>
<glyph name="four" format="1">
  <advance width="836"/>
  <unicode hex="0034"/>
  <outline>
    <contour>
      <point x="633" y="-22" type="curve" smooth="yes"/>
      <point x="703" y="77" type="line"/>
      <point x="752" y="144" type="line"/>
      <point x="760" y="147" type="line" smooth="yes"/>
      <point x="781" y="157"/>
      <point x="788" y="176"/>
      <point x="784" y="193" type="curve"/>
      <point x="786" y="205"/>
      <point x="783" y="219"/>
      <point x="773" y="229" type="curve" smooth="yes"/>
      <point x="677" y="326" type="line"/>
      <point x="634" y="393" type="line"/>
      <point x="721" y="470" type="line" smooth="yes"/>
      <point x="736" y="484"/>
      <point x="738" y="509"/>
      <point x="725" y="525" type="curve" smooth="yes"/>
      <point x="644" y="625" type="line" smooth="yes"/>
      <point x="630" y="642"/>
      <point x="605" y="645"/>
      <point x="588" y="631" type="curve" smooth="yes"/>
      <point x="571" y="617"/>
      <point x="568" y="592"/>
      <point x="582" y="575" type="curve" smooth="yes"/>
      <point x="639" y="505" type="line"/>
      <point x="555" y="430" type="line" smooth="yes"/>
      <point x="541" y="418"/>
      <point x="538" y="395"/>
      <point x="548" y="379" type="curve" smooth="yes"/>
      <point x="610" y="282" type="line"/>
      <point x="565" y="301" type="line" smooth="yes"/>
      <point x="563" y="301"/>
      <point x="561" y="302"/>
      <point x="559" y="303" type="curve" smooth="yes"/>
      <point x="436" y="333" type="line"/>
      <point x="436" y="340" type="line"/>
      <point x="247" y="340" type="line"/>
      <point x="235" y="392" type="line" smooth="yes"/>
      <point x="233" y="400"/>
      <point x="227" y="410"/>
      <point x="221" y="415" type="curve" smooth="yes"/>
      <point x="167" y="458" type="line"/>
      <point x="288" y="514" type="line" smooth="yes"/>
      <point x="317" y="527"/>
      <point x="321" y="562"/>
      <point x="296" y="582" type="curve" smooth="yes"/>
      <point x="228" y="635" type="line"/>
      <point x="289" y="686" type="line" smooth="yes"/>
      <point x="295" y="691"/>
      <point x="301" y="701"/>
      <point x="302" y="709" type="curve" smooth="yes"/>
      <point x="319" y="792" type="line" smooth="yes"/>
      <point x="324" y="813"/>
      <point x="309" y="835"/>
      <point x="288" y="839" type="curve" smooth="yes"/>
      <point x="267" y="844"/>
      <point x="245" y="829"/>
      <point x="241" y="808" type="curve" smooth="yes"/>
      <point x="227" y="738" type="line"/>
      <point x="138" y="664" type="line" smooth="yes"/>
      <point x="118" y="647"/>
      <point x="118" y="618"/>
      <point x="139" y="602" type="curve" smooth="yes"/>
      <point x="195" y="559" type="line"/>
      <point x="74" y="503" type="line" smooth="yes"/>
      <point x="45" y="489"/>
      <point x="41" y="455"/>
      <point x="66" y="435" type="curve" smooth="yes"/>
      <point x="160" y="361" type="line"/>
      <point x="176" y="291" type="line" smooth="yes"/>
      <point x="180" y="274"/>
      <point x="197" y="260"/>
      <point x="215" y="260" type="curve" smooth="yes"/>
      <point x="399" y="260" type="line"/>
      <point x="537" y="226" type="line"/>
      <point x="645" y="181" type="line"/>
      <point x="552" y="136" type="line" smooth="yes"/>
      <point x="532" y="127"/>
      <point x="524" y="102"/>
      <point x="533" y="83" type="curve" smooth="yes"/>
      <point x="542" y="63"/>
      <point x="567" y="55"/>
      <point x="586" y="64" type="curve" smooth="yes"/>
      <point x="601" y="71" type="line"/>
      <point x="567" y="24" type="line" smooth="yes"/>
      <point x="555" y="7"/>
      <point x="559" y="-19"/>
      <point x="577" y="-32" type="curve" smooth="yes"/>
      <point x="594" y="-44"/>
      <point x="620" y="-40"/>
    </contour>
  </outline>
</glyph>
<glyph name="five" format="1">
  <advance width="912"/>
  <unicode hex="0035"/>
  <outline>
    <contour>
      <point x="273" y="-39" type="curve" smooth="yes"/>
      <point x="604" y="-39" type="line" smooth="yes"/>
      <point x="613" y="-39"/>
      <point x="625" y="-34"/>
      <point x="632" y="-28" type="curve" smooth="yes"/>
      <point x="693" y="30" type="line" smooth="yes"/>
      <point x="696" y="34"/>
      <point x="700" y="40"/>
      <point x="702" y="44" type="curve" smooth="yes"/>
      <point x="755" y="177" type="line"/>
      <point x="848" y="254" type="line" smooth="yes"/>
      <point x="861" y="265"/>
      <point x="866" y="287"/>
      <point x="858" y="303" type="curve" smooth="yes"/>
      <point x="816" y="383" type="line" smooth="yes"/>
      <point x="811" y="394"/>
      <point x="797" y="403"/>
      <point x="786" y="405" type="curve" smooth="yes"/>
      <point x="496" y="441" type="line" smooth="yes"/>
      <point x="495" y="441"/>
      <point x="492" y="441"/>
      <point x="491" y="441" type="curve" smooth="yes"/>
      <point x="269" y="441" type="line"/>
      <point x="271" y="499" type="line" smooth="yes"/>
      <point x="271" y="506"/>
      <point x="269" y="517"/>
      <point x="265" y="522" type="curve" smooth="yes"/>
      <point x="202" y="622" type="line" smooth="yes"/>
      <point x="201" y="624"/>
      <point x="199" y="627"/>
      <point x="197" y="628" type="curve" smooth="yes"/>
      <point x="146" y="683" type="line"/>
      <point x="194" y="728" type="line"/>
      <point x="351" y="761" type="line"/>
      <point x="693" y="761" type="line" smooth="yes"/>
      <point x="715" y="761"/>
      <point x="733" y="779"/>
      <point x="733" y="801" type="curve" smooth="yes"/>
      <point x="733" y="823"/>
      <point x="715" y="841"/>
      <point x="693" y="841" type="curve" smooth="yes"/>
      <point x="347" y="841" type="line" smooth="yes"/>
      <point x="345" y="841"/>
      <point x="341" y="841"/>
      <point x="339" y="840" type="curve" smooth="yes"/>
      <point x="166" y="804" type="line" smooth="yes"/>
      <point x="160" y="803"/>
      <point x="151" y="798"/>
      <point x="147" y="794" type="curve" smooth="yes"/>
      <point x="62" y="713" type="line" smooth="yes"/>
      <point x="47" y="698"/>
      <point x="46" y="673"/>
      <point x="61" y="657" type="curve" smooth="yes"/>
      <point x="136" y="576" type="line"/>
      <point x="191" y="490" type="line"/>
      <point x="187" y="403" type="line" smooth="yes"/>
      <point x="186" y="380"/>
      <point x="204" y="361"/>
      <point x="227" y="361" type="curve" smooth="yes"/>
      <point x="489" y="361" type="line"/>
      <point x="755" y="328" type="line"/>
      <point x="772" y="295" type="line"/>
      <point x="696" y="232" type="line" smooth="yes"/>
      <point x="692" y="228"/>
      <point x="687" y="221"/>
      <point x="685" y="216" type="curve" smooth="yes"/>
      <point x="631" y="82" type="line"/>
      <point x="588" y="41" type="line"/>
      <point x="296" y="41" type="line"/>
      <point x="287" y="57" type="line" smooth="yes"/>
      <point x="284" y="63"/>
      <point x="276" y="70"/>
      <point x="271" y="73" type="curve" smooth="yes"/>
      <point x="148" y="136" type="line"/>
      <point x="170" y="185" type="line" smooth="yes"/>
      <point x="178" y="205"/>
      <point x="169" y="229"/>
      <point x="149" y="238" type="curve" smooth="yes"/>
      <point x="129" y="246"/>
      <point x="105" y="237"/>
      <point x="96" y="217" type="curve" smooth="yes"/>
      <point x="59" y="134" type="line" smooth="yes"/>
      <point x="51" y="115"/>
      <point x="59" y="92"/>
      <point x="78" y="82" type="curve" smooth="yes"/>
      <point x="224" y="7" type="line"/>
      <point x="238" y="-19" type="line" smooth="yes"/>
      <point x="245" y="-30"/>
      <point x="260" y="-39"/>
    </contour>
  </outline>
</glyph>
<glyph name="six" format="1">
  <advance width="867"/>
  <unicode hex="0036"/>
  <outline>
    <contour>
      <point x="376" y="-39" type="line"/>
      <point x="405" y="-39" type="line" smooth="yes"/>
      <point x="405" y="-39" type="line"/>
      <point x="539" y="-39" type="line"/>
      <point x="659" y="-32" type="line" smooth="yes"/>
      <point x="666" y="-32"/>
      <point x="677" y="-27"/>
      <point x="683" y="-22" type="curve" smooth="yes"/>
      <point x="741" y="29" type="line" smooth="yes"/>
      <point x="751" y="37"/>
      <point x="756" y="54"/>
      <point x="754" y="66" type="curve" smooth="yes"/>
      <point x="734" y="191" type="line"/>
      <point x="785" y="261" type="line" smooth="yes"/>
      <point x="796" y="276"/>
      <point x="795" y="299"/>
      <point x="782" y="312" type="curve" smooth="yes"/>
      <point x="703" y="393" type="line" smooth="yes"/>
      <point x="701" y="395"/>
      <point x="697" y="398"/>
      <point x="694" y="400" type="curve" smooth="yes"/>
      <point x="629" y="436" type="line" smooth="yes"/>
      <point x="624" y="439"/>
      <point x="616" y="441"/>
      <point x="610" y="441" type="curve" smooth="yes"/>
      <point x="345" y="441" type="line"/>
      <point x="228" y="473" type="line"/>
      <point x="186" y="511" type="line"/>
      <point x="282" y="566" type="line" smooth="yes"/>
      <point x="301" y="577"/>
      <point x="307" y="602"/>
      <point x="297" y="621" type="curve" smooth="yes"/>
      <point x="287" y="637"/>
      <point x="268" y="644"/>
      <point x="251" y="639" type="curve"/>
      <point x="181" y="680" type="line"/>
      <point x="291" y="728" type="line" smooth="yes"/>
      <point x="302" y="733"/>
      <point x="312" y="745"/>
      <point x="314" y="756" type="curve" smooth="yes"/>
      <point x="316" y="761" type="line"/>
      <point x="499" y="761" type="line"/>
      <point x="633" y="754" type="line"/>
      <point x="714" y="724" type="line"/>
      <point x="643" y="624" type="line" smooth="yes"/>
      <point x="631" y="606"/>
      <point x="635" y="581"/>
      <point x="653" y="568" type="curve" smooth="yes"/>
      <point x="671" y="556"/>
      <point x="696" y="560"/>
      <point x="709" y="578" type="curve" smooth="yes"/>
      <point x="809" y="720" type="line" smooth="yes"/>
      <point x="824" y="742"/>
      <point x="816" y="770"/>
      <point x="790" y="780" type="curve" smooth="yes"/>
      <point x="656" y="831" type="line" smooth="yes"/>
      <point x="652" y="833"/>
      <point x="647" y="834"/>
      <point x="643" y="834" type="curve" smooth="yes"/>
      <point x="502" y="841" type="line" smooth="yes"/>
      <point x="501" y="841"/>
      <point x="501" y="841"/>
      <point x="500" y="841" type="curve" smooth="yes"/>
      <point x="284" y="841" type="line" smooth="yes"/>
      <point x="267" y="841"/>
      <point x="249" y="827"/>
      <point x="245" y="810" type="curve" smooth="yes"/>
      <point x="241" y="794" type="line"/>
      <point x="76" y="721" type="line" smooth="yes"/>
      <point x="43" y="707"/>
      <point x="41" y="668"/>
      <point x="72" y="650" type="curve" smooth="yes"/>
      <point x="165" y="596" type="line"/>
      <point x="139" y="576" type="line"/>
      <point x="98" y="552" type="line" smooth="yes"/>
      <point x="88" y="547"/>
      <point x="82" y="538"/>
      <point x="79" y="529" type="curve"/>
      <point x="61" y="516"/>
      <point x="61" y="486"/>
      <point x="83" y="469" type="curve" smooth="yes"/>
      <point x="177" y="398" type="line"/>
      <point x="106" y="330" type="line" smooth="yes"/>
      <point x="100" y="324"/>
      <point x="94" y="311"/>
      <point x="94" y="302" type="curve" smooth="yes"/>
      <point x="91" y="202" type="line" smooth="yes"/>
      <point x="91" y="189"/>
      <point x="99" y="174"/>
      <point x="110" y="167" type="curve" smooth="yes"/>
      <point x="191" y="117" type="line"/>
      <point x="120" y="71" type="line" smooth="yes"/>
      <point x="86" y="49"/>
      <point x="96" y="3"/>
      <point x="136" y="-3" type="curve" smooth="yes"/>
      <point x="376" y="-35" type="line"/>
    </contour>
    <contour>
      <point x="535" y="41" type="line"/>
      <point x="408" y="41" type="line"/>
      <point x="253" y="62" type="line"/>
      <point x="287" y="84" type="line" smooth="yes"/>
      <point x="313" y="101"/>
      <point x="313" y="135"/>
      <point x="286" y="152" type="curve" smooth="yes"/>
      <point x="172" y="223" type="line"/>
      <point x="173" y="283" type="line"/>
      <point x="266" y="372" type="line" smooth="yes"/>
      <point x="268" y="374"/>
      <point x="269" y="376"/>
      <point x="271" y="378" type="curve"/>
      <point x="329" y="362" type="line" smooth="yes"/>
      <point x="332" y="362"/>
      <point x="337" y="361"/>
      <point x="340" y="361" type="curve" smooth="yes"/>
      <point x="600" y="361" type="line"/>
      <point x="650" y="333" type="line"/>
      <point x="701" y="281" type="line"/>
      <point x="660" y="225" type="line" smooth="yes"/>
      <point x="654" y="217"/>
      <point x="651" y="204"/>
      <point x="653" y="195" type="curve" smooth="yes"/>
      <point x="672" y="75" type="line"/>
      <point x="640" y="47" type="line"/>
    </contour>
  </outline>
</glyph>
<glyph name="seven" format="1">
  <advance width="850"/>
  <unicode hex="0037"/>
  <outline>
    <contour>
      <point x="285" y="-26" type="curve" smooth="yes"/>
      <point x="345" y="60" type="line" smooth="yes"/>
      <point x="349" y="65"/>
      <point x="352" y="76"/>
      <point x="352" y="83" type="curve" smooth="yes"/>
      <point x="352" y="153" type="line"/>
      <point x="417" y="228" type="line" smooth="yes"/>
      <point x="418" y="229"/>
      <point x="420" y="231"/>
      <point x="420" y="232" type="curve" smooth="yes"/>
      <point x="470" y="308" type="line"/>
      <point x="649" y="389" type="line" smooth="yes"/>
      <point x="659" y="394"/>
      <point x="669" y="406"/>
      <point x="671" y="417" type="curve" smooth="yes"/>
      <point x="687" y="489" type="line"/>
      <point x="785" y="566" type="line" smooth="yes"/>
      <point x="803" y="580"/>
      <point x="806" y="607"/>
      <point x="789" y="624" type="curve" smooth="yes"/>
      <point x="713" y="707" type="line" smooth="yes"/>
      <point x="710" y="710"/>
      <point x="705" y="714"/>
      <point x="701" y="716" type="curve" smooth="yes"/>
      <point x="589" y="773" type="line"/>
      <point x="612" y="799"/>
      <point x="594" y="837"/>
      <point x="557" y="837" type="curve" smooth="yes"/>
      <point x="90" y="837" type="line" smooth="yes"/>
      <point x="68" y="837"/>
      <point x="50" y="819"/>
      <point x="50" y="797" type="curve" smooth="yes"/>
      <point x="50" y="775"/>
      <point x="68" y="757"/>
      <point x="90" y="757" type="curve" smooth="yes"/>
      <point x="486" y="757" type="line"/>
      <point x="487" y="744"/>
      <point x="495" y="732"/>
      <point x="508" y="725" type="curve" smooth="yes"/>
      <point x="659" y="648" type="line"/>
      <point x="701" y="602" type="line"/>
      <point x="626" y="543" type="line" smooth="yes"/>
      <point x="620" y="538"/>
      <point x="614" y="528"/>
      <point x="612" y="520" type="curve" smooth="yes"/>
      <point x="597" y="454" type="line"/>
      <point x="426" y="376" type="line" smooth="yes"/>
      <point x="421" y="374"/>
      <point x="413" y="367"/>
      <point x="410" y="362" type="curve" smooth="yes"/>
      <point x="355" y="278" type="line"/>
      <point x="282" y="195" type="line" smooth="yes"/>
      <point x="276" y="189"/>
      <point x="272" y="177"/>
      <point x="272" y="168" type="curve" smooth="yes"/>
      <point x="272" y="95" type="line"/>
      <point x="219" y="20" type="line" smooth="yes"/>
      <point x="207" y="2"/>
      <point x="211" y="-23"/>
      <point x="229" y="-36" type="curve" smooth="yes"/>
      <point x="247" y="-48"/>
      <point x="272" y="-44"/>
    </contour>
  </outline>
</glyph>
<glyph name="eight" format="1">
  <advance width="934"/>
  <unicode hex="0038"/>
  <outline>
    <contour>
      <point x="403" y="-40" type="curve" smooth="yes"/>
      <point x="520" y="-40" type="line" smooth="yes"/>
      <point x="521" y="-40"/>
      <point x="523" y="-40"/>
      <point x="524" y="-40" type="curve" smooth="yes"/>
      <point x="597" y="-33" type="line" smooth="yes"/>
      <point x="601" y="-32"/>
      <point x="607" y="-31"/>
      <point x="611" y="-29" type="curve" smooth="yes"/>
      <point x="717" y="22" type="line" smooth="yes"/>
      <point x="721" y="24"/>
      <point x="725" y="27"/>
      <point x="728" y="30" type="curve" smooth="yes"/>
      <point x="872" y="171" type="line" smooth="yes"/>
      <point x="891" y="191"/>
      <point x="888" y="220"/>
      <point x="865" y="234" type="curve" smooth="yes"/>
      <point x="746" y="308" type="line"/>
      <point x="732" y="372" type="line" smooth="yes"/>
      <point x="731" y="376"/>
      <point x="730" y="379"/>
      <point x="728" y="382" type="curve"/>
      <point x="798" y="424" type="line" smooth="yes"/>
      <point x="820" y="437"/>
      <point x="825" y="464"/>
      <point x="809" y="483" type="curve" smooth="yes"/>
      <point x="720" y="596" type="line"/>
      <point x="783" y="654" type="line" smooth="yes"/>
      <point x="789" y="660"/>
      <point x="795" y="671"/>
      <point x="796" y="679" type="curve" smooth="yes"/>
      <point x="804" y="760" type="line" smooth="yes"/>
      <point x="807" y="780"/>
      <point x="792" y="800"/>
      <point x="772" y="803" type="curve" smooth="yes"/>
      <point x="577" y="839" type="line" smooth="yes"/>
      <point x="575" y="840"/>
      <point x="572" y="840"/>
      <point x="570" y="840" type="curve" smooth="yes"/>
      <point x="307" y="840" type="line" smooth="yes"/>
      <point x="299" y="840"/>
      <point x="289" y="836"/>
      <point x="283" y="832" type="curve" smooth="yes"/>
      <point x="207" y="773" type="line" smooth="yes"/>
      <point x="199" y="767"/>
      <point x="192" y="754"/>
      <point x="191" y="744" type="curve" smooth="yes"/>
      <point x="184" y="623" type="line"/>
      <point x="70" y="550" type="line" smooth="yes"/>
      <point x="44" y="533"/>
      <point x="44" y="500"/>
      <point x="70" y="483" type="curve" smooth="yes"/>
      <point x="197" y="402" type="line" smooth="yes"/>
      <point x="198" y="402"/>
      <point x="200" y="401"/>
      <point x="202" y="400" type="curve"/>
      <point x="147" y="379" type="line" smooth="yes"/>
      <point x="138" y="376"/>
      <point x="127" y="365"/>
      <point x="124" y="356" type="curve" smooth="yes"/>
      <point x="69" y="214" type="line" smooth="yes"/>
      <point x="62" y="197"/>
      <point x="70" y="175"/>
      <point x="86" y="166" type="curve" smooth="yes"/>
      <point x="178" y="111" type="line"/>
      <point x="125" y="67" type="line" smooth="yes"/>
      <point x="96" y="43"/>
      <point x="107" y="2"/>
      <point x="145" y="-4" type="curve" smooth="yes"/>
      <point x="397" y="-40" type="line" smooth="yes"/>
      <point x="399" y="-40"/>
      <point x="401" y="-40"/>
    </contour>
    <contour>
      <point x="244" y="566" type="line" smooth="yes"/>
      <point x="254" y="572"/>
      <point x="262" y="586"/>
      <point x="263" y="598" type="curve" smooth="yes"/>
      <point x="270" y="721" type="line"/>
      <point x="321" y="760" type="line"/>
      <point x="566" y="760" type="line"/>
      <point x="721" y="731" type="line"/>
      <point x="718" y="703" type="line"/>
      <point x="638" y="629" type="line" smooth="yes"/>
      <point x="623" y="616"/>
      <point x="621" y="591"/>
      <point x="634" y="575" type="curve" smooth="yes"/>
      <point x="718" y="469" type="line"/>
      <point x="680" y="447" type="line"/>
      <point x="459" y="440" type="line"/>
      <point x="338" y="440" type="line"/>
      <point x="235" y="473" type="line"/>
      <point x="166" y="517" type="line"/>
    </contour>
    <contour>
      <point x="273" y="86" type="line" smooth="yes"/>
      <point x="296" y="105"/>
      <point x="294" y="136"/>
      <point x="268" y="151" type="curve" smooth="yes"/>
      <point x="156" y="217" type="line"/>
      <point x="192" y="311" type="line"/>
      <point x="306" y="354" type="line"/>
      <point x="354" y="360" type="line"/>
      <point x="484" y="360" type="line"/>
      <point x="659" y="329" type="line"/>
      <point x="671" y="275" type="line" smooth="yes"/>
      <point x="673" y="266"/>
      <point x="681" y="254"/>
      <point x="689" y="249" type="curve" smooth="yes"/>
      <point x="780" y="193" type="line"/>
      <point x="677" y="92" type="line"/>
      <point x="582" y="46" type="line"/>
      <point x="518" y="40" type="line"/>
      <point x="406" y="40" type="line"/>
      <point x="246" y="63" type="line"/>
    </contour>
  </outline>
</glyph>
<glyph name="nine" format="1">
  <advance width="944"/>
  <unicode hex="0039"/>
  <outline>
    <contour>
      <point x="591" y="439" type="line" smooth="yes"/>
      <point x="589" y="440"/>
      <point x="586" y="440"/>
      <point x="584" y="440" type="curve" smooth="yes"/>
      <point x="439" y="440" type="line"/>
      <point x="259" y="472" type="line"/>
      <point x="233" y="533" type="line" smooth="yes"/>
      <point x="230" y="538"/>
      <point x="225" y="544"/>
      <point x="221" y="548" type="curve" smooth="yes"/>
      <point x="138" y="615" type="line"/>
      <point x="159" y="710" type="line"/>
      <point x="314" y="755" type="line" smooth="yes"/>
      <point x="318" y="756"/>
      <point x="322" y="758"/>
      <point x="326" y="760" type="curve"/>
      <point x="511" y="760" type="line"/>
      <point x="658" y="727" type="line"/>
      <point x="712" y="680" type="line"/>
      <point x="662" y="627" type="line" smooth="yes"/>
      <point x="651" y="615"/>
      <point x="648" y="594"/>
      <point x="656" y="580" type="curve" smooth="yes"/>
      <point x="702" y="500" type="line"/>
      <point x="661" y="427" type="line"/>
    </contour>
    <contour>
      <point x="451" y="-40" type="curve" smooth="yes"/>
      <point x="591" y="-40" type="line" smooth="yes"/>
      <point x="594" y="-40"/>
      <point x="598" y="-39"/>
      <point x="601" y="-39" type="curve" smooth="yes"/>
      <point x="744" y="-3" type="line" smooth="yes"/>
      <point x="750" y="-1"/>
      <point x="758" y="3"/>
      <point x="762" y="7" type="curve" smooth="yes"/>
      <point x="848" y="87" type="line" smooth="yes"/>
      <point x="852" y="91"/>
      <point x="856" y="97"/>
      <point x="858" y="102" type="curve" smooth="yes"/>
      <point x="892" y="185" type="line" smooth="yes"/>
      <point x="897" y="197"/>
      <point x="894" y="215"/>
      <point x="887" y="225" type="curve" smooth="yes"/>
      <point x="807" y="326" type="line"/>
      <point x="804" y="331" type="line"/>
      <point x="808" y="335" type="line" smooth="yes"/>
      <point x="834" y="359"/>
      <point x="823" y="397"/>
      <point x="788" y="403" type="curve" smooth="yes"/>
      <point x="744" y="411" type="line"/>
      <point x="783" y="480" type="line" smooth="yes"/>
      <point x="789" y="491"/>
      <point x="789" y="509"/>
      <point x="783" y="520" type="curve" smooth="yes"/>
      <point x="740" y="594" type="line"/>
      <point x="798" y="656" type="line" smooth="yes"/>
      <point x="814" y="673"/>
      <point x="813" y="699"/>
      <point x="795" y="714" type="curve" smooth="yes"/>
      <point x="703" y="794" type="line" smooth="yes"/>
      <point x="699" y="798"/>
      <point x="691" y="802"/>
      <point x="685" y="803" type="curve" smooth="yes"/>
      <point x="524" y="839" type="line" smooth="yes"/>
      <point x="521" y="840"/>
      <point x="517" y="840"/>
      <point x="515" y="840" type="curve" smooth="yes"/>
      <point x="292" y="840" type="line" smooth="yes"/>
      <point x="275" y="840"/>
      <point x="262" y="832"/>
      <point x="256" y="821" type="curve"/>
      <point x="114" y="780" type="line" smooth="yes"/>
      <point x="101" y="776"/>
      <point x="89" y="763"/>
      <point x="86" y="750" type="curve" smooth="yes"/>
      <point x="54" y="609" type="line" smooth="yes"/>
      <point x="51" y="595"/>
      <point x="57" y="578"/>
      <point x="68" y="569" type="curve" smooth="yes"/>
      <point x="163" y="492" type="line"/>
      <point x="195" y="420" type="line" smooth="yes"/>
      <point x="200" y="409"/>
      <point x="213" y="399"/>
      <point x="224" y="397" type="curve" smooth="yes"/>
      <point x="429" y="361" type="line" smooth="yes"/>
      <point x="431" y="360"/>
      <point x="434" y="360"/>
      <point x="436" y="360" type="curve" smooth="yes"/>
      <point x="580" y="360" type="line"/>
      <point x="691" y="340" type="line"/>
      <point x="693" y="337" type="line"/>
      <point x="667" y="313" type="line" smooth="yes"/>
      <point x="647" y="294"/>
      <point x="649" y="265"/>
      <point x="672" y="250" type="curve" smooth="yes"/>
      <point x="798" y="167" type="line"/>
      <point x="787" y="140" type="line"/>
      <point x="715" y="72" type="line"/>
      <point x="586" y="40" type="line"/>
      <point x="453" y="40" type="line"/>
      <point x="377" y="46" type="line"/>
      <point x="247" y="93" type="line"/>
      <point x="119" y="228" type="line" smooth="yes"/>
      <point x="104" y="243"/>
      <point x="78" y="244"/>
      <point x="62" y="229" type="curve" smooth="yes"/>
      <point x="47" y="214"/>
      <point x="46" y="188"/>
      <point x="61" y="172" type="curve" smooth="yes"/>
      <point x="196" y="31" type="line" smooth="yes"/>
      <point x="200" y="27"/>
      <point x="207" y="22"/>
      <point x="212" y="21" type="curve" smooth="yes"/>
      <point x="355" y="-31" type="line" smooth="yes"/>
      <point x="358" y="-32"/>
      <point x="362" y="-33"/>
      <point x="365" y="-33" type="curve" smooth="yes"/>
      <point x="448" y="-40" type="line" smooth="yes"/>
      <point x="449" y="-40"/>
      <point x="450" y="-40"/>
    </contour>
  </outline>
</glyph>
<glyph name="colon" format="1">
  <advance width="304"/>
  <unicode hex="003A"/>
  <outline>
    <contour>
      <point x="52" y="569" type="curve" smooth="yes"/>
      <point x="60" y="549"/>
      <point x="83" y="538"/>
      <point x="104" y="545" type="curve" smooth="yes"/>
      <point x="129" y="554" type="line" smooth="yes"/>
      <point x="149" y="562"/>
      <point x="160" y="585"/>
      <point x="153" y="606" type="curve" smooth="yes"/>
      <point x="145" y="626"/>
      <point x="122" y="637"/>
      <point x="101" y="630" type="curve" smooth="yes"/>
      <point x="76" y="621" type="line" smooth="yes"/>
      <point x="56" y="613"/>
      <point x="45" y="590"/>
    </contour>
    <contour>
      <point x="122" y="-2" type="curve" smooth="yes"/>
      <point x="124" y="-24"/>
      <point x="144" y="-41"/>
      <point x="165" y="-39" type="curve" smooth="yes"/>
      <point x="217" y="-35" type="line" smooth="yes"/>
      <point x="239" y="-33"/>
      <point x="256" y="-13"/>
      <point x="254" y="8" type="curve" smooth="yes"/>
      <point x="252" y="30"/>
      <point x="232" y="47"/>
      <point x="211" y="45" type="curve" smooth="yes"/>
      <point x="159" y="41" type="line" smooth="yes"/>
      <point x="137" y="39"/>
      <point x="120" y="19"/>
    </contour>
  </outline>
</glyph>
<glyph name="semicolon" format="1">
  <advance width="304"/>
  <unicode hex="003B"/>
  <outline>
    <contour>
      <point x="113" y="570" type="curve" smooth="yes"/>
      <point x="120" y="550"/>
      <point x="144" y="538"/>
      <point x="164" y="545" type="curve" smooth="yes"/>
      <point x="190" y="554" type="line" smooth="yes"/>
      <point x="210" y="561"/>
      <point x="222" y="585"/>
      <point x="215" y="605" type="curve" smooth="yes"/>
      <point x="208" y="625"/>
      <point x="184" y="637"/>
      <point x="164" y="630" type="curve" smooth="yes"/>
      <point x="138" y="621" type="line" smooth="yes"/>
      <point x="118" y="614"/>
      <point x="106" y="590"/>
    </contour>
    <contour>
      <point x="90" y="-48" type="curve" smooth="yes"/>
      <point x="214" y="-48" type="line" smooth="yes"/>
      <point x="243" y="-48"/>
      <point x="261" y="-23"/>
      <point x="252" y="5" type="curve" smooth="yes"/>
      <point x="222" y="94" type="line"/>
      <point x="242" y="183" type="line" smooth="yes"/>
      <point x="247" y="205"/>
      <point x="233" y="226"/>
      <point x="212" y="231" type="curve" smooth="yes"/>
      <point x="190" y="236"/>
      <point x="169" y="222"/>
      <point x="164" y="201" type="curve" smooth="yes"/>
      <point x="142" y="101" type="line" smooth="yes"/>
      <point x="141" y="95"/>
      <point x="141" y="85"/>
      <point x="143" y="79" type="curve" smooth="yes"/>
      <point x="159" y="32" type="line"/>
      <point x="90" y="32" type="line" smooth="yes"/>
      <point x="68" y="32"/>
      <point x="50" y="14"/>
      <point x="50" y="-8" type="curve" smooth="yes"/>
      <point x="50" y="-30"/>
      <point x="68" y="-48"/>
    </contour>
  </outline>
</glyph>
<glyph name="less" format="1">
  <advance width="637"/>
  <unicode hex="003C"/>
  <outline>
    <contour>
      <point x="512" y="93" type="curve" smooth="yes"/>
      <point x="517" y="114"/>
      <point x="504" y="137"/>
      <point x="483" y="142" type="curve" smooth="yes"/>
      <point x="296" y="188" type="line"/>
      <point x="268" y="226" type="line" smooth="yes"/>
      <point x="265" y="232"/>
      <point x="256" y="238"/>
      <point x="250" y="241" type="curve" smooth="yes"/>
      <point x="152" y="277" type="line"/>
      <point x="156" y="289" type="line" smooth="yes"/>
      <point x="160" y="299"/>
      <point x="159" y="314"/>
      <point x="154" y="323" type="curve" smooth="yes"/>
      <point x="150" y="329" type="line"/>
      <point x="271" y="365" type="line" smooth="yes"/>
      <point x="275" y="366"/>
      <point x="281" y="369"/>
      <point x="284" y="371" type="curve" smooth="yes"/>
      <point x="344" y="416" type="line"/>
      <point x="556" y="464" type="line" smooth="yes"/>
      <point x="577" y="469"/>
      <point x="591" y="491"/>
      <point x="586" y="512" type="curve" smooth="yes"/>
      <point x="581" y="533"/>
      <point x="559" y="547"/>
      <point x="538" y="542" type="curve" smooth="yes"/>
      <point x="318" y="492" type="line" smooth="yes"/>
      <point x="314" y="491"/>
      <point x="307" y="488"/>
      <point x="303" y="485" type="curve" smooth="yes"/>
      <point x="242" y="439" type="line"/>
      <point x="79" y="391" type="line" smooth="yes"/>
      <point x="53" y="384"/>
      <point x="42" y="357"/>
      <point x="55" y="333" type="curve" smooth="yes"/>
      <point x="75" y="299" type="line"/>
      <point x="63" y="267" type="line" smooth="yes"/>
      <point x="55" y="246"/>
      <point x="65" y="223"/>
      <point x="86" y="215" type="curve" smooth="yes"/>
      <point x="211" y="170" type="line"/>
      <point x="240" y="130" type="line" smooth="yes"/>
      <point x="244" y="123"/>
      <point x="254" y="116"/>
      <point x="262" y="114" type="curve" smooth="yes"/>
      <point x="463" y="64" type="line" smooth="yes"/>
      <point x="484" y="59"/>
      <point x="507" y="72"/>
    </contour>
  </outline>
</glyph>
<glyph name="equal" format="1">
  <advance width="815"/>
  <unicode hex="003D"/>
  <outline>
    <contour>
      <point x="716" y="398" type="line"/>
      <point x="716" y="478" type="line"/>
      <point x="140" y="478" type="line"/>
      <point x="140" y="398" type="line"/>
    </contour>
    <contour>
      <point x="725" y="98" type="line" smooth="yes"/>
      <point x="747" y="98"/>
      <point x="765" y="116"/>
      <point x="765" y="138" type="curve" smooth="yes"/>
      <point x="765" y="160"/>
      <point x="747" y="178"/>
      <point x="725" y="178" type="curve" smooth="yes"/>
      <point x="90" y="178" type="line" smooth="yes"/>
      <point x="68" y="178"/>
      <point x="50" y="160"/>
      <point x="50" y="138" type="curve" smooth="yes"/>
      <point x="50" y="116"/>
      <point x="68" y="98"/>
      <point x="90" y="98" type="curve" smooth="yes"/>
    </contour>
  </outline>
</glyph>
<glyph name="greater" format="1">
  <advance width="662"/>
  <unicode hex="003E"/>
  <outline>
    <contour>
      <point x="243" y="82" type="curve" smooth="yes"/>
      <point x="263" y="90"/>
      <point x="274" y="113"/>
      <point x="267" y="134" type="curve" smooth="yes"/>
      <point x="263" y="143" type="line"/>
      <point x="394" y="182" type="line" smooth="yes"/>
      <point x="401" y="184"/>
      <point x="410" y="189"/>
      <point x="414" y="195" type="curve" smooth="yes"/>
      <point x="448" y="236" type="line"/>
      <point x="584" y="282" type="line" smooth="yes"/>
      <point x="614" y="293"/>
      <point x="622" y="326"/>
      <point x="599" y="349" type="curve" smooth="yes"/>
      <point x="548" y="399" type="line" smooth="yes"/>
      <point x="544" y="403"/>
      <point x="536" y="407"/>
      <point x="530" y="409" type="curve" smooth="yes"/>
      <point x="338" y="458" type="line"/>
      <point x="171" y="506" type="line"/>
      <point x="115" y="551" type="line" smooth="yes"/>
      <point x="98" y="565"/>
      <point x="72" y="562"/>
      <point x="59" y="545" type="curve" smooth="yes"/>
      <point x="45" y="528"/>
      <point x="48" y="502"/>
      <point x="65" y="489" type="curve" smooth="yes"/>
      <point x="127" y="439" type="line" smooth="yes"/>
      <point x="130" y="436"/>
      <point x="137" y="433"/>
      <point x="141" y="432" type="curve" smooth="yes"/>
      <point x="316" y="382" type="line"/>
      <point x="493" y="336" type="line"/>
      <point x="411" y="308" type="line" smooth="yes"/>
      <point x="405" y="306"/>
      <point x="397" y="300"/>
      <point x="393" y="295" type="curve" smooth="yes"/>
      <point x="360" y="255" type="line"/>
      <point x="200" y="208" type="line" smooth="yes"/>
      <point x="177" y="202"/>
      <point x="165" y="179"/>
      <point x="173" y="156" type="curve" smooth="yes"/>
      <point x="191" y="106" type="line" smooth="yes"/>
      <point x="199" y="86"/>
      <point x="222" y="75"/>
    </contour>
  </outline>
</glyph>
<glyph name="question" format="1">
  <advance width="717"/>
  <unicode hex="003F"/>
  <outline>
    <contour>
      <point x="337" y="188" type="curve" smooth="yes"/>
      <point x="367" y="288" type="line" smooth="yes"/>
      <point x="370" y="296"/>
      <point x="369" y="310"/>
      <point x="365" y="318" type="curve" smooth="yes"/>
      <point x="343" y="359" type="line"/>
      <point x="475" y="359" type="line" smooth="yes"/>
      <point x="497" y="359"/>
      <point x="510" y="372"/>
      <point x="514" y="388" type="curve"/>
      <point x="636" y="419" type="line" smooth="yes"/>
      <point x="668" y="428"/>
      <point x="678" y="463"/>
      <point x="654" y="486" type="curve" smooth="yes"/>
      <point x="530" y="611" type="line"/>
      <point x="550" y="670" type="line" smooth="yes"/>
      <point x="553" y="677"/>
      <point x="553" y="687"/>
      <point x="551" y="694" type="curve" smooth="yes"/>
      <point x="530" y="774" type="line" smooth="yes"/>
      <point x="527" y="784"/>
      <point x="517" y="796"/>
      <point x="508" y="800" type="curve" smooth="yes"/>
      <point x="429" y="836" type="line" smooth="yes"/>
      <point x="424" y="838"/>
      <point x="417" y="840"/>
      <point x="412" y="840" type="curve" smooth="yes"/>
      <point x="329" y="840" type="line"/>
      <point x="147" y="833" type="line" smooth="yes"/>
      <point x="127" y="832"/>
      <point x="110" y="815"/>
      <point x="109" y="795" type="curve" smooth="yes"/>
      <point x="107" y="750" type="line"/>
      <point x="53" y="614" type="line" smooth="yes"/>
      <point x="45" y="594"/>
      <point x="55" y="570"/>
      <point x="75" y="562" type="curve" smooth="yes"/>
      <point x="95" y="554"/>
      <point x="119" y="564"/>
      <point x="127" y="584" type="curve" smooth="yes"/>
      <point x="184" y="727" type="line" smooth="yes"/>
      <point x="185" y="730"/>
      <point x="186" y="736"/>
      <point x="186" y="740" type="curve" smooth="yes"/>
      <point x="187" y="754" type="line"/>
      <point x="329" y="760" type="line"/>
      <point x="403" y="760" type="line"/>
      <point x="457" y="735" type="line"/>
      <point x="471" y="685" type="line"/>
      <point x="446" y="613" type="line" smooth="yes"/>
      <point x="442" y="600"/>
      <point x="446" y="581"/>
      <point x="456" y="572" type="curve" smooth="yes"/>
      <point x="548" y="479" type="line"/>
      <point x="414" y="445" type="line" smooth="yes"/>
      <point x="409" y="444"/>
      <point x="405" y="442"/>
      <point x="401" y="439" type="curve"/>
      <point x="278" y="439" type="line" smooth="yes"/>
      <point x="246" y="439"/>
      <point x="228" y="410"/>
      <point x="242" y="381" type="curve" smooth="yes"/>
      <point x="286" y="296" type="line"/>
      <point x="261" y="212" type="line" smooth="yes"/>
      <point x="254" y="191"/>
      <point x="267" y="168"/>
      <point x="287" y="162" type="curve" smooth="yes"/>
      <point x="308" y="155"/>
      <point x="331" y="168"/>
    </contour>
    <contour>
      <point x="239" y="-8" type="curve" smooth="yes"/>
      <point x="243" y="-29"/>
      <point x="265" y="-43"/>
      <point x="286" y="-39" type="curve" smooth="yes"/>
      <point x="342" y="-28" type="line" smooth="yes"/>
      <point x="363" y="-24"/>
      <point x="377" y="-2"/>
      <point x="373" y="19" type="curve" smooth="yes"/>
      <point x="369" y="40"/>
      <point x="347" y="54"/>
      <point x="326" y="50" type="curve" smooth="yes"/>
      <point x="270" y="39" type="line" smooth="yes"/>
      <point x="249" y="35"/>
      <point x="235" y="13"/>
    </contour>
  </outline>
</glyph>
<glyph name="at" format="1">
  <advance width="935"/>
  <unicode hex="0040"/>
  <outline>
    <contour>
      <point x="454" y="-82" type="curve" smooth="yes"/>
      <point x="541" y="-82" type="line" smooth="yes"/>
      <point x="563" y="-82"/>
      <point x="581" y="-64"/>
      <point x="581" y="-42" type="curve" smooth="yes"/>
      <point x="581" y="-20"/>
      <point x="563" y="-2"/>
      <point x="541" y="-2" type="curve" smooth="yes"/>
      <point x="458" y="-2" type="line"/>
      <point x="276" y="32" type="line"/>
      <point x="208" y="78" type="line"/>
      <point x="265" y="128" type="line" smooth="yes"/>
      <point x="281" y="142"/>
      <point x="284" y="167"/>
      <point x="270" y="183" type="curve" smooth="yes"/>
      <point x="189" y="283" type="line"/>
      <point x="145" y="349" type="line"/>
      <point x="260" y="428" type="line" smooth="yes"/>
      <point x="270" y="435"/>
      <point x="278" y="451"/>
      <point x="277" y="464" type="curve" smooth="yes"/>
      <point x="270" y="556" type="line"/>
      <point x="296" y="630" type="line" smooth="yes"/>
      <point x="297" y="633"/>
      <point x="298" y="638"/>
      <point x="299" y="641" type="curve" smooth="yes"/>
      <point x="304" y="718" type="line"/>
      <point x="304" y="718" type="line"/>
      <point x="480" y="718" type="line"/>
      <point x="600" y="686" type="line"/>
      <point x="677" y="612" type="line" smooth="yes"/>
      <point x="678" y="611"/>
      <point x="681" y="609"/>
      <point x="682" y="608" type="curve" smooth="yes"/>
      <point x="772" y="549" type="line"/>
      <point x="717" y="484" type="line" smooth="yes"/>
      <point x="704" y="469"/>
      <point x="705" y="445"/>
      <point x="720" y="430" type="curve" smooth="yes"/>
      <point x="793" y="356" type="line"/>
      <point x="708" y="247" type="line"/>
      <point x="648" y="207" type="line"/>
      <point x="548" y="265" type="line"/>
      <point x="619" y="328" type="line" smooth="yes"/>
      <point x="629" y="337"/>
      <point x="634" y="356"/>
      <point x="631" y="369" type="curve" smooth="yes"/>
      <point x="608" y="450" type="line"/>
      <point x="670" y="534" type="line" smooth="yes"/>
      <point x="683" y="552"/>
      <point x="679" y="577"/>
      <point x="662" y="590" type="curve" smooth="yes"/>
      <point x="644" y="603"/>
      <point x="619" y="599"/>
      <point x="606" y="582" type="curve" smooth="yes"/>
      <point x="532" y="482" type="line" smooth="yes"/>
      <point x="525" y="473"/>
      <point x="523" y="458"/>
      <point x="525" y="447" type="curve" smooth="yes"/>
      <point x="547" y="371" type="line"/>
      <point x="461" y="294" type="line"/>
      <point x="414" y="328" type="line"/>
      <point x="413" y="349" type="line"/>
      <point x="481" y="479" type="line"/>
      <point x="521" y="535" type="line" smooth="yes"/>
      <point x="533" y="553"/>
      <point x="529" y="578"/>
      <point x="511" y="591" type="curve" smooth="yes"/>
      <point x="493" y="603"/>
      <point x="468" y="599"/>
      <point x="455" y="581" type="curve" smooth="yes"/>
      <point x="414" y="523" type="line" smooth="yes"/>
      <point x="414" y="521"/>
      <point x="412" y="520"/>
      <point x="412" y="518" type="curve" smooth="yes"/>
      <point x="337" y="377" type="line" smooth="yes"/>
      <point x="334" y="371"/>
      <point x="332" y="362"/>
      <point x="332" y="356" type="curve" smooth="yes"/>
      <point x="335" y="304" type="line" smooth="yes"/>
      <point x="336" y="293"/>
      <point x="343" y="280"/>
      <point x="352" y="274" type="curve" smooth="yes"/>
      <point x="487" y="177" type="line" smooth="yes"/>
      <point x="490" y="176"/>
      <point x="494" y="173"/>
      <point x="497" y="172" type="curve" smooth="yes"/>
      <point x="638" y="120" type="line" smooth="yes"/>
      <point x="641" y="119"/>
      <point x="645" y="119"/>
      <point x="648" y="118" type="curve"/>
      <point x="663" y="117"/>
      <point x="678" y="123"/>
      <point x="687" y="137" type="curve"/>
      <point x="758" y="184" type="line" smooth="yes"/>
      <point x="761" y="186"/>
      <point x="765" y="190"/>
      <point x="768" y="193" type="curve" smooth="yes"/>
      <point x="878" y="334" type="line" smooth="yes"/>
      <point x="889" y="350"/>
      <point x="888" y="373"/>
      <point x="874" y="387" type="curve" smooth="yes"/>
      <point x="802" y="461" type="line"/>
      <point x="862" y="532" type="line" smooth="yes"/>
      <point x="877" y="551"/>
      <point x="874" y="578"/>
      <point x="853" y="591" type="curve" smooth="yes"/>
      <point x="730" y="673" type="line"/>
      <point x="648" y="751" type="line" smooth="yes"/>
      <point x="644" y="755"/>
      <point x="636" y="759"/>
      <point x="630" y="761" type="curve" smooth="yes"/>
      <point x="495" y="797" type="line" smooth="yes"/>
      <point x="493" y="797"/>
      <point x="488" y="798"/>
      <point x="485" y="798" type="curve" smooth="yes"/>
      <point x="270" y="798" type="line" smooth="yes"/>
      <point x="251" y="798"/>
      <point x="234" y="783"/>
      <point x="231" y="764" type="curve" smooth="yes"/>
      <point x="225" y="729" type="line" smooth="yes"/>
      <point x="225" y="728"/>
      <point x="224" y="726"/>
      <point x="224" y="725" type="curve" smooth="yes"/>
      <point x="219" y="652" type="line"/>
      <point x="192" y="575" type="line" smooth="yes"/>
      <point x="191" y="571"/>
      <point x="190" y="564"/>
      <point x="190" y="559" type="curve" smooth="yes"/>
      <point x="196" y="481" type="line"/>
      <point x="67" y="393" type="line" smooth="yes"/>
      <point x="49" y="381"/>
      <point x="45" y="356"/>
      <point x="57" y="338" type="curve" smooth="yes"/>
      <point x="124" y="237" type="line" smooth="yes"/>
      <point x="124" y="236"/>
      <point x="125" y="235"/>
      <point x="126" y="234" type="curve" smooth="yes"/>
      <point x="183" y="163" type="line"/>
      <point x="116" y="105" type="line" smooth="yes"/>
      <point x="95" y="87"/>
      <point x="97" y="57"/>
      <point x="120" y="42" type="curve" smooth="yes"/>
      <point x="238" y="-39" type="line" smooth="yes"/>
      <point x="242" y="-42"/>
      <point x="249" y="-44"/>
      <point x="254" y="-45" type="curve" smooth="yes"/>
      <point x="447" y="-81" type="line" smooth="yes"/>
      <point x="449" y="-82"/>
      <point x="452" y="-82"/>
    </contour>
  </outline>
</glyph>
<glyph name="A" format="1">
  <advance width="967"/>
  <unicode hex="0041"/>
  <outline>
    <contour>
      <point x="756" y="-29" type="curve" smooth="yes"/>
      <point x="784" y="5" type="line" smooth="yes"/>
      <point x="788" y="10"/>
      <point x="792" y="19"/>
      <point x="793" y="26" type="curve" smooth="yes"/>
      <point x="801" y="109" type="line"/>
      <point x="845" y="226" type="line" smooth="yes"/>
      <point x="847" y="234"/>
      <point x="847" y="246"/>
      <point x="844" y="254" type="curve" smooth="yes"/>
      <point x="824" y="307" type="line"/>
      <point x="842" y="311"/>
      <point x="856" y="327"/>
      <point x="856" y="346" type="curve" smooth="yes"/>
      <point x="856" y="365"/>
      <point x="841" y="382"/>
      <point x="822" y="385" type="curve"/>
      <point x="905" y="472" type="line" smooth="yes"/>
      <point x="922" y="490"/>
      <point x="920" y="518"/>
      <point x="899" y="532" type="curve" smooth="yes"/>
      <point x="799" y="603" type="line"/>
      <point x="843" y="652" type="line" smooth="yes"/>
      <point x="861" y="672"/>
      <point x="857" y="699"/>
      <point x="835" y="713" type="curve" smooth="yes"/>
      <point x="704" y="794" type="line" smooth="yes"/>
      <point x="700" y="796"/>
      <point x="695" y="798"/>
      <point x="691" y="799" type="curve" smooth="yes"/>
      <point x="516" y="835" type="line" smooth="yes"/>
      <point x="514" y="836"/>
      <point x="510" y="836"/>
      <point x="508" y="836" type="curve" smooth="yes"/>
      <point x="420" y="836" type="line" smooth="yes"/>
      <point x="418" y="836"/>
      <point x="415" y="836"/>
      <point x="414" y="835" type="curve" smooth="yes"/>
      <point x="193" y="800" type="line" smooth="yes"/>
      <point x="175" y="797"/>
      <point x="160" y="781"/>
      <point x="159" y="763" type="curve" smooth="yes"/>
      <point x="155" y="684" type="line" smooth="yes"/>
      <point x="154" y="673"/>
      <point x="160" y="658"/>
      <point x="168" y="651" type="curve" smooth="yes"/>
      <point x="225" y="602" type="line"/>
      <point x="134" y="531" type="line" smooth="yes"/>
      <point x="131" y="529"/>
      <point x="127" y="525"/>
      <point x="125" y="522" type="curve" smooth="yes"/>
      <point x="56" y="421" type="line" smooth="yes"/>
      <point x="46" y="406"/>
      <point x="48" y="383"/>
      <point x="61" y="370" type="curve" smooth="yes"/>
      <point x="145" y="286" type="line"/>
      <point x="124" y="208" type="line" smooth="yes"/>
      <point x="122" y="198"/>
      <point x="124" y="185"/>
      <point x="129" y="176" type="curve"/>
      <point x="129" y="176" type="line" smooth="yes"/>
      <point x="113" y="158"/>
      <point x="116" y="132"/>
      <point x="135" y="118" type="curve" smooth="yes"/>
      <point x="235" y="41" type="line" smooth="yes"/>
      <point x="274" y="12"/>
      <point x="320" y="58"/>
      <point x="292" y="97" type="curve" smooth="yes"/>
      <point x="274" y="120" type="line"/>
      <point x="232" y="174" type="line"/>
      <point x="260" y="205" type="line" smooth="yes"/>
      <point x="266" y="213"/>
      <point x="270" y="226"/>
      <point x="269" y="236" type="curve" smooth="yes"/>
      <point x="264" y="286" type="line"/>
      <point x="311" y="306" type="line"/>
      <point x="739" y="306" type="line"/>
      <point x="764" y="240" type="line"/>
      <point x="724" y="132" type="line" smooth="yes"/>
      <point x="724" y="129"/>
      <point x="722" y="125"/>
      <point x="722" y="122" type="curve" smooth="yes"/>
      <point x="714" y="46" type="line"/>
      <point x="694" y="21" type="line" smooth="yes"/>
      <point x="680" y="5"/>
      <point x="683" y="-21"/>
      <point x="700" y="-35" type="curve" smooth="yes"/>
      <point x="716" y="-49"/>
      <point x="742" y="-46"/>
    </contour>
    <contour>
      <point x="312" y="568" type="line" smooth="yes"/>
      <point x="333" y="584"/>
      <point x="334" y="613"/>
      <point x="314" y="630" type="curve" smooth="yes"/>
      <point x="236" y="699" type="line"/>
      <point x="237" y="726" type="line"/>
      <point x="423" y="756" type="line"/>
      <point x="504" y="756" type="line"/>
      <point x="668" y="722" type="line"/>
      <point x="752" y="670" type="line"/>
      <point x="709" y="623" type="line" smooth="yes"/>
      <point x="693" y="604"/>
      <point x="696" y="578"/>
      <point x="716" y="563" type="curve" smooth="yes"/>
      <point x="815" y="494" type="line"/>
      <point x="727" y="401" type="line" smooth="yes"/>
      <point x="723" y="397"/>
      <point x="720" y="392"/>
      <point x="719" y="386" type="curve"/>
      <point x="303" y="386" type="line" smooth="yes"/>
      <point x="298" y="386"/>
      <point x="291" y="385"/>
      <point x="287" y="383" type="curve" smooth="yes"/>
      <point x="205" y="347" type="line" smooth="yes"/>
      <point x="203" y="347"/>
      <point x="202" y="346"/>
      <point x="200" y="344" type="curve"/>
      <point x="141" y="404" type="line"/>
      <point x="187" y="472" type="line"/>
    </contour>
  </outline>
</glyph>
<glyph name="B" format="1">
  <advance width="957"/>
  <unicode hex="0042"/>
  <outline>
    <contour>
      <point x="513" y="444" type="line" smooth="yes"/>
      <point x="511" y="444"/>
      <point x="509" y="444"/>
      <point x="508" y="444" type="curve" smooth="yes"/>
      <point x="315" y="444" type="line"/>
      <point x="317" y="505" type="line" smooth="yes"/>
      <point x="317" y="512"/>
      <point x="314" y="523"/>
      <point x="310" y="529" type="curve" smooth="yes"/>
      <point x="240" y="629" type="line"/>
      <point x="209" y="690" type="line"/>
      <point x="230" y="733" type="line"/>
      <point x="387" y="764" type="line"/>
      <point x="589" y="764" type="line"/>
      <point x="671" y="734" type="line"/>
      <point x="741" y="661" type="line" smooth="yes"/>
      <point x="741" y="660"/>
      <point x="743" y="659"/>
      <point x="744" y="658" type="curve" smooth="yes"/>
      <point x="823" y="591" type="line"/>
      <point x="804" y="493" type="line"/>
      <point x="701" y="451" type="line"/>
      <point x="644" y="444" type="line" smooth="yes"/>
      <point x="635" y="443"/>
      <point x="626" y="438"/>
      <point x="620" y="431" type="curve"/>
    </contour>
    <contour>
      <point x="421" y="-36" type="curve" smooth="yes"/>
      <point x="586" y="-36" type="line" smooth="yes"/>
      <point x="596" y="-36"/>
      <point x="606" y="-31"/>
      <point x="614" y="-24" type="curve"/>
      <point x="819" y="23" type="line" smooth="yes"/>
      <point x="845" y="29"/>
      <point x="858" y="55"/>
      <point x="846" y="80" type="curve" smooth="yes"/>
      <point x="789" y="198" type="line"/>
      <point x="844" y="261" type="line" smooth="yes"/>
      <point x="850" y="268"/>
      <point x="854" y="280"/>
      <point x="854" y="289" type="curve" smooth="yes"/>
      <point x="852" y="369" type="line" smooth="yes"/>
      <point x="851" y="388"/>
      <point x="835" y="405"/>
      <point x="816" y="408" type="curve" smooth="yes"/>
      <point x="809" y="408" type="line"/>
      <point x="854" y="427" type="line" smooth="yes"/>
      <point x="865" y="431"/>
      <point x="876" y="444"/>
      <point x="878" y="456" type="curve" smooth="yes"/>
      <point x="906" y="598" type="line" smooth="yes"/>
      <point x="909" y="611"/>
      <point x="903" y="628"/>
      <point x="893" y="636" type="curve" smooth="yes"/>
      <point x="797" y="718" type="line"/>
      <point x="722" y="796" type="line" smooth="yes"/>
      <point x="718" y="800"/>
      <point x="712" y="804"/>
      <point x="707" y="806" type="curve" smooth="yes"/>
      <point x="610" y="842" type="line" smooth="yes"/>
      <point x="606" y="843"/>
      <point x="600" y="844"/>
      <point x="596" y="844" type="curve" smooth="yes"/>
      <point x="383" y="844" type="line" smooth="yes"/>
      <point x="381" y="844"/>
      <point x="377" y="844"/>
      <point x="375" y="843" type="curve" smooth="yes"/>
      <point x="196" y="808" type="line" smooth="yes"/>
      <point x="185" y="806"/>
      <point x="172" y="796"/>
      <point x="168" y="787" type="curve" smooth="yes"/>
      <point x="128" y="708" type="line" smooth="yes"/>
      <point x="123" y="698"/>
      <point x="124" y="682"/>
      <point x="129" y="672" type="curve" smooth="yes"/>
      <point x="170" y="590" type="line" smooth="yes"/>
      <point x="171" y="588"/>
      <point x="172" y="586"/>
      <point x="173" y="585" type="curve" smooth="yes"/>
      <point x="237" y="495" type="line"/>
      <point x="235" y="444" type="line"/>
      <point x="90" y="444" type="line" smooth="yes"/>
      <point x="68" y="444"/>
      <point x="50" y="426"/>
      <point x="50" y="404" type="curve" smooth="yes"/>
      <point x="50" y="382"/>
      <point x="68" y="364"/>
      <point x="90" y="364" type="curve" smooth="yes"/>
      <point x="160" y="364" type="line"/>
      <point x="125" y="334" type="line" smooth="yes"/>
      <point x="106" y="319"/>
      <point x="105" y="293"/>
      <point x="121" y="276" type="curve" smooth="yes"/>
      <point x="210" y="184" type="line"/>
      <point x="225" y="56" type="line" smooth="yes"/>
      <point x="226" y="45"/>
      <point x="234" y="32"/>
      <point x="243" y="26" type="curve" smooth="yes"/>
      <point x="324" y="-24" type="line" smooth="yes"/>
      <point x="328" y="-27"/>
      <point x="336" y="-29"/>
      <point x="342" y="-30" type="curve" smooth="yes"/>
      <point x="418" y="-36" type="line" smooth="yes"/>
      <point x="419" y="-36"/>
      <point x="420" y="-36"/>
    </contour>
    <contour>
      <point x="288" y="207" type="line" smooth="yes"/>
      <point x="287" y="214"/>
      <point x="282" y="224"/>
      <point x="277" y="230" type="curve" smooth="yes"/>
      <point x="209" y="300" type="line"/>
      <point x="286" y="364" type="line"/>
      <point x="506" y="364" type="line"/>
      <point x="773" y="332" type="line"/>
      <point x="774" y="302" type="line"/>
      <point x="712" y="230" type="line" smooth="yes"/>
      <point x="702" y="219"/>
      <point x="700" y="200"/>
      <point x="706" y="187" type="curve" smooth="yes"/>
      <point x="752" y="90" type="line"/>
      <point x="578" y="50" type="line" smooth="yes"/>
      <point x="574" y="49"/>
      <point x="570" y="47"/>
      <point x="566" y="44" type="curve"/>
      <point x="423" y="44" type="line"/>
      <point x="358" y="49" type="line"/>
      <point x="302" y="84" type="line"/>
    </contour>
  </outline>
</glyph>
<glyph name="C" format="1">
  <advance width="970"/>
  <unicode hex="0043"/>
  <outline>
    <contour>
      <point x="363" y="-42" type="curve" smooth="yes"/>
      <point x="547" y="-42" type="line"/>
      <point x="649" y="-35" type="line" smooth="yes"/>
      <point x="661" y="-34"/>
      <point x="676" y="-25"/>
      <point x="681" y="-14" type="curve" smooth="yes"/>
      <point x="705" y="29" type="line"/>
      <point x="903" y="165" type="line" smooth="yes"/>
      <point x="921" y="177"/>
      <point x="925" y="203"/>
      <point x="913" y="221" type="curve" smooth="yes"/>
      <point x="901" y="239"/>
      <point x="875" y="243"/>
      <point x="857" y="231" type="curve" smooth="yes"/>
      <point x="652" y="89" type="line" smooth="yes"/>
      <point x="648" y="86"/>
      <point x="642" y="80"/>
      <point x="640" y="76" type="curve" smooth="yes"/>
      <point x="622" y="43" type="line"/>
      <point x="547" y="38" type="line"/>
      <point x="378" y="38" type="line"/>
      <point x="376" y="39"/>
      <point x="374" y="41"/>
      <point x="372" y="41" type="curve" smooth="yes"/>
      <point x="261" y="84" type="line"/>
      <point x="229" y="196" type="line"/>
      <point x="253" y="284" type="line"/>
      <point x="295" y="383" type="line" smooth="yes"/>
      <point x="299" y="394"/>
      <point x="298" y="411"/>
      <point x="291" y="421" type="curve" smooth="yes"/>
      <point x="225" y="520" type="line"/>
      <point x="180" y="619" type="line" smooth="yes"/>
      <point x="180" y="620"/>
      <point x="178" y="623"/>
      <point x="177" y="624" type="curve" smooth="yes"/>
      <point x="150" y="665" type="line"/>
      <point x="298" y="726" type="line" smooth="yes"/>
      <point x="299" y="726"/>
      <point x="300" y="727"/>
      <point x="301" y="727" type="curve" smooth="yes"/>
      <point x="360" y="758" type="line"/>
      <point x="601" y="758" type="line"/>
      <point x="737" y="725" type="line"/>
      <point x="795" y="685" type="line"/>
      <point x="699" y="633" type="line" smooth="yes"/>
      <point x="680" y="623"/>
      <point x="673" y="598"/>
      <point x="683" y="579" type="curve" smooth="yes"/>
      <point x="693" y="560"/>
      <point x="718" y="553"/>
      <point x="737" y="563" type="curve" smooth="yes"/>
      <point x="891" y="646" type="line" smooth="yes"/>
      <point x="919" y="662"/>
      <point x="921" y="696"/>
      <point x="894" y="714" type="curve" smooth="yes"/>
      <point x="776" y="795" type="line" smooth="yes"/>
      <point x="772" y="797"/>
      <point x="767" y="800"/>
      <point x="763" y="801" type="curve" smooth="yes"/>
      <point x="616" y="837" type="line" smooth="yes"/>
      <point x="613" y="837"/>
      <point x="609" y="838"/>
      <point x="606" y="838" type="curve" smooth="yes"/>
      <point x="350" y="838" type="line" smooth="yes"/>
      <point x="345" y="838"/>
      <point x="336" y="836"/>
      <point x="331" y="833" type="curve" smooth="yes"/>
      <point x="266" y="799" type="line"/>
      <point x="75" y="721" type="line" smooth="yes"/>
      <point x="51" y="711"/>
      <point x="42" y="684"/>
      <point x="57" y="662" type="curve" smooth="yes"/>
      <point x="109" y="583" type="line"/>
      <point x="154" y="484" type="line" smooth="yes"/>
      <point x="154" y="482"/>
      <point x="156" y="480"/>
      <point x="157" y="478" type="curve" smooth="yes"/>
      <point x="213" y="395" type="line"/>
      <point x="178" y="313" type="line" smooth="yes"/>
      <point x="178" y="312"/>
      <point x="177" y="309"/>
      <point x="176" y="308" type="curve" smooth="yes"/>
      <point x="149" y="206" type="line" smooth="yes"/>
      <point x="148" y="200"/>
      <point x="148" y="191"/>
      <point x="150" y="185" type="curve" smooth="yes"/>
      <point x="190" y="43" type="line" smooth="yes"/>
      <point x="193" y="33"/>
      <point x="204" y="21"/>
      <point x="214" y="17" type="curve" smooth="yes"/>
      <point x="334" y="-30" type="line"/>
      <point x="341" y="-36"/>
      <point x="354" y="-42"/>
    </contour>
  </outline>
</glyph>
<glyph name="D" format="1">
  <advance width="938"/>
  <unicode hex="0044"/>
  <outline>
    <contour>
      <point x="174" y="-41" type="curve" smooth="yes"/>
      <point x="658" y="-41" type="line" smooth="yes"/>
      <point x="660" y="-41"/>
      <point x="664" y="-41"/>
      <point x="666" y="-40" type="curve" smooth="yes"/>
      <point x="701" y="-33" type="line" smooth="yes"/>
      <point x="706" y="-32"/>
      <point x="714" y="-29"/>
      <point x="718" y="-26" type="curve" smooth="yes"/>
      <point x="784" y="26" type="line" smooth="yes"/>
      <point x="792" y="32"/>
      <point x="799" y="45"/>
      <point x="800" y="55" type="curve" smooth="yes"/>
      <point x="808" y="197" type="line"/>
      <point x="810" y="289" type="line"/>
      <point x="857" y="381" type="line" smooth="yes"/>
      <point x="863" y="393"/>
      <point x="861" y="412"/>
      <point x="853" y="423" type="curve" smooth="yes"/>
      <point x="776" y="523" type="line" smooth="yes"/>
      <point x="763" y="541"/>
      <point x="737" y="544"/>
      <point x="720" y="531" type="curve" smooth="yes"/>
      <point x="702" y="518"/>
      <point x="699" y="492"/>
      <point x="712" y="475" type="curve" smooth="yes"/>
      <point x="774" y="395" type="line"/>
      <point x="734" y="317" type="line" smooth="yes"/>
      <point x="732" y="313"/>
      <point x="730" y="305"/>
      <point x="730" y="300" type="curve" smooth="yes"/>
      <point x="728" y="201" type="line"/>
      <point x="721" y="78" type="line"/>
      <point x="676" y="43" type="line"/>
      <point x="654" y="39" type="line"/>
      <point x="249" y="39" type="line"/>
      <point x="274" y="77" type="line" smooth="yes"/>
      <point x="287" y="95"/>
      <point x="282" y="120"/>
      <point x="263" y="132" type="curve" smooth="yes"/>
      <point x="160" y="201" type="line"/>
      <point x="248" y="267" type="line" smooth="yes"/>
      <point x="255" y="272"/>
      <point x="262" y="283"/>
      <point x="263" y="292" type="curve" smooth="yes"/>
      <point x="281" y="392" type="line" smooth="yes"/>
      <point x="283" y="402"/>
      <point x="279" y="417"/>
      <point x="272" y="425" type="curve" smooth="yes"/>
      <point x="213" y="495" type="line"/>
      <point x="297" y="569" type="line" smooth="yes"/>
      <point x="309" y="580"/>
      <point x="313" y="601"/>
      <point x="306" y="615" type="curve" smooth="yes"/>
      <point x="261" y="715" type="line" smooth="yes"/>
      <point x="260" y="719"/>
      <point x="256" y="724"/>
      <point x="254" y="727" type="curve" smooth="yes"/>
      <point x="223" y="759" type="line"/>
      <point x="575" y="759" type="line"/>
      <point x="704" y="732" type="line"/>
      <point x="696" y="690" type="line" smooth="yes"/>
      <point x="694" y="676"/>
      <point x="701" y="658"/>
      <point x="712" y="650" type="curve" smooth="yes"/>
      <point x="824" y="567" type="line" smooth="yes"/>
      <point x="842" y="554"/>
      <point x="867" y="558"/>
      <point x="880" y="575" type="curve" smooth="yes"/>
      <point x="893" y="593"/>
      <point x="889" y="618"/>
      <point x="872" y="631" type="curve" smooth="yes"/>
      <point x="779" y="700" type="line"/>
      <point x="790" y="756" type="line" smooth="yes"/>
      <point x="793" y="777"/>
      <point x="779" y="798"/>
      <point x="758" y="802" type="curve" smooth="yes"/>
      <point x="587" y="838" type="line" smooth="yes"/>
      <point x="585" y="839"/>
      <point x="581" y="839"/>
      <point x="579" y="839" type="curve" smooth="yes"/>
      <point x="129" y="839" type="line" smooth="yes"/>
      <point x="91" y="839"/>
      <point x="74" y="799"/>
      <point x="100" y="771" type="curve" smooth="yes"/>
      <point x="191" y="676" type="line"/>
      <point x="221" y="609" type="line"/>
      <point x="130" y="529" type="line" smooth="yes"/>
      <point x="114" y="515"/>
      <point x="112" y="490"/>
      <point x="127" y="473" type="curve" smooth="yes"/>
      <point x="199" y="387" type="line"/>
      <point x="187" y="322" type="line"/>
      <point x="67" y="231" type="line" smooth="yes"/>
      <point x="43" y="213"/>
      <point x="44" y="182"/>
      <point x="69" y="166" type="curve" smooth="yes"/>
      <point x="185" y="88" type="line"/>
      <point x="141" y="21" type="line" smooth="yes"/>
      <point x="121" y="-8"/>
      <point x="139" y="-41"/>
    </contour>
  </outline>
</glyph>
<glyph name="E" format="1">
  <advance width="874"/>
  <unicode hex="0045"/>
  <outline>
    <contour>
      <point x="359" y="-40" type="curve" smooth="yes"/>
      <point x="523" y="-40" type="line" smooth="yes"/>
      <point x="545" y="-40"/>
      <point x="563" y="-22"/>
      <point x="563" y="0" type="curve" smooth="yes"/>
      <point x="563" y="22"/>
      <point x="545" y="40"/>
      <point x="523" y="40" type="curve" smooth="yes"/>
      <point x="360" y="40" type="line"/>
      <point x="285" y="46" type="line"/>
      <point x="180" y="80" type="line"/>
      <point x="235" y="179" type="line" smooth="yes"/>
      <point x="242" y="191"/>
      <point x="241" y="210"/>
      <point x="232" y="222" type="curve" smooth="yes"/>
      <point x="164" y="312" type="line"/>
      <point x="218" y="343" type="line"/>
      <point x="308" y="357" type="line"/>
      <point x="409" y="359" type="line"/>
      <point x="494" y="361" type="line" smooth="yes"/>
      <point x="546" y="362"/>
      <point x="545" y="441"/>
      <point x="493" y="441" type="curve" smooth="yes"/>
      <point x="358" y="442" type="line"/>
      <point x="353" y="447"/>
      <point x="346" y="452"/>
      <point x="337" y="455" type="curve" smooth="yes"/>
      <point x="192" y="497" type="line"/>
      <point x="233" y="580" type="line" smooth="yes"/>
      <point x="241" y="596"/>
      <point x="236" y="618"/>
      <point x="222" y="629" type="curve" smooth="yes"/>
      <point x="161" y="677" type="line"/>
      <point x="244" y="726" type="line"/>
      <point x="352" y="760" type="line"/>
      <point x="453" y="760" type="line"/>
      <point x="647" y="755" type="line"/>
      <point x="649" y="740" type="line"/>
      <point x="649" y="602" type="line" smooth="yes"/>
      <point x="649" y="580"/>
      <point x="667" y="562"/>
      <point x="689" y="562" type="curve" smooth="yes"/>
      <point x="711" y="562"/>
      <point x="729" y="580"/>
      <point x="729" y="602" type="curve" smooth="yes"/>
      <point x="729" y="744" type="line" smooth="yes"/>
      <point x="729" y="745"/>
      <point x="729" y="748"/>
      <point x="729" y="750" type="curve" smooth="yes"/>
      <point x="720" y="801" type="line" smooth="yes"/>
      <point x="717" y="818"/>
      <point x="700" y="833"/>
      <point x="682" y="834" type="curve" smooth="yes"/>
      <point x="497" y="839" type="line"/>
      <point x="497" y="840" type="line"/>
      <point x="346" y="840" type="line" smooth="yes"/>
      <point x="343" y="840"/>
      <point x="337" y="839"/>
      <point x="334" y="838" type="curve" smooth="yes"/>
      <point x="216" y="801" type="line" smooth="yes"/>
      <point x="213" y="801"/>
      <point x="209" y="799"/>
      <point x="207" y="797" type="curve" smooth="yes"/>
      <point x="71" y="716" type="line" smooth="yes"/>
      <point x="45" y="700"/>
      <point x="43" y="669"/>
      <point x="66" y="650" type="curve" smooth="yes"/>
      <point x="147" y="587" type="line"/>
      <point x="99" y="490" type="line" smooth="yes"/>
      <point x="87" y="466"/>
      <point x="98" y="441"/>
      <point x="123" y="433" type="curve" smooth="yes"/>
      <point x="184" y="416" type="line"/>
      <point x="85" y="359" type="line" smooth="yes"/>
      <point x="64" y="347"/>
      <point x="58" y="321"/>
      <point x="73" y="301" type="curve" smooth="yes"/>
      <point x="152" y="195" type="line"/>
      <point x="86" y="76" type="line" smooth="yes"/>
      <point x="73" y="53"/>
      <point x="84" y="26"/>
      <point x="109" y="18" type="curve" smooth="yes"/>
      <point x="265" y="-32" type="line" smooth="yes"/>
      <point x="267" y="-33"/>
      <point x="271" y="-33"/>
      <point x="274" y="-34" type="curve" smooth="yes"/>
      <point x="355" y="-40" type="line" smooth="yes"/>
      <point x="356" y="-40"/>
      <point x="358" y="-40"/>
    </contour>
    <contour>
      <point x="631" y="-37" type="curve" smooth="yes"/>
      <point x="713" y="-2" type="line" smooth="yes"/>
      <point x="725" y="3"/>
      <point x="735" y="17"/>
      <point x="737" y="29" type="curve" smooth="yes"/>
      <point x="747" y="96" type="line"/>
      <point x="814" y="169" type="line" smooth="yes"/>
      <point x="828" y="185"/>
      <point x="827" y="211"/>
      <point x="811" y="226" type="curve" smooth="yes"/>
      <point x="795" y="240"/>
      <point x="769" y="239"/>
      <point x="754" y="223" type="curve" smooth="yes"/>
      <point x="680" y="141" type="line" smooth="yes"/>
      <point x="676" y="136"/>
      <point x="671" y="127"/>
      <point x="670" y="120" type="curve" smooth="yes"/>
      <point x="661" y="63" type="line"/>
      <point x="599" y="37" type="line" smooth="yes"/>
      <point x="579" y="28"/>
      <point x="570" y="4"/>
      <point x="578" y="-16" type="curve" smooth="yes"/>
      <point x="587" y="-36"/>
      <point x="611" y="-45"/>
    </contour>
  </outline>
</glyph>
<glyph name="F" format="1">
  <advance width="729"/>
  <unicode hex="0046"/>
  <outline>
    <contour>
      <point x="138" y="-9" type="curve" smooth="yes"/>
      <point x="161" y="86" type="line"/>
      <point x="202" y="182" type="line" smooth="yes"/>
      <point x="204" y="188"/>
      <point x="205" y="198"/>
      <point x="205" y="204" type="curve" smooth="yes"/>
      <point x="190" y="301" type="line"/>
      <point x="277" y="346" type="line" smooth="yes"/>
      <point x="283" y="349"/>
      <point x="288" y="353"/>
      <point x="292" y="358" type="curve"/>
      <point x="383" y="359" type="line"/>
      <point x="471" y="360" type="line"/>
      <point x="504" y="361" type="line" smooth="yes"/>
      <point x="556" y="363"/>
      <point x="555" y="441"/>
      <point x="503" y="441" type="curve" smooth="yes"/>
      <point x="333" y="443" type="line"/>
      <point x="270" y="453" type="line"/>
      <point x="264" y="481" type="line" smooth="yes"/>
      <point x="263" y="488"/>
      <point x="257" y="497"/>
      <point x="252" y="502" type="curve" smooth="yes"/>
      <point x="135" y="611" type="line"/>
      <point x="151" y="671" type="line" smooth="yes"/>
      <point x="151" y="673"/>
      <point x="152" y="677"/>
      <point x="152" y="679" type="curve" smooth="yes"/>
      <point x="155" y="731" type="line"/>
      <point x="284" y="760" type="line"/>
      <point x="490" y="760" type="line"/>
      <point x="564" y="756" type="line"/>
      <point x="568" y="735" type="line"/>
      <point x="600" y="593" type="line" smooth="yes"/>
      <point x="605" y="572"/>
      <point x="627" y="558"/>
      <point x="648" y="563" type="curve" smooth="yes"/>
      <point x="669" y="568"/>
      <point x="683" y="590"/>
      <point x="678" y="611" type="curve" smooth="yes"/>
      <point x="646" y="752" type="line"/>
      <point x="637" y="801" type="line" smooth="yes"/>
      <point x="633" y="818"/>
      <point x="617" y="833"/>
      <point x="600" y="834" type="curve" smooth="yes"/>
      <point x="494" y="840" type="line"/>
      <point x="402" y="840" type="line"/>
      <point x="280" y="840" type="line" smooth="yes"/>
      <point x="278" y="840"/>
      <point x="274" y="840"/>
      <point x="271" y="839" type="curve" smooth="yes"/>
      <point x="109" y="802" type="line" smooth="yes"/>
      <point x="92" y="799"/>
      <point x="79" y="782"/>
      <point x="78" y="766" type="curve" smooth="yes"/>
      <point x="73" y="688" type="line"/>
      <point x="51" y="608" type="line" smooth="yes"/>
      <point x="48" y="595"/>
      <point x="53" y="578"/>
      <point x="63" y="569" type="curve" smooth="yes"/>
      <point x="188" y="452" type="line"/>
      <point x="198" y="409" type="line" smooth="yes"/>
      <point x="198" y="405"/>
      <point x="200" y="401"/>
      <point x="202" y="397" type="curve"/>
      <point x="128" y="359" type="line" smooth="yes"/>
      <point x="113" y="352"/>
      <point x="104" y="334"/>
      <point x="106" y="318" type="curve" smooth="yes"/>
      <point x="124" y="203" type="line"/>
      <point x="86" y="115" type="line" smooth="yes"/>
      <point x="85" y="113"/>
      <point x="84" y="110"/>
      <point x="84" y="108" type="curve" smooth="yes"/>
      <point x="60" y="9" type="line" smooth="yes"/>
      <point x="55" y="-12"/>
      <point x="69" y="-34"/>
      <point x="90" y="-39" type="curve" smooth="yes"/>
      <point x="111" y="-44"/>
      <point x="133" y="-30"/>
    </contour>
  </outline>
</glyph>
<glyph name="G" format="1">
  <advance width="887"/>
  <unicode hex="0047"/>
  <outline>
    <contour>
      <point x="413" y="-36" type="curve" smooth="yes"/>
      <point x="665" y="-36" type="line" smooth="yes"/>
      <point x="669" y="-36"/>
      <point x="676" y="-35"/>
      <point x="680" y="-33" type="curve" smooth="yes"/>
      <point x="768" y="3" type="line" smooth="yes"/>
      <point x="789" y="12"/>
      <point x="798" y="36"/>
      <point x="789" y="57" type="curve" smooth="yes"/>
      <point x="752" y="137" type="line"/>
      <point x="719" y="205" type="line"/>
      <point x="754" y="289" type="line" smooth="yes"/>
      <point x="757" y="296"/>
      <point x="758" y="307"/>
      <point x="756" y="315" type="curve" smooth="yes"/>
      <point x="742" y="364" type="line"/>
      <point x="758" y="364" type="line"/>
      <point x="758" y="444" type="line"/>
      <point x="536" y="444" type="line"/>
      <point x="436" y="465" type="line"/>
      <point x="463" y="493" type="line" smooth="yes"/>
      <point x="482" y="513"/>
      <point x="477" y="543"/>
      <point x="453" y="556" type="curve" smooth="yes"/>
      <point x="297" y="639" type="line" smooth="yes"/>
      <point x="278" y="649"/>
      <point x="253" y="642"/>
      <point x="243" y="623" type="curve" smooth="yes"/>
      <point x="233" y="604"/>
      <point x="240" y="579"/>
      <point x="259" y="569" type="curve" smooth="yes"/>
      <point x="369" y="510" type="line"/>
      <point x="329" y="467" type="line" smooth="yes"/>
      <point x="306" y="443"/>
      <point x="317" y="408"/>
      <point x="350" y="401" type="curve" smooth="yes"/>
      <point x="524" y="365" type="line" smooth="yes"/>
      <point x="526" y="364"/>
      <point x="530" y="364"/>
      <point x="532" y="364" type="curve" smooth="yes"/>
      <point x="659" y="364" type="line"/>
      <point x="675" y="307" type="line"/>
      <point x="638" y="219" type="line" smooth="yes"/>
      <point x="634" y="210"/>
      <point x="635" y="195"/>
      <point x="639" y="186" type="curve" smooth="yes"/>
      <point x="679" y="104" type="line"/>
      <point x="699" y="61" type="line"/>
      <point x="657" y="44" type="line"/>
      <point x="419" y="44" type="line"/>
      <point x="302" y="78" type="line"/>
      <point x="152" y="150" type="line"/>
      <point x="134" y="200" type="line"/>
      <point x="179" y="282" type="line"/>
      <point x="243" y="382" type="line" smooth="yes"/>
      <point x="252" y="397"/>
      <point x="250" y="420"/>
      <point x="237" y="432" type="curve" smooth="yes"/>
      <point x="149" y="520" type="line"/>
      <point x="153" y="602" type="line" smooth="yes"/>
      <point x="153" y="605"/>
      <point x="153" y="610"/>
      <point x="152" y="613" type="curve" smooth="yes"/>
      <point x="139" y="668" type="line"/>
      <point x="237" y="730" type="line"/>
      <point x="410" y="764" type="line"/>
      <point x="628" y="764" type="line"/>
      <point x="634" y="756" type="line"/>
      <point x="630" y="690" type="line" smooth="yes"/>
      <point x="629" y="677"/>
      <point x="637" y="661"/>
      <point x="648" y="654" type="curve" smooth="yes"/>
      <point x="776" y="570" type="line" smooth="yes"/>
      <point x="794" y="559"/>
      <point x="820" y="564"/>
      <point x="832" y="582" type="curve" smooth="yes"/>
      <point x="843" y="600"/>
      <point x="838" y="626"/>
      <point x="820" y="638" type="curve" smooth="yes"/>
      <point x="711" y="708" type="line"/>
      <point x="715" y="765" type="line" smooth="yes"/>
      <point x="716" y="773"/>
      <point x="712" y="785"/>
      <point x="707" y="792" type="curve" smooth="yes"/>
      <point x="680" y="828" type="line" smooth="yes"/>
      <point x="673" y="837"/>
      <point x="659" y="844"/>
      <point x="648" y="844" type="curve" smooth="yes"/>
      <point x="406" y="844" type="line" smooth="yes"/>
      <point x="404" y="844"/>
      <point x="400" y="844"/>
      <point x="398" y="843" type="curve" smooth="yes"/>
      <point x="214" y="807" type="line" smooth="yes"/>
      <point x="210" y="806"/>
      <point x="204" y="804"/>
      <point x="200" y="801" type="curve" smooth="yes"/>
      <point x="73" y="721" type="line" smooth="yes"/>
      <point x="60" y="712"/>
      <point x="52" y="693"/>
      <point x="55" y="678" type="curve" smooth="yes"/>
      <point x="73" y="601" type="line"/>
      <point x="68" y="506" type="line" smooth="yes"/>
      <point x="68" y="496"/>
      <point x="73" y="483"/>
      <point x="80" y="476" type="curve" smooth="yes"/>
      <point x="158" y="398" type="line"/>
      <point x="111" y="326" type="line"/>
      <point x="55" y="223" type="line" smooth="yes"/>
      <point x="50" y="215"/>
      <point x="49" y="200"/>
      <point x="52" y="191" type="curve" smooth="yes"/>
      <point x="82" y="107" type="line" smooth="yes"/>
      <point x="85" y="99"/>
      <point x="94" y="88"/>
      <point x="102" y="85" type="curve" smooth="yes"/>
      <point x="271" y="4" type="line" smooth="yes"/>
      <point x="272" y="3"/>
      <point x="275" y="2"/>
      <point x="277" y="2" type="curve" smooth="yes"/>
      <point x="402" y="-34" type="line" smooth="yes"/>
      <point x="405" y="-35"/>
      <point x="410" y="-36"/>
    </contour>
  </outline>
</glyph>
<glyph name="H" format="1">
  <advance width="974"/>
  <unicode hex="0048"/>
  <outline>
    <contour>
      <point x="806" y="614" type="line"/>
      <point x="799" y="620" type="line"/>
      <point x="773" y="689" type="line"/>
      <point x="793" y="673" type="line"/>
    </contour>
    <contour>
      <point x="117" y="-34" type="curve" smooth="yes"/>
      <point x="230" y="66" type="line" smooth="yes"/>
      <point x="241" y="77"/>
      <point x="246" y="97"/>
      <point x="240" y="111" type="curve" smooth="yes"/>
      <point x="198" y="211" type="line" smooth="yes"/>
      <point x="197" y="213"/>
      <point x="196" y="215"/>
      <point x="195" y="217" type="curve" smooth="yes"/>
      <point x="170" y="258" type="line"/>
      <point x="341" y="321" type="line"/>
      <point x="487" y="356" type="line"/>
      <point x="516" y="356" type="line" smooth="yes"/>
      <point x="518" y="356"/>
      <point x="522" y="356"/>
      <point x="524" y="357" type="curve" smooth="yes"/>
      <point x="658" y="383" type="line"/>
      <point x="660" y="377"/>
      <point x="664" y="371"/>
      <point x="669" y="366" type="curve" smooth="yes"/>
      <point x="776" y="269" type="line"/>
      <point x="821" y="206" type="line"/>
      <point x="708" y="129" type="line" smooth="yes"/>
      <point x="703" y="125"/>
      <point x="697" y="118"/>
      <point x="694" y="112" type="curve" smooth="yes"/>
      <point x="651" y="12" type="line" smooth="yes"/>
      <point x="643" y="-8"/>
      <point x="652" y="-32"/>
      <point x="672" y="-41" type="curve" smooth="yes"/>
      <point x="692" y="-49"/>
      <point x="716" y="-40"/>
      <point x="725" y="-20" type="curve" smooth="yes"/>
      <point x="763" y="70" type="line"/>
      <point x="900" y="163" type="line" smooth="yes"/>
      <point x="918" y="176"/>
      <point x="923" y="201"/>
      <point x="910" y="219" type="curve" smooth="yes"/>
      <point x="839" y="319" type="line" smooth="yes"/>
      <point x="837" y="321"/>
      <point x="835" y="324"/>
      <point x="833" y="326" type="curve" smooth="yes"/>
      <point x="765" y="387" type="line"/>
      <point x="902" y="461" type="line" smooth="yes"/>
      <point x="929" y="475"/>
      <point x="932" y="507"/>
      <point x="909" y="527" type="curve" smooth="yes"/>
      <point x="878" y="552" type="line"/>
      <point x="889" y="583" type="line" smooth="yes"/>
      <point x="891" y="589"/>
      <point x="891" y="599"/>
      <point x="890" y="605" type="curve" smooth="yes"/>
      <point x="868" y="705" type="line" smooth="yes"/>
      <point x="866" y="712"/>
      <point x="859" y="723"/>
      <point x="853" y="727" type="curve" smooth="yes"/>
      <point x="727" y="827" type="line" smooth="yes"/>
      <point x="694" y="853"/>
      <point x="653" y="826"/>
      <point x="663" y="786" type="curve" smooth="yes"/>
      <point x="689" y="686" type="line" smooth="yes"/>
      <point x="690" y="685"/>
      <point x="690" y="683"/>
      <point x="690" y="682" type="curve" smooth="yes"/>
      <point x="727" y="582" type="line" smooth="yes"/>
      <point x="729" y="577"/>
      <point x="735" y="569"/>
      <point x="739" y="565" type="curve" smooth="yes"/>
      <point x="779" y="532" type="line"/>
      <point x="685" y="470" type="line"/>
      <point x="512" y="436" type="line"/>
      <point x="482" y="436" type="line" smooth="yes"/>
      <point x="479" y="436"/>
      <point x="475" y="436"/>
      <point x="473" y="435" type="curve" smooth="yes"/>
      <point x="320" y="399" type="line" smooth="yes"/>
      <point x="319" y="398"/>
      <point x="317" y="398"/>
      <point x="316" y="397" type="curve" smooth="yes"/>
      <point x="153" y="337" type="line"/>
      <point x="162" y="371" type="line"/>
      <point x="296" y="463" type="line" smooth="yes"/>
      <point x="314" y="476"/>
      <point x="319" y="501"/>
      <point x="305" y="519" type="curve" smooth="yes"/>
      <point x="233" y="619" type="line"/>
      <point x="180" y="690" type="line"/>
      <point x="272" y="765" type="line" smooth="yes"/>
      <point x="289" y="779"/>
      <point x="292" y="805"/>
      <point x="278" y="821" type="curve" smooth="yes"/>
      <point x="264" y="838"/>
      <point x="238" y="841"/>
      <point x="222" y="827" type="curve" smooth="yes"/>
      <point x="100" y="727" type="line" smooth="yes"/>
      <point x="83" y="713"/>
      <point x="80" y="689"/>
      <point x="93" y="672" type="curve" smooth="yes"/>
      <point x="169" y="573" type="line"/>
      <point x="217" y="506" type="line"/>
      <point x="104" y="429" type="line" smooth="yes"/>
      <point x="98" y="424"/>
      <point x="91" y="414"/>
      <point x="88" y="406" type="curve" smooth="yes"/>
      <point x="61" y="306" type="line" smooth="yes"/>
      <point x="59" y="297"/>
      <point x="61" y="283"/>
      <point x="66" y="275" type="curve" smooth="yes"/>
      <point x="73" y="264" type="line"/>
      <point x="90" y="198" type="line"/>
      <point x="55" y="111" type="line" smooth="yes"/>
      <point x="54" y="107"/>
      <point x="53" y="101"/>
      <point x="53" y="97" type="curve" smooth="yes"/>
      <point x="50" y="-3" type="line" smooth="yes"/>
      <point x="49" y="-41"/>
      <point x="88" y="-59"/>
    </contour>
    <contour>
      <point x="132" y="87" type="line"/>
      <point x="132" y="88" type="line"/>
      <point x="147" y="126" type="line"/>
      <point x="155" y="107" type="line"/>
    </contour>
  </outline>
</glyph>
<glyph name="I" format="1">
  <advance width="786"/>
  <unicode hex="0049"/>
  <outline>
    <contour>
      <point x="506" y="-41" type="line" smooth="yes"/>
      <point x="551" y="-41"/>
      <point x="564" y="15"/>
      <point x="523" y="35" type="curve" smooth="yes"/>
      <point x="492" y="50" type="line" smooth="yes"/>
      <point x="490" y="51"/>
      <point x="488" y="52"/>
      <point x="486" y="52" type="curve" smooth="yes"/>
      <point x="382" y="85" type="line"/>
      <point x="423" y="183" type="line" smooth="yes"/>
      <point x="430" y="198"/>
      <point x="424" y="220"/>
      <point x="410" y="230" type="curve" smooth="yes"/>
      <point x="305" y="309" type="line"/>
      <point x="346" y="375" type="line"/>
      <point x="429" y="474" type="line" smooth="yes"/>
      <point x="439" y="486"/>
      <point x="440" y="508"/>
      <point x="432" y="521" type="curve" smooth="yes"/>
      <point x="371" y="615" type="line"/>
      <point x="351" y="745" type="line" smooth="yes"/>
      <point x="351" y="750"/>
      <point x="349" y="755"/>
      <point x="346" y="759" type="curve"/>
      <point x="696" y="759" type="line" smooth="yes"/>
      <point x="718" y="759"/>
      <point x="736" y="777"/>
      <point x="736" y="799" type="curve" smooth="yes"/>
      <point x="736" y="821"/>
      <point x="718" y="839"/>
      <point x="696" y="839" type="curve" smooth="yes"/>
      <point x="126" y="839" type="line" smooth="yes"/>
      <point x="98" y="839"/>
      <point x="80" y="815"/>
      <point x="88" y="788" type="curve" smooth="yes"/>
      <point x="91" y="774" type="line" smooth="yes"/>
      <point x="95" y="762"/>
      <point x="108" y="749"/>
      <point x="120" y="746" type="curve" smooth="yes"/>
      <point x="276" y="707" type="line"/>
      <point x="293" y="594" type="line" smooth="yes"/>
      <point x="294" y="589"/>
      <point x="297" y="582"/>
      <point x="299" y="578" type="curve" smooth="yes"/>
      <point x="348" y="503" type="line"/>
      <point x="283" y="425" type="line" smooth="yes"/>
      <point x="282" y="423"/>
      <point x="281" y="422"/>
      <point x="280" y="420" type="curve" smooth="yes"/>
      <point x="217" y="320" type="line" smooth="yes"/>
      <point x="206" y="302"/>
      <point x="211" y="279"/>
      <point x="227" y="266" type="curve" smooth="yes"/>
      <point x="337" y="185" type="line"/>
      <point x="291" y="75" type="line" smooth="yes"/>
      <point x="286" y="62"/>
      <point x="287" y="49"/>
      <point x="294" y="39" type="curve"/>
      <point x="50" y="39" type="line"/>
      <point x="50" y="-41" type="line"/>
    </contour>
  </outline>
</glyph>
<glyph name="J" format="1">
  <advance width="694"/>
  <unicode hex="004A"/>
  <outline>
    <contour>
      <point x="90" y="-41" type="curve" smooth="yes"/>
      <point x="251" y="-41" type="line" smooth="yes"/>
      <point x="255" y="-41"/>
      <point x="261" y="-40"/>
      <point x="265" y="-38" type="curve" smooth="yes"/>
      <point x="360" y="-3" type="line" smooth="yes"/>
      <point x="362" y="-2"/>
      <point x="366" y="0"/>
      <point x="368" y="1" type="curve" smooth="yes"/>
      <point x="490" y="81" type="line" smooth="yes"/>
      <point x="516" y="98"/>
      <point x="516" y="131"/>
      <point x="490" y="148" type="curve" smooth="yes"/>
      <point x="372" y="226" type="line"/>
      <point x="337" y="286" type="line"/>
      <point x="460" y="365" type="line" smooth="yes"/>
      <point x="482" y="380"/>
      <point x="485" y="409"/>
      <point x="466" y="427" type="curve" smooth="yes"/>
      <point x="396" y="496" type="line"/>
      <point x="486" y="569" type="line" smooth="yes"/>
      <point x="503" y="583"/>
      <point x="506" y="608"/>
      <point x="492" y="625" type="curve" smooth="yes"/>
      <point x="382" y="759" type="line"/>
      <point x="644" y="759" type="line"/>
      <point x="644" y="839" type="line"/>
      <point x="193" y="839" type="line" smooth="yes"/>
      <point x="143" y="839"/>
      <point x="137" y="768"/>
      <point x="186" y="760" type="curve" smooth="yes"/>
      <point x="254" y="748" type="line"/>
      <point x="320" y="709" type="line"/>
      <point x="404" y="606" type="line"/>
      <point x="311" y="531" type="line" smooth="yes"/>
      <point x="292" y="515"/>
      <point x="290" y="488"/>
      <point x="308" y="471" type="curve" smooth="yes"/>
      <point x="374" y="405" type="line"/>
      <point x="261" y="332" type="line" smooth="yes"/>
      <point x="244" y="321"/>
      <point x="238" y="296"/>
      <point x="249" y="278" type="curve" smooth="yes"/>
      <point x="308" y="178" type="line" smooth="yes"/>
      <point x="310" y="173"/>
      <point x="316" y="167"/>
      <point x="320" y="165" type="curve" smooth="yes"/>
      <point x="395" y="115" type="line"/>
      <point x="327" y="71" type="line"/>
      <point x="244" y="39" type="line"/>
      <point x="90" y="39" type="line" smooth="yes"/>
      <point x="68" y="39"/>
      <point x="50" y="21"/>
      <point x="50" y="-1" type="curve" smooth="yes"/>
      <point x="50" y="-23"/>
      <point x="68" y="-41"/>
    </contour>
  </outline>
</glyph>
<glyph name="K" format="1">
  <advance width="971"/>
  <unicode hex="004B"/>
  <outline>
    <contour>
      <point x="843" y="-19" type="curve" smooth="yes"/>
      <point x="914" y="82" type="line" smooth="yes"/>
      <point x="926" y="99"/>
      <point x="922" y="123"/>
      <point x="906" y="136" type="curve" smooth="yes"/>
      <point x="804" y="218" type="line"/>
      <point x="853" y="332" type="line" smooth="yes"/>
      <point x="864" y="355"/>
      <point x="851" y="381"/>
      <point x="826" y="386" type="curve" smooth="yes"/>
      <point x="767" y="400" type="line"/>
      <point x="768" y="400" type="line" smooth="yes"/>
      <point x="775" y="401"/>
      <point x="785" y="406"/>
      <point x="791" y="412" type="curve" smooth="yes"/>
      <point x="872" y="492" type="line" smooth="yes"/>
      <point x="891" y="511"/>
      <point x="887" y="540"/>
      <point x="865" y="555" type="curve" smooth="yes"/>
      <point x="771" y="613" type="line"/>
      <point x="829" y="677" type="line" smooth="yes"/>
      <point x="831" y="680"/>
      <point x="834" y="684"/>
      <point x="836" y="687" type="curve" smooth="yes"/>
      <point x="883" y="787" type="line" smooth="yes"/>
      <point x="892" y="806"/>
      <point x="884" y="831"/>
      <point x="864" y="840" type="curve" smooth="yes"/>
      <point x="845" y="849"/>
      <point x="820" y="841"/>
      <point x="811" y="821" type="curve" smooth="yes"/>
      <point x="766" y="726" type="line"/>
      <point x="680" y="631" type="line" smooth="yes"/>
      <point x="663" y="611"/>
      <point x="667" y="584"/>
      <point x="689" y="570" type="curve" smooth="yes"/>
      <point x="779" y="513" type="line"/>
      <point x="744" y="478" type="line"/>
      <point x="492" y="444" type="line"/>
      <point x="461" y="444" type="line" smooth="yes"/>
      <point x="459" y="444"/>
      <point x="456" y="444"/>
      <point x="454" y="443" type="curve" smooth="yes"/>
      <point x="261" y="407" type="line" smooth="yes"/>
      <point x="241" y="403"/>
      <point x="227" y="384"/>
      <point x="229" y="364" type="curve" smooth="yes"/>
      <point x="234" y="291" type="line"/>
      <point x="216" y="231" type="line"/>
      <point x="150" y="312" type="line"/>
      <point x="175" y="392" type="line" smooth="yes"/>
      <point x="178" y="400"/>
      <point x="177" y="413"/>
      <point x="173" y="421" type="curve" smooth="yes"/>
      <point x="136" y="501" type="line"/>
      <point x="189" y="580" type="line"/>
      <point x="274" y="678" type="line" smooth="yes"/>
      <point x="289" y="694"/>
      <point x="287" y="720"/>
      <point x="270" y="734" type="curve" smooth="yes"/>
      <point x="154" y="834" type="line" smooth="yes"/>
      <point x="138" y="848"/>
      <point x="112" y="846"/>
      <point x="98" y="830" type="curve" smooth="yes"/>
      <point x="84" y="814"/>
      <point x="86" y="788"/>
      <point x="102" y="774" type="curve" smooth="yes"/>
      <point x="187" y="700" type="line"/>
      <point x="127" y="630" type="line" smooth="yes"/>
      <point x="126" y="629"/>
      <point x="125" y="627"/>
      <point x="124" y="626" type="curve" smooth="yes"/>
      <point x="57" y="526" type="line" smooth="yes"/>
      <point x="50" y="516"/>
      <point x="48" y="498"/>
      <point x="54" y="487" type="curve" smooth="yes"/>
      <point x="94" y="401" type="line"/>
      <point x="68" y="316" type="line" smooth="yes"/>
      <point x="64" y="305"/>
      <point x="67" y="288"/>
      <point x="75" y="279" type="curve" smooth="yes"/>
      <point x="144" y="193" type="line"/>
      <point x="141" y="177" type="line"/>
      <point x="84" y="137" type="line" smooth="yes"/>
      <point x="49" y="112"/>
      <point x="64" y="64"/>
      <point x="106" y="64" type="curve" smooth="yes"/>
      <point x="170" y="64" type="line" smooth="yes"/>
      <point x="189" y="64"/>
      <point x="207" y="79"/>
      <point x="209" y="98" type="curve" smooth="yes"/>
      <point x="215" y="131" type="line"/>
      <point x="272" y="171" type="line" smooth="yes"/>
      <point x="278" y="176"/>
      <point x="285" y="185"/>
      <point x="287" y="192" type="curve" smooth="yes"/>
      <point x="313" y="275" type="line" smooth="yes"/>
      <point x="314" y="279"/>
      <point x="315" y="286"/>
      <point x="315" y="290" type="curve" smooth="yes"/>
      <point x="311" y="335" type="line"/>
      <point x="465" y="364" type="line"/>
      <point x="494" y="364" type="line"/>
      <point x="499" y="364"/>
      <point x="497" y="364"/>
      <point x="496" y="364" type="curve"/>
      <point x="510" y="364" type="line"/>
      <point x="598" y="358" type="line"/>
      <point x="761" y="320" type="line"/>
      <point x="718" y="222" type="line" smooth="yes"/>
      <point x="712" y="206"/>
      <point x="717" y="185"/>
      <point x="730" y="175" type="curve" smooth="yes"/>
      <point x="827" y="97" type="line"/>
      <point x="777" y="27" type="line" smooth="yes"/>
      <point x="765" y="9"/>
      <point x="769" y="-16"/>
      <point x="787" y="-29" type="curve" smooth="yes"/>
      <point x="805" y="-41"/>
      <point x="830" y="-37"/>
    </contour>
  </outline>
</glyph>
<glyph name="L" format="1">
  <advance width="843"/>
  <unicode hex="004C"/>
  <outline>
    <contour>
      <point x="357" y="-40" type="curve" smooth="yes"/>
      <point x="753" y="-40" type="line" smooth="yes"/>
      <point x="775" y="-40"/>
      <point x="793" y="-22"/>
      <point x="793" y="0" type="curve" smooth="yes"/>
      <point x="793" y="22"/>
      <point x="775" y="40"/>
      <point x="753" y="40" type="curve" smooth="yes"/>
      <point x="358" y="40" type="line"/>
      <point x="275" y="44" type="line"/>
      <point x="278" y="50"/>
      <point x="279" y="64"/>
      <point x="276" y="72" type="curve" smooth="yes"/>
      <point x="229" y="197" type="line"/>
      <point x="272" y="282" type="line" smooth="yes"/>
      <point x="282" y="299"/>
      <point x="276" y="322"/>
      <point x="260" y="333" type="curve" smooth="yes"/>
      <point x="149" y="409" type="line"/>
      <point x="203" y="475" type="line" smooth="yes"/>
      <point x="214" y="489"/>
      <point x="214" y="511"/>
      <point x="203" y="525" type="curve" smooth="yes"/>
      <point x="148" y="593" type="line"/>
      <point x="251" y="668" type="line" smooth="yes"/>
      <point x="274" y="684"/>
      <point x="275" y="713"/>
      <point x="254" y="731" type="curve" smooth="yes"/>
      <point x="135" y="831" type="line" smooth="yes"/>
      <point x="118" y="845"/>
      <point x="92" y="842"/>
      <point x="78" y="826" type="curve" smooth="yes"/>
      <point x="64" y="809"/>
      <point x="67" y="783"/>
      <point x="83" y="769" type="curve" smooth="yes"/>
      <point x="163" y="702" type="line"/>
      <point x="67" y="632" type="line" smooth="yes"/>
      <point x="48" y="619"/>
      <point x="44" y="593"/>
      <point x="59" y="575" type="curve" smooth="yes"/>
      <point x="120" y="500" type="line"/>
      <point x="60" y="425" type="line" smooth="yes"/>
      <point x="45" y="407"/>
      <point x="49" y="380"/>
      <point x="68" y="367" type="curve" smooth="yes"/>
      <point x="185" y="287" type="line"/>
      <point x="150" y="218" type="line" smooth="yes"/>
      <point x="145" y="210"/>
      <point x="144" y="195"/>
      <point x="148" y="186" type="curve" smooth="yes"/>
      <point x="195" y="60" type="line"/>
      <point x="178" y="24" type="line" smooth="yes"/>
      <point x="166" y="-4"/>
      <point x="182" y="-32"/>
      <point x="213" y="-33" type="curve" smooth="yes"/>
      <point x="355" y="-40" type="line" smooth="yes"/>
      <point x="356" y="-40"/>
      <point x="356" y="-40"/>
    </contour>
  </outline>
</glyph>
<glyph name="M" format="1">
  <advance width="938"/>
  <unicode hex="004D"/>
  <outline>
    <contour>
      <point x="167" y="-12" type="curve" smooth="yes"/>
      <point x="192" y="79" type="line"/>
      <point x="280" y="171" type="line" smooth="yes"/>
      <point x="288" y="180"/>
      <point x="292" y="196"/>
      <point x="290" y="207" type="curve" smooth="yes"/>
      <point x="270" y="305" type="line"/>
      <point x="254" y="405" type="line" smooth="yes"/>
      <point x="254" y="407"/>
      <point x="253" y="411"/>
      <point x="253" y="413" type="curve" smooth="yes"/>
      <point x="216" y="513" type="line" smooth="yes"/>
      <point x="214" y="517"/>
      <point x="211" y="522"/>
      <point x="208" y="526" type="curve" smooth="yes"/>
      <point x="137" y="605" type="line"/>
      <point x="176" y="683" type="line"/>
      <point x="208" y="759" type="line"/>
      <point x="271" y="759" type="line"/>
      <point x="332" y="753" type="line"/>
      <point x="400" y="722" type="line"/>
      <point x="401" y="720" type="line" smooth="yes"/>
      <point x="478" y="590" type="line"/>
      <point x="477" y="574" type="line"/>
      <point x="428" y="528" type="line" smooth="yes"/>
      <point x="418" y="519"/>
      <point x="413" y="501"/>
      <point x="417" y="488" type="curve" smooth="yes"/>
      <point x="428" y="449" type="line"/>
      <point x="409" y="422" type="line" smooth="yes"/>
      <point x="390" y="393"/>
      <point x="407" y="359"/>
      <point x="442" y="359" type="curve" smooth="yes"/>
      <point x="484" y="359" type="line" smooth="yes"/>
      <point x="512" y="359"/>
      <point x="530" y="383"/>
      <point x="522" y="410" type="curve" smooth="yes"/>
      <point x="515" y="435" type="line"/>
      <point x="544" y="476" type="line" smooth="yes"/>
      <point x="547" y="481"/>
      <point x="550" y="490"/>
      <point x="551" y="496" type="curve" smooth="yes"/>
      <point x="554" y="537" type="line"/>
      <point x="588" y="570" type="line" smooth="yes"/>
      <point x="603" y="583"/>
      <point x="605" y="607"/>
      <point x="593" y="623" type="curve" smooth="yes"/>
      <point x="517" y="726" type="line"/>
      <point x="594" y="752" type="line"/>
      <point x="714" y="758" type="line"/>
      <point x="744" y="684" type="line" smooth="yes"/>
      <point x="744" y="683"/>
      <point x="746" y="680"/>
      <point x="747" y="679" type="curve" smooth="yes"/>
      <point x="801" y="587" type="line"/>
      <point x="807" y="509" type="line"/>
      <point x="755" y="422" type="line"/>
      <point x="677" y="324" type="line" smooth="yes"/>
      <point x="667" y="312"/>
      <point x="666" y="291"/>
      <point x="674" y="278" type="curve" smooth="yes"/>
      <point x="725" y="197" type="line"/>
      <point x="683" y="118" type="line" smooth="yes"/>
      <point x="677" y="107"/>
      <point x="677" y="90"/>
      <point x="683" y="79" type="curve" smooth="yes"/>
      <point x="740" y="-21" type="line" smooth="yes"/>
      <point x="751" y="-40"/>
      <point x="776" y="-46"/>
      <point x="795" y="-36" type="curve" smooth="yes"/>
      <point x="814" y="-25"/>
      <point x="820" y="0"/>
      <point x="810" y="19" type="curve" smooth="yes"/>
      <point x="764" y="100" type="line"/>
      <point x="806" y="180" type="line" smooth="yes"/>
      <point x="812" y="192"/>
      <point x="812" y="210"/>
      <point x="805" y="220" type="curve" smooth="yes"/>
      <point x="757" y="296" type="line"/>
      <point x="819" y="374" type="line" smooth="yes"/>
      <point x="820" y="375"/>
      <point x="822" y="377"/>
      <point x="822" y="378" type="curve" smooth="yes"/>
      <point x="882" y="478" type="line" smooth="yes"/>
      <point x="886" y="484"/>
      <point x="888" y="495"/>
      <point x="888" y="502" type="curve" smooth="yes"/>
      <point x="880" y="602" type="line" smooth="yes"/>
      <point x="879" y="607"/>
      <point x="877" y="615"/>
      <point x="874" y="619" type="curve" smooth="yes"/>
      <point x="817" y="717" type="line"/>
      <point x="785" y="797" type="line"/>
      <point x="787" y="817"/>
      <point x="773" y="839"/>
      <point x="745" y="839" type="curve" smooth="yes"/>
      <point x="741" y="839" type="line" smooth="yes"/>
      <point x="739" y="839"/>
      <point x="737" y="839"/>
      <point x="735" y="839" type="curve"/>
      <point x="585" y="832" type="line" smooth="yes"/>
      <point x="582" y="832"/>
      <point x="577" y="831"/>
      <point x="574" y="830" type="curve" smooth="yes"/>
      <point x="449" y="788" type="line"/>
      <point x="358" y="829" type="line" smooth="yes"/>
      <point x="355" y="830"/>
      <point x="350" y="831"/>
      <point x="346" y="832" type="curve" smooth="yes"/>
      <point x="277" y="839" type="line" smooth="yes"/>
      <point x="276" y="839"/>
      <point x="274" y="839"/>
      <point x="273" y="839" type="curve" smooth="yes"/>
      <point x="182" y="839" type="line" smooth="yes"/>
      <point x="167" y="839"/>
      <point x="151" y="828"/>
      <point x="145" y="815" type="curve" smooth="yes"/>
      <point x="102" y="715" type="line"/>
      <point x="53" y="617" type="line" smooth="yes"/>
      <point x="47" y="604"/>
      <point x="49" y="584"/>
      <point x="59" y="572" type="curve" smooth="yes"/>
      <point x="143" y="478" type="line"/>
      <point x="176" y="389" type="line"/>
      <point x="192" y="293" type="line"/>
      <point x="208" y="212" type="line"/>
      <point x="127" y="127" type="line" smooth="yes"/>
      <point x="123" y="123"/>
      <point x="119" y="115"/>
      <point x="117" y="110" type="curve" smooth="yes"/>
      <point x="89" y="10" type="line" smooth="yes"/>
      <point x="84" y="-11"/>
      <point x="96" y="-34"/>
      <point x="117" y="-40" type="curve" smooth="yes"/>
      <point x="138" y="-45"/>
      <point x="161" y="-33"/>
    </contour>
  </outline>
</glyph>
<glyph name="N" format="1">
  <advance width="907"/>
  <unicode hex="004E"/>
  <outline>
    <contour>
      <point x="237" y="-41" type="curve" smooth="yes"/>
      <point x="258" y="-38"/>
      <point x="274" y="-17"/>
      <point x="271" y="5" type="curve" smooth="yes"/>
      <point x="257" y="105" type="line" smooth="yes"/>
      <point x="256" y="109"/>
      <point x="254" y="115"/>
      <point x="252" y="119" type="curve" smooth="yes"/>
      <point x="207" y="198" type="line"/>
      <point x="254" y="279" type="line" smooth="yes"/>
      <point x="257" y="283"/>
      <point x="259" y="290"/>
      <point x="260" y="295" type="curve" smooth="yes"/>
      <point x="269" y="395" type="line" smooth="yes"/>
      <point x="270" y="408"/>
      <point x="263" y="424"/>
      <point x="252" y="431" type="curve" smooth="yes"/>
      <point x="160" y="498" type="line"/>
      <point x="260" y="566" type="line" smooth="yes"/>
      <point x="274" y="576"/>
      <point x="281" y="597"/>
      <point x="274" y="613" type="curve" smooth="yes"/>
      <point x="237" y="711" type="line"/>
      <point x="228" y="753" type="line"/>
      <point x="233" y="753" type="line"/>
      <point x="376" y="714" type="line"/>
      <point x="328" y="617" type="line" smooth="yes"/>
      <point x="322" y="604"/>
      <point x="324" y="585"/>
      <point x="333" y="574" type="curve" smooth="yes"/>
      <point x="411" y="478" type="line"/>
      <point x="453" y="382" type="line"/>
      <point x="484" y="315" type="line"/>
      <point x="348" y="233" type="line" smooth="yes"/>
      <point x="334" y="224"/>
      <point x="326" y="204"/>
      <point x="331" y="187" type="curve" smooth="yes"/>
      <point x="374" y="46" type="line" smooth="yes"/>
      <point x="378" y="33"/>
      <point x="391" y="21"/>
      <point x="403" y="18" type="curve" smooth="yes"/>
      <point x="636" y="-33" type="line"/>
      <point x="667" y="-40" type="line" smooth="yes"/>
      <point x="677" y="-42"/>
      <point x="691" y="-39"/>
      <point x="699" y="-34" type="curve" smooth="yes"/>
      <point x="840" y="66" type="line" smooth="yes"/>
      <point x="859" y="80"/>
      <point x="863" y="106"/>
      <point x="848" y="124" type="curve" smooth="yes"/>
      <point x="779" y="209" type="line"/>
      <point x="796" y="291" type="line" smooth="yes"/>
      <point x="798" y="301"/>
      <point x="795" y="315"/>
      <point x="789" y="323" type="curve" smooth="yes"/>
      <point x="720" y="413" type="line"/>
      <point x="717" y="491" type="line"/>
      <point x="756" y="578" type="line"/>
      <point x="833" y="674" type="line" smooth="yes"/>
      <point x="845" y="688"/>
      <point x="844" y="711"/>
      <point x="832" y="725" type="curve" smooth="yes"/>
      <point x="747" y="825" type="line" smooth="yes"/>
      <point x="733" y="841"/>
      <point x="708" y="843"/>
      <point x="691" y="829" type="curve" smooth="yes"/>
      <point x="675" y="815"/>
      <point x="673" y="790"/>
      <point x="687" y="773" type="curve" smooth="yes"/>
      <point x="750" y="698" type="line"/>
      <point x="691" y="624" type="line" smooth="yes"/>
      <point x="689" y="622"/>
      <point x="687" y="618"/>
      <point x="686" y="615" type="curve" smooth="yes"/>
      <point x="641" y="515" type="line" smooth="yes"/>
      <point x="638" y="511"/>
      <point x="637" y="503"/>
      <point x="637" y="497" type="curve" smooth="yes"/>
      <point x="641" y="397" type="line" smooth="yes"/>
      <point x="641" y="390"/>
      <point x="645" y="380"/>
      <point x="649" y="375" type="curve" smooth="yes"/>
      <point x="714" y="289" type="line"/>
      <point x="697" y="207" type="line" smooth="yes"/>
      <point x="695" y="197"/>
      <point x="698" y="182"/>
      <point x="705" y="174" type="curve" smooth="yes"/>
      <point x="759" y="107" type="line"/>
      <point x="667" y="42" type="line"/>
      <point x="653" y="45" type="line"/>
      <point x="444" y="91" type="line"/>
      <point x="416" y="181" type="line"/>
      <point x="556" y="265" type="line" smooth="yes"/>
      <point x="573" y="275"/>
      <point x="580" y="298"/>
      <point x="571" y="316" type="curve" smooth="yes"/>
      <point x="525" y="416" type="line"/>
      <point x="483" y="515" type="line" smooth="yes"/>
      <point x="482" y="518"/>
      <point x="479" y="522"/>
      <point x="477" y="524" type="curve" smooth="yes"/>
      <point x="411" y="604" type="line"/>
      <point x="470" y="723" type="line" smooth="yes"/>
      <point x="481" y="747"/>
      <point x="469" y="773"/>
      <point x="444" y="779" type="curve" smooth="yes"/>
      <point x="250" y="831" type="line" smooth="yes"/>
      <point x="249" y="831"/>
      <point x="246" y="832"/>
      <point x="244" y="832" type="curve" smooth="yes"/>
      <point x="180" y="839" type="line" smooth="yes"/>
      <point x="151" y="842"/>
      <point x="130" y="819"/>
      <point x="137" y="790" type="curve" smooth="yes"/>
      <point x="160" y="690" type="line" smooth="yes"/>
      <point x="160" y="689"/>
      <point x="161" y="686"/>
      <point x="162" y="685" type="curve" smooth="yes"/>
      <point x="188" y="614" type="line"/>
      <point x="68" y="532" type="line" smooth="yes"/>
      <point x="44" y="515"/>
      <point x="44" y="484"/>
      <point x="68" y="467" type="curve" smooth="yes"/>
      <point x="187" y="380" type="line"/>
      <point x="181" y="312" type="line"/>
      <point x="127" y="219" type="line" smooth="yes"/>
      <point x="120" y="208"/>
      <point x="120" y="191"/>
      <point x="126" y="179" type="curve" smooth="yes"/>
      <point x="178" y="86" type="line"/>
      <point x="191" y="-7" type="line" smooth="yes"/>
      <point x="194" y="-28"/>
      <point x="215" y="-44"/>
    </contour>
  </outline>
</glyph>
<glyph name="O" format="1">
  <advance width="951"/>
  <unicode hex="004F"/>
  <outline>
    <contour>
      <point x="358" y="-41" type="curve" smooth="yes"/>
      <point x="403" y="-41" type="line" smooth="yes"/>
      <point x="425" y="-41"/>
      <point x="443" y="-23"/>
      <point x="443" y="-1" type="curve" smooth="yes"/>
      <point x="443" y="21"/>
      <point x="425" y="39"/>
      <point x="403" y="39" type="curve" smooth="yes"/>
      <point x="365" y="39" type="line"/>
      <point x="273" y="71" type="line"/>
      <point x="184" y="144" type="line"/>
      <point x="139" y="201" type="line"/>
      <point x="189" y="275" type="line"/>
      <point x="270" y="374" type="line" smooth="yes"/>
      <point x="276" y="381"/>
      <point x="280" y="393"/>
      <point x="279" y="402" type="curve" smooth="yes"/>
      <point x="271" y="505" type="line"/>
      <point x="257" y="596" type="line"/>
      <point x="278" y="661" type="line"/>
      <point x="346" y="736" type="line" smooth="yes"/>
      <point x="350" y="740"/>
      <point x="355" y="749"/>
      <point x="356" y="756" type="curve" smooth="yes"/>
      <point x="356" y="759" type="line"/>
      <point x="487" y="759" type="line"/>
      <point x="595" y="729" type="line"/>
      <point x="634" y="661" type="line"/>
      <point x="686" y="578" type="line" smooth="yes"/>
      <point x="687" y="576"/>
      <point x="690" y="572"/>
      <point x="693" y="570" type="curve" smooth="yes"/>
      <point x="786" y="482" type="line"/>
      <point x="786" y="399" type="line" smooth="yes"/>
      <point x="786" y="396"/>
      <point x="787" y="391"/>
      <point x="788" y="388" type="curve" smooth="yes"/>
      <point x="816" y="292" type="line"/>
      <point x="820" y="212" type="line"/>
      <point x="772" y="148" type="line"/>
      <point x="603" y="72" type="line" smooth="yes"/>
      <point x="585" y="63"/>
      <point x="575" y="41"/>
      <point x="582" y="21" type="curve" smooth="yes"/>
      <point x="595" y="-15" type="line" smooth="yes"/>
      <point x="603" y="-35"/>
      <point x="626" y="-46"/>
      <point x="647" y="-39" type="curve" smooth="yes"/>
      <point x="667" y="-31"/>
      <point x="678" y="-8"/>
      <point x="671" y="13" type="curve" smooth="yes"/>
      <point x="670" y="14" type="line"/>
      <point x="814" y="79" type="line" smooth="yes"/>
      <point x="819" y="81"/>
      <point x="826" y="87"/>
      <point x="830" y="91" type="curve" smooth="yes"/>
      <point x="893" y="175" type="line" smooth="yes"/>
      <point x="898" y="181"/>
      <point x="901" y="193"/>
      <point x="901" y="201" type="curve" smooth="yes"/>
      <point x="896" y="301" type="line" smooth="yes"/>
      <point x="896" y="304"/>
      <point x="895" y="308"/>
      <point x="894" y="310" type="curve" smooth="yes"/>
      <point x="866" y="405" type="line"/>
      <point x="866" y="499" type="line" smooth="yes"/>
      <point x="866" y="509"/>
      <point x="860" y="522"/>
      <point x="853" y="528" type="curve" smooth="yes"/>
      <point x="751" y="624" type="line"/>
      <point x="703" y="703" type="line"/>
      <point x="656" y="783" type="line" smooth="yes"/>
      <point x="651" y="791"/>
      <point x="641" y="799"/>
      <point x="632" y="801" type="curve" smooth="yes"/>
      <point x="504" y="838" type="line" smooth="yes"/>
      <point x="501" y="838"/>
      <point x="496" y="839"/>
      <point x="493" y="839" type="curve" smooth="yes"/>
      <point x="323" y="839" type="line" smooth="yes"/>
      <point x="305" y="839"/>
      <point x="287" y="824"/>
      <point x="284" y="806" type="curve" smooth="yes"/>
      <point x="279" y="781" type="line"/>
      <point x="213" y="709" type="line" smooth="yes"/>
      <point x="209" y="705"/>
      <point x="206" y="699"/>
      <point x="204" y="694" type="curve" smooth="yes"/>
      <point x="178" y="611" type="line" smooth="yes"/>
      <point x="176" y="606"/>
      <point x="176" y="598"/>
      <point x="176" y="593" type="curve" smooth="yes"/>
      <point x="191" y="493" type="line"/>
      <point x="198" y="412" type="line"/>
      <point x="126" y="324" type="line" smooth="yes"/>
      <point x="125" y="324"/>
      <point x="124" y="322"/>
      <point x="124" y="321" type="curve" smooth="yes"/>
      <point x="56" y="221" type="line" smooth="yes"/>
      <point x="47" y="208"/>
      <point x="48" y="187"/>
      <point x="58" y="174" type="curve" smooth="yes"/>
      <point x="124" y="91" type="line" smooth="yes"/>
      <point x="126" y="89"/>
      <point x="128" y="86"/>
      <point x="130" y="85" type="curve" smooth="yes"/>
      <point x="227" y="4" type="line" smooth="yes"/>
      <point x="230" y="2"/>
      <point x="236" y="-1"/>
      <point x="240" y="-3" type="curve" smooth="yes"/>
      <point x="345" y="-39" type="line" smooth="yes"/>
      <point x="349" y="-40"/>
      <point x="354" y="-41"/>
    </contour>
  </outline>
</glyph>
<glyph name="P" format="1">
  <advance width="915"/>
  <unicode hex="0050"/>
  <outline>
    <contour>
      <point x="322" y="346" type="curve" smooth="yes"/>
      <point x="259" y="330" type="line"/>
      <point x="258" y="332" type="line" smooth="yes"/>
      <point x="161" y="425" type="line"/>
      <point x="138" y="489" type="line"/>
      <point x="243" y="571" type="line" smooth="yes"/>
      <point x="262" y="586"/>
      <point x="264" y="613"/>
      <point x="247" y="631" type="curve" smooth="yes"/>
      <point x="195" y="685" type="line"/>
      <point x="243" y="733" type="line"/>
      <point x="314" y="763" type="line"/>
      <point x="605" y="763" type="line"/>
      <point x="678" y="747" type="line"/>
      <point x="641" y="718" type="line" smooth="yes"/>
      <point x="622" y="703"/>
      <point x="620" y="677"/>
      <point x="636" y="659" type="curve" smooth="yes"/>
      <point x="712" y="577" type="line"/>
      <point x="784" y="493" type="line"/>
      <point x="782" y="452" type="line"/>
      <point x="586" y="381" type="line" smooth="yes"/>
      <point x="574" y="376"/>
      <point x="563" y="362"/>
      <point x="561" y="350" type="curve" smooth="yes"/>
      <point x="560" y="347" type="line"/>
      <point x="332" y="347" type="line" smooth="yes"/>
      <point x="329" y="347"/>
      <point x="325" y="346"/>
    </contour>
    <contour>
      <point x="169" y="-2" type="curve" smooth="yes"/>
      <point x="177" y="66" type="line"/>
      <point x="187" y="59"/>
      <point x="200" y="57"/>
      <point x="212" y="61" type="curve" smooth="yes"/>
      <point x="233" y="68"/>
      <point x="244" y="92"/>
      <point x="237" y="112" type="curve" smooth="yes"/>
      <point x="218" y="165" type="line"/>
      <point x="228" y="185" type="line" smooth="yes"/>
      <point x="229" y="186"/>
      <point x="230" y="188"/>
      <point x="231" y="189" type="curve" smooth="yes"/>
      <point x="252" y="246" type="line"/>
      <point x="337" y="267" type="line"/>
      <point x="594" y="267" type="line" smooth="yes"/>
      <point x="613" y="267"/>
      <point x="630" y="282"/>
      <point x="633" y="300" type="curve" smooth="yes"/>
      <point x="636" y="313" type="line"/>
      <point x="835" y="386" type="line" smooth="yes"/>
      <point x="849" y="391"/>
      <point x="861" y="407"/>
      <point x="861" y="422" type="curve" smooth="yes"/>
      <point x="865" y="505" type="line" smooth="yes"/>
      <point x="865" y="514"/>
      <point x="861" y="527"/>
      <point x="855" y="533" type="curve" smooth="yes"/>
      <point x="772" y="629" type="line"/>
      <point x="724" y="681" type="line"/>
      <point x="794" y="735" type="line" smooth="yes"/>
      <point x="823" y="758"/>
      <point x="814" y="798"/>
      <point x="778" y="806" type="curve" smooth="yes"/>
      <point x="618" y="842" type="line" smooth="yes"/>
      <point x="615" y="843"/>
      <point x="611" y="843"/>
      <point x="609" y="843" type="curve" smooth="yes"/>
      <point x="306" y="843" type="line" smooth="yes"/>
      <point x="302" y="843"/>
      <point x="295" y="842"/>
      <point x="290" y="840" type="curve" smooth="yes"/>
      <point x="205" y="804" type="line" smooth="yes"/>
      <point x="201" y="802"/>
      <point x="195" y="798"/>
      <point x="192" y="795" type="curve" smooth="yes"/>
      <point x="111" y="714" type="line" smooth="yes"/>
      <point x="96" y="699"/>
      <point x="95" y="674"/>
      <point x="110" y="658" type="curve" smooth="yes"/>
      <point x="159" y="607" type="line"/>
      <point x="65" y="535" type="line" smooth="yes"/>
      <point x="53" y="525"/>
      <point x="47" y="504"/>
      <point x="52" y="489" type="curve" smooth="yes"/>
      <point x="89" y="389" type="line" smooth="yes"/>
      <point x="91" y="384"/>
      <point x="96" y="378"/>
      <point x="99" y="374" type="curve" smooth="yes"/>
      <point x="168" y="308" type="line"/>
      <point x="167" y="308" type="line" smooth="yes"/>
      <point x="151" y="304"/>
      <point x="138" y="288"/>
      <point x="137" y="272" type="curve" smooth="yes"/>
      <point x="129" y="188" type="line" smooth="yes"/>
      <point x="129" y="183"/>
      <point x="130" y="176"/>
      <point x="131" y="171" type="curve" smooth="yes"/>
      <point x="131" y="171" type="line"/>
      <point x="106" y="121" type="line" smooth="yes"/>
      <point x="104" y="118"/>
      <point x="102" y="112"/>
      <point x="101" y="108" type="curve" smooth="yes"/>
      <point x="89" y="8" type="line" smooth="yes"/>
      <point x="87" y="-14"/>
      <point x="103" y="-34"/>
      <point x="124" y="-37" type="curve" smooth="yes"/>
      <point x="146" y="-39"/>
      <point x="166" y="-23"/>
    </contour>
  </outline>
</glyph>
<glyph name="Q" format="1">
  <advance width="899"/>
  <unicode hex="0051"/>
  <outline>
    <contour>
      <point x="440" y="-4" type="curve" smooth="yes"/>
      <point x="442" y="18"/>
      <point x="425" y="37"/>
      <point x="404" y="39" type="curve" smooth="yes"/>
      <point x="338" y="44" type="line"/>
      <point x="330" y="70" type="line" smooth="yes"/>
      <point x="330" y="71"/>
      <point x="329" y="72"/>
      <point x="329" y="73" type="curve" smooth="yes"/>
      <point x="267" y="215" type="line" smooth="yes"/>
      <point x="265" y="220"/>
      <point x="260" y="226"/>
      <point x="256" y="230" type="curve" smooth="yes"/>
      <point x="148" y="320" type="line"/>
      <point x="132" y="403" type="line"/>
      <point x="130" y="489" type="line"/>
      <point x="183" y="579" type="line" smooth="yes"/>
      <point x="184" y="581"/>
      <point x="186" y="586"/>
      <point x="187" y="588" type="curve" smooth="yes"/>
      <point x="207" y="660" type="line"/>
      <point x="281" y="729" type="line"/>
      <point x="341" y="759" type="line"/>
      <point x="480" y="759" type="line"/>
      <point x="717" y="725" type="line"/>
      <point x="766" y="671" type="line"/>
      <point x="756" y="618" type="line"/>
      <point x="670" y="526" type="line" smooth="yes"/>
      <point x="665" y="522"/>
      <point x="661" y="513"/>
      <point x="660" y="506" type="curve" smooth="yes"/>
      <point x="641" y="406" type="line" smooth="yes"/>
      <point x="639" y="399"/>
      <point x="641" y="388"/>
      <point x="644" y="382" type="curve" smooth="yes"/>
      <point x="692" y="282" type="line" smooth="yes"/>
      <point x="693" y="280"/>
      <point x="695" y="276"/>
      <point x="696" y="274" type="curve" smooth="yes"/>
      <point x="726" y="236" type="line"/>
      <point x="602" y="232" type="line" smooth="yes"/>
      <point x="592" y="232"/>
      <point x="579" y="225"/>
      <point x="572" y="217" type="curve" smooth="yes"/>
      <point x="532" y="165" type="line" smooth="yes"/>
      <point x="523" y="155"/>
      <point x="521" y="137"/>
      <point x="527" y="124" type="curve" smooth="yes"/>
      <point x="589" y="-17" type="line" smooth="yes"/>
      <point x="598" y="-37"/>
      <point x="623" y="-46"/>
      <point x="642" y="-38" type="curve" smooth="yes"/>
      <point x="662" y="-29"/>
      <point x="671" y="-4"/>
      <point x="663" y="15" type="curve" smooth="yes"/>
      <point x="609" y="135" type="line"/>
      <point x="624" y="153" type="line"/>
      <point x="807" y="159" type="line" smooth="yes"/>
      <point x="843" y="160"/>
      <point x="859" y="196"/>
      <point x="838" y="224" type="curve" smooth="yes"/>
      <point x="762" y="320" type="line"/>
      <point x="722" y="404" type="line"/>
      <point x="736" y="480" type="line"/>
      <point x="822" y="572" type="line" smooth="yes"/>
      <point x="827" y="576"/>
      <point x="831" y="585"/>
      <point x="832" y="592" type="curve" smooth="yes"/>
      <point x="848" y="675" type="line" smooth="yes"/>
      <point x="850" y="686"/>
      <point x="846" y="701"/>
      <point x="838" y="709" type="curve" smooth="yes"/>
      <point x="767" y="789" type="line" smooth="yes"/>
      <point x="762" y="796"/>
      <point x="751" y="801"/>
      <point x="743" y="803" type="curve" smooth="yes"/>
      <point x="489" y="839" type="line" smooth="yes"/>
      <point x="487" y="839"/>
      <point x="485" y="839"/>
      <point x="483" y="839" type="curve" smooth="yes"/>
      <point x="332" y="839" type="line" smooth="yes"/>
      <point x="327" y="839"/>
      <point x="319" y="837"/>
      <point x="314" y="835" type="curve" smooth="yes"/>
      <point x="241" y="799" type="line" smooth="yes"/>
      <point x="238" y="797"/>
      <point x="234" y="794"/>
      <point x="231" y="792" type="curve" smooth="yes"/>
      <point x="144" y="711" type="line" smooth="yes"/>
      <point x="139" y="707"/>
      <point x="134" y="699"/>
      <point x="133" y="693" type="curve" smooth="yes"/>
      <point x="111" y="615" type="line"/>
      <point x="55" y="519" type="line" smooth="yes"/>
      <point x="52" y="514"/>
      <point x="50" y="504"/>
      <point x="50" y="498" type="curve" smooth="yes"/>
      <point x="52" y="398" type="line" smooth="yes"/>
      <point x="52" y="396"/>
      <point x="52" y="393"/>
      <point x="53" y="392" type="curve" smooth="yes"/>
      <point x="72" y="292" type="line" smooth="yes"/>
      <point x="73" y="284"/>
      <point x="79" y="273"/>
      <point x="85" y="268" type="curve" smooth="yes"/>
      <point x="197" y="174" type="line"/>
      <point x="255" y="43" type="line"/>
      <point x="271" y="-6" type="line" smooth="yes"/>
      <point x="275" y="-20"/>
      <point x="291" y="-33"/>
      <point x="306" y="-34" type="curve" smooth="yes"/>
      <point x="397" y="-41" type="line" smooth="yes"/>
      <point x="419" y="-43"/>
      <point x="439" y="-26"/>
    </contour>
  </outline>
</glyph>
<glyph name="R" format="1">
  <advance width="960"/>
  <unicode hex="0052"/>
  <outline>
    <contour>
      <point x="667" y="368" type="line"/>
      <point x="604" y="336" type="line"/>
      <point x="172" y="336" type="line"/>
      <point x="200" y="371" type="line" smooth="yes"/>
      <point x="207" y="381"/>
      <point x="210" y="399"/>
      <point x="205" y="410" type="curve" smooth="yes"/>
      <point x="178" y="483" type="line"/>
      <point x="284" y="564" type="line" smooth="yes"/>
      <point x="304" y="581"/>
      <point x="305" y="609"/>
      <point x="285" y="626" type="curve" smooth="yes"/>
      <point x="233" y="672" type="line"/>
      <point x="325" y="722" type="line"/>
      <point x="471" y="756" type="line"/>
      <point x="568" y="756" type="line"/>
      <point x="755" y="729" type="line"/>
      <point x="737" y="700" type="line" smooth="yes"/>
      <point x="735" y="696"/>
      <point x="732" y="688"/>
      <point x="732" y="683" type="curve" smooth="yes"/>
      <point x="724" y="608" type="line"/>
      <point x="676" y="514" type="line" smooth="yes"/>
      <point x="667" y="497"/>
      <point x="672" y="475"/>
      <point x="688" y="463" type="curve" smooth="yes"/>
      <point x="754" y="417" type="line"/>
    </contour>
    <contour>
      <point x="160" y="289" type="line"/>
      <point x="145" y="302" type="line"/>
      <point x="160" y="321" type="line"/>
    </contour>
    <contour>
      <point x="143" y="-42" type="curve" smooth="yes"/>
      <point x="164" y="-36"/>
      <point x="177" y="-13"/>
      <point x="170" y="7" type="curve" smooth="yes"/>
      <point x="147" y="84" type="line"/>
      <point x="236" y="167" type="line" smooth="yes"/>
      <point x="254" y="184"/>
      <point x="254" y="211"/>
      <point x="235" y="227" type="curve" smooth="yes"/>
      <point x="200" y="256" type="line"/>
      <point x="629" y="256" type="line"/>
      <point x="630" y="255" type="line" smooth="yes"/>
      <point x="631" y="255"/>
      <point x="633" y="254"/>
      <point x="634" y="253" type="curve" smooth="yes"/>
      <point x="740" y="207" type="line"/>
      <point x="820" y="99" type="line"/>
      <point x="758" y="21" type="line" smooth="yes"/>
      <point x="744" y="4"/>
      <point x="747" y="-22"/>
      <point x="764" y="-35" type="curve" smooth="yes"/>
      <point x="781" y="-49"/>
      <point x="807" y="-46"/>
      <point x="820" y="-29" type="curve" smooth="yes"/>
      <point x="901" y="73" type="line" smooth="yes"/>
      <point x="912" y="86"/>
      <point x="912" y="108"/>
      <point x="902" y="122" type="curve" smooth="yes"/>
      <point x="798" y="263" type="line" smooth="yes"/>
      <point x="795" y="268"/>
      <point x="787" y="274"/>
      <point x="782" y="276" type="curve" smooth="yes"/>
      <point x="717" y="304" type="line"/>
      <point x="848" y="378" type="line" smooth="yes"/>
      <point x="875" y="393"/>
      <point x="877" y="427"/>
      <point x="851" y="445" type="curve" smooth="yes"/>
      <point x="763" y="508" type="line"/>
      <point x="798" y="578" type="line" smooth="yes"/>
      <point x="800" y="581"/>
      <point x="802" y="588"/>
      <point x="803" y="592" type="curve" smooth="yes"/>
      <point x="810" y="666" type="line"/>
      <point x="854" y="739" type="line" smooth="yes"/>
      <point x="870" y="766"/>
      <point x="856" y="795"/>
      <point x="826" y="800" type="curve" smooth="yes"/>
      <point x="577" y="836" type="line" smooth="yes"/>
      <point x="575" y="836"/>
      <point x="573" y="836"/>
      <point x="571" y="836" type="curve" smooth="yes"/>
      <point x="466" y="836" type="line" smooth="yes"/>
      <point x="463" y="836"/>
      <point x="459" y="836"/>
      <point x="457" y="835" type="curve" smooth="yes"/>
      <point x="301" y="799" type="line" smooth="yes"/>
      <point x="298" y="798"/>
      <point x="294" y="796"/>
      <point x="291" y="795" type="curve" smooth="yes"/>
      <point x="144" y="714" type="line" smooth="yes"/>
      <point x="118" y="700"/>
      <point x="114" y="668"/>
      <point x="137" y="649" type="curve" smooth="yes"/>
      <point x="196" y="598" type="line"/>
      <point x="105" y="528" type="line" smooth="yes"/>
      <point x="93" y="518"/>
      <point x="87" y="497"/>
      <point x="93" y="482" type="curve" smooth="yes"/>
      <point x="123" y="403" type="line"/>
      <point x="58" y="321" type="line" smooth="yes"/>
      <point x="45" y="304"/>
      <point x="48" y="279"/>
      <point x="64" y="265" type="curve" smooth="yes"/>
      <point x="149" y="194" type="line"/>
      <point x="75" y="125" type="line" smooth="yes"/>
      <point x="65" y="116"/>
      <point x="60" y="98"/>
      <point x="64" y="85" type="curve" smooth="yes"/>
      <point x="94" y="-15" type="line" smooth="yes"/>
      <point x="100" y="-36"/>
      <point x="123" y="-49"/>
    </contour>
  </outline>
</glyph>
<glyph name="S" format="1">
  <advance width="915"/>
  <unicode hex="0053"/>
  <outline>
    <contour>
      <point x="413" y="-36" type="line"/>
      <point x="537" y="-36" type="line" smooth="yes"/>
      <point x="542" y="-36"/>
      <point x="551" y="-34"/>
      <point x="557" y="-31" type="curve" smooth="yes"/>
      <point x="617" y="5" type="line"/>
      <point x="826" y="85" type="line" smooth="yes"/>
      <point x="837" y="90"/>
      <point x="848" y="103"/>
      <point x="851" y="116" type="curve" smooth="yes"/>
      <point x="865" y="199" type="line" smooth="yes"/>
      <point x="867" y="210"/>
      <point x="863" y="226"/>
      <point x="855" y="234" type="curve" smooth="yes"/>
      <point x="715" y="376" type="line" smooth="yes"/>
      <point x="713" y="378"/>
      <point x="709" y="381"/>
      <point x="706" y="383" type="curve" smooth="yes"/>
      <point x="639" y="418" type="line"/>
      <point x="634" y="433"/>
      <point x="619" y="444"/>
      <point x="599" y="444" type="curve" smooth="yes"/>
      <point x="354" y="444" type="line"/>
      <point x="350" y="447"/>
      <point x="345" y="449"/>
      <point x="341" y="450" type="curve" smooth="yes"/>
      <point x="162" y="489" type="line"/>
      <point x="226" y="581" type="line" smooth="yes"/>
      <point x="234" y="592"/>
      <point x="235" y="611"/>
      <point x="228" y="623" type="curve" smooth="yes"/>
      <point x="203" y="671" type="line"/>
      <point x="311" y="733" type="line" smooth="yes"/>
      <point x="313" y="734"/>
      <point x="316" y="736"/>
      <point x="318" y="738" type="curve" smooth="yes"/>
      <point x="348" y="764" type="line"/>
      <point x="456" y="764" type="line"/>
      <point x="572" y="731" type="line"/>
      <point x="693" y="658" type="line"/>
      <point x="736" y="584" type="line" smooth="yes"/>
      <point x="747" y="565"/>
      <point x="772" y="559"/>
      <point x="791" y="569" type="curve" smooth="yes"/>
      <point x="810" y="580"/>
      <point x="816" y="605"/>
      <point x="806" y="624" type="curve" smooth="yes"/>
      <point x="757" y="708" type="line" smooth="yes"/>
      <point x="754" y="712"/>
      <point x="748" y="719"/>
      <point x="743" y="722" type="curve" smooth="yes"/>
      <point x="609" y="802" type="line" smooth="yes"/>
      <point x="606" y="804"/>
      <point x="602" y="806"/>
      <point x="599" y="806" type="curve" smooth="yes"/>
      <point x="473" y="842" type="line" smooth="yes"/>
      <point x="470" y="843"/>
      <point x="465" y="844"/>
      <point x="462" y="844" type="curve" smooth="yes"/>
      <point x="333" y="844" type="line" smooth="yes"/>
      <point x="325" y="844"/>
      <point x="313" y="840"/>
      <point x="307" y="834" type="curve" smooth="yes"/>
      <point x="268" y="800" type="line"/>
      <point x="129" y="722" type="line" smooth="yes"/>
      <point x="111" y="711"/>
      <point x="104" y="687"/>
      <point x="114" y="668" type="curve" smooth="yes"/>
      <point x="146" y="607" type="line"/>
      <point x="62" y="485" type="line" smooth="yes"/>
      <point x="45" y="460"/>
      <point x="57" y="430"/>
      <point x="87" y="423" type="curve" smooth="yes"/>
      <point x="310" y="375" type="line"/>
      <point x="317" y="368"/>
      <point x="328" y="364"/>
      <point x="337" y="364" type="curve" smooth="yes"/>
      <point x="570" y="364" type="line"/>
      <point x="573" y="362" type="line" smooth="yes"/>
      <point x="663" y="315" type="line"/>
      <point x="783" y="193" type="line"/>
      <point x="776" y="152" type="line"/>
      <point x="586" y="78" type="line" smooth="yes"/>
      <point x="584" y="77"/>
      <point x="582" y="76"/>
      <point x="580" y="75" type="curve" smooth="yes"/>
      <point x="526" y="44" type="line"/>
      <point x="413" y="44" type="line"/>
      <point x="258" y="50" type="line"/>
      <point x="253" y="72" type="line" smooth="yes"/>
      <point x="252" y="77"/>
      <point x="248" y="85"/>
      <point x="244" y="89" type="curve" smooth="yes"/>
      <point x="120" y="230" type="line" smooth="yes"/>
      <point x="106" y="247"/>
      <point x="80" y="248"/>
      <point x="64" y="234" type="curve" smooth="yes"/>
      <point x="47" y="220"/>
      <point x="46" y="194"/>
      <point x="60" y="178" type="curve" smooth="yes"/>
      <point x="178" y="43" type="line"/>
      <point x="188" y="1" type="line" smooth="yes"/>
      <point x="192" y="-15"/>
      <point x="208" y="-28"/>
      <point x="225" y="-29" type="curve" smooth="yes"/>
    </contour>
  </outline>
</glyph>
<glyph name="T" format="1">
  <advance width="824"/>
  <unicode hex="0054"/>
  <outline>
    <contour>
      <point x="451" y="-22" type="curve" smooth="yes"/>
      <point x="515" y="78" type="line" smooth="yes"/>
      <point x="525" y="94"/>
      <point x="522" y="117"/>
      <point x="508" y="130" type="curve" smooth="yes"/>
      <point x="413" y="216" type="line"/>
      <point x="422" y="296" type="line"/>
      <point x="434" y="395" type="line" smooth="yes"/>
      <point x="434" y="399"/>
      <point x="434" y="405"/>
      <point x="433" y="409" type="curve" smooth="yes"/>
      <point x="417" y="481" type="line"/>
      <point x="558" y="566" type="line" smooth="yes"/>
      <point x="571" y="574"/>
      <point x="579" y="593"/>
      <point x="576" y="608" type="curve" smooth="yes"/>
      <point x="562" y="672" type="line"/>
      <point x="601" y="723" type="line"/>
      <point x="741" y="754" type="line" smooth="yes"/>
      <point x="786" y="764"/>
      <point x="784" y="826"/>
      <point x="738" y="833" type="curve" smooth="yes"/>
      <point x="690" y="840" type="line" smooth="yes"/>
      <point x="688" y="840"/>
      <point x="686" y="840"/>
      <point x="684" y="840" type="curve" smooth="yes"/>
      <point x="90" y="840" type="line" smooth="yes"/>
      <point x="68" y="840"/>
      <point x="50" y="822"/>
      <point x="50" y="800" type="curve" smooth="yes"/>
      <point x="50" y="778"/>
      <point x="68" y="760"/>
      <point x="90" y="760" type="curve" smooth="yes"/>
      <point x="529" y="760" type="line"/>
      <point x="488" y="705" type="line" smooth="yes"/>
      <point x="481" y="697"/>
      <point x="478" y="683"/>
      <point x="480" y="673" type="curve" smooth="yes"/>
      <point x="492" y="619" type="line"/>
      <point x="351" y="534" type="line" smooth="yes"/>
      <point x="338" y="526"/>
      <point x="330" y="507"/>
      <point x="333" y="491" type="curve" smooth="yes"/>
      <point x="353" y="398" type="line"/>
      <point x="342" y="304" type="line"/>
      <point x="331" y="204" type="line" smooth="yes"/>
      <point x="330" y="193"/>
      <point x="336" y="178"/>
      <point x="344" y="170" type="curve" smooth="yes"/>
      <point x="429" y="93" type="line"/>
      <point x="383" y="22" type="line" smooth="yes"/>
      <point x="372" y="3"/>
      <point x="377" y="-22"/>
      <point x="395" y="-34" type="curve" smooth="yes"/>
      <point x="414" y="-45"/>
      <point x="439" y="-40"/>
    </contour>
  </outline>
</glyph>
<glyph name="U" format="1">
  <advance width="948"/>
  <unicode hex="0055"/>
  <outline>
    <contour>
      <point x="367" y="-41" type="curve" smooth="yes"/>
      <point x="654" y="-41" type="line" smooth="yes"/>
      <point x="680" y="-41"/>
      <point x="698" y="-20"/>
      <point x="693" y="6" type="curve" smooth="yes"/>
      <point x="691" y="19" type="line"/>
      <point x="771" y="84" type="line"/>
      <point x="881" y="167" type="line" smooth="yes"/>
      <point x="896" y="179"/>
      <point x="901" y="202"/>
      <point x="892" y="218" type="curve" smooth="yes"/>
      <point x="837" y="318" type="line" smooth="yes"/>
      <point x="836" y="321"/>
      <point x="833" y="324"/>
      <point x="832" y="326" type="curve" smooth="yes"/>
      <point x="758" y="407" type="line"/>
      <point x="791" y="483" type="line" smooth="yes"/>
      <point x="795" y="494"/>
      <point x="794" y="511"/>
      <point x="787" y="521" type="curve" smooth="yes"/>
      <point x="745" y="586" type="line"/>
      <point x="878" y="665" type="line" smooth="yes"/>
      <point x="900" y="677"/>
      <point x="905" y="704"/>
      <point x="890" y="724" type="curve" smooth="yes"/>
      <point x="812" y="824" type="line" smooth="yes"/>
      <point x="798" y="841"/>
      <point x="772" y="844"/>
      <point x="755" y="831" type="curve" smooth="yes"/>
      <point x="738" y="817"/>
      <point x="735" y="791"/>
      <point x="748" y="774" type="curve" smooth="yes"/>
      <point x="798" y="710" type="line"/>
      <point x="668" y="633" type="line" smooth="yes"/>
      <point x="648" y="622"/>
      <point x="642" y="596"/>
      <point x="655" y="577" type="curve" smooth="yes"/>
      <point x="709" y="495" type="line"/>
      <point x="674" y="415" type="line" smooth="yes"/>
      <point x="669" y="402"/>
      <point x="672" y="383"/>
      <point x="681" y="372" type="curve" smooth="yes"/>
      <point x="769" y="276" type="line"/>
      <point x="805" y="210" type="line"/>
      <point x="723" y="147" type="line"/>
      <point x="622" y="66" type="line" smooth="yes"/>
      <point x="615" y="60"/>
      <point x="610" y="50"/>
      <point x="608" y="39" type="curve"/>
      <point x="375" y="39" type="line"/>
      <point x="304" y="70" type="line"/>
      <point x="207" y="146" type="line"/>
      <point x="135" y="214" type="line"/>
      <point x="142" y="288" type="line"/>
      <point x="188" y="381" type="line" smooth="yes"/>
      <point x="193" y="392"/>
      <point x="193" y="409"/>
      <point x="186" y="419" type="curve" smooth="yes"/>
      <point x="145" y="489" type="line"/>
      <point x="248" y="567" type="line" smooth="yes"/>
      <point x="261" y="577"/>
      <point x="267" y="598"/>
      <point x="261" y="613" type="curve" smooth="yes"/>
      <point x="223" y="713" type="line" smooth="yes"/>
      <point x="222" y="717"/>
      <point x="218" y="723"/>
      <point x="215" y="727" type="curve" smooth="yes"/>
      <point x="119" y="827" type="line" smooth="yes"/>
      <point x="104" y="842"/>
      <point x="78" y="843"/>
      <point x="62" y="828" type="curve" smooth="yes"/>
      <point x="47" y="813"/>
      <point x="46" y="787"/>
      <point x="61" y="771" type="curve" smooth="yes"/>
      <point x="152" y="677" type="line"/>
      <point x="176" y="613" type="line"/>
      <point x="69" y="531" type="line" smooth="yes"/>
      <point x="53" y="519"/>
      <point x="49" y="496"/>
      <point x="59" y="479" type="curve" smooth="yes"/>
      <point x="107" y="397" type="line"/>
      <point x="67" y="317" type="line" smooth="yes"/>
      <point x="65" y="313"/>
      <point x="64" y="307"/>
      <point x="63" y="303" type="curve" smooth="yes"/>
      <point x="53" y="203" type="line" smooth="yes"/>
      <point x="52" y="192"/>
      <point x="58" y="177"/>
      <point x="65" y="170" type="curve" smooth="yes"/>
      <point x="153" y="87" type="line" smooth="yes"/>
      <point x="154" y="86"/>
      <point x="155" y="85"/>
      <point x="156" y="84" type="curve" smooth="yes"/>
      <point x="259" y="4" type="line" smooth="yes"/>
      <point x="261" y="2"/>
      <point x="265" y="-1"/>
      <point x="268" y="-2" type="curve" smooth="yes"/>
      <point x="351" y="-38" type="line" smooth="yes"/>
      <point x="355" y="-40"/>
      <point x="362" y="-41"/>
    </contour>
  </outline>
</glyph>
<glyph name="V" format="1">
  <advance width="964"/>
  <unicode hex="0056"/>
  <outline>
    <contour>
      <point x="467" y="-40" type="curve" smooth="yes"/>
      <point x="685" y="-40" type="line" smooth="yes"/>
      <point x="690" y="-40"/>
      <point x="698" y="-38"/>
      <point x="703" y="-36" type="curve" smooth="yes"/>
      <point x="776" y="1" type="line" smooth="yes"/>
      <point x="799" y="12"/>
      <point x="806" y="38"/>
      <point x="791" y="59" type="curve" smooth="yes"/>
      <point x="743" y="130" type="line"/>
      <point x="741" y="183" type="line"/>
      <point x="838" y="270" type="line" smooth="yes"/>
      <point x="854" y="285"/>
      <point x="855" y="311"/>
      <point x="840" y="327" type="curve" smooth="yes"/>
      <point x="780" y="392" type="line"/>
      <point x="894" y="467" type="line" smooth="yes"/>
      <point x="904" y="473"/>
      <point x="912" y="488"/>
      <point x="912" y="500" type="curve" smooth="yes"/>
      <point x="911" y="600" type="line"/>
      <point x="914" y="699" type="line" smooth="yes"/>
      <point x="914" y="712"/>
      <point x="905" y="729"/>
      <point x="893" y="735" type="curve" smooth="yes"/>
      <point x="711" y="835" type="line" smooth="yes"/>
      <point x="692" y="845"/>
      <point x="667" y="838"/>
      <point x="657" y="819" type="curve" smooth="yes"/>
      <point x="647" y="800"/>
      <point x="654" y="775"/>
      <point x="673" y="765" type="curve" smooth="yes"/>
      <point x="833" y="677" type="line"/>
      <point x="831" y="600" type="line"/>
      <point x="832" y="522" type="line"/>
      <point x="697" y="433" type="line" smooth="yes"/>
      <point x="676" y="419"/>
      <point x="672" y="392"/>
      <point x="690" y="373" type="curve" smooth="yes"/>
      <point x="754" y="303" type="line"/>
      <point x="674" y="230" type="line" smooth="yes"/>
      <point x="667" y="223"/>
      <point x="661" y="209"/>
      <point x="661" y="199" type="curve" smooth="yes"/>
      <point x="663" y="116" type="line" smooth="yes"/>
      <point x="663" y="109"/>
      <point x="666" y="100"/>
      <point x="670" y="94" type="curve" smooth="yes"/>
      <point x="699" y="52" type="line"/>
      <point x="676" y="40" type="line"/>
      <point x="490" y="40" type="line"/>
      <point x="417" y="161" type="line" smooth="yes"/>
      <point x="414" y="167"/>
      <point x="407" y="174"/>
      <point x="401" y="177" type="curve" smooth="yes"/>
      <point x="297" y="228" type="line" smooth="yes"/>
      <point x="293" y="230"/>
      <point x="286" y="232"/>
      <point x="281" y="233" type="curve" smooth="yes"/>
      <point x="135" y="238" type="line"/>
      <point x="140" y="278" type="line"/>
      <point x="262" y="368" type="line" smooth="yes"/>
      <point x="278" y="380"/>
      <point x="283" y="403"/>
      <point x="272" y="420" type="curve" smooth="yes"/>
      <point x="223" y="504" type="line"/>
      <point x="254" y="586" type="line" smooth="yes"/>
      <point x="258" y="595"/>
      <point x="257" y="610"/>
      <point x="252" y="618" type="curve" smooth="yes"/>
      <point x="201" y="718" type="line"/>
      <point x="152" y="818" type="line" smooth="yes"/>
      <point x="142" y="837"/>
      <point x="118" y="845"/>
      <point x="98" y="836" type="curve" smooth="yes"/>
      <point x="79" y="826"/>
      <point x="71" y="802"/>
      <point x="80" y="782" type="curve" smooth="yes"/>
      <point x="129" y="682" type="line"/>
      <point x="173" y="597" type="line"/>
      <point x="142" y="514" type="line" smooth="yes"/>
      <point x="138" y="504"/>
      <point x="139" y="489"/>
      <point x="145" y="480" type="curve" smooth="yes"/>
      <point x="185" y="411" type="line"/>
      <point x="78" y="332" type="line" smooth="yes"/>
      <point x="71" y="327"/>
      <point x="63" y="314"/>
      <point x="62" y="305" type="curve" smooth="yes"/>
      <point x="50" y="205" type="line" smooth="yes"/>
      <point x="47" y="181"/>
      <point x="65" y="161"/>
      <point x="88" y="160" type="curve" smooth="yes"/>
      <point x="269" y="153" type="line"/>
      <point x="355" y="110" type="line"/>
      <point x="433" y="-21" type="line" smooth="yes"/>
      <point x="439" y="-31"/>
      <point x="454" y="-40"/>
    </contour>
  </outline>
</glyph>
